<svg width="36" height="36" viewBox="0 0 36 36" fill="none" xmlns="http://www.w3.org/2000/svg">
<rect width="36" height="36" rx="18" fill="#FAF5FF"/>
<g clip-path="url(#clip0_230_11501)">
<path d="M17.4147 18.3575C17.229 18.1716 17.0085 18.0242 16.7657 17.9236C16.523 17.823 16.2628 17.7712 16.0001 17.7712C15.7373 17.7712 15.4771 17.823 15.2344 17.9236C14.9917 18.0242 14.7711 18.1716 14.5854 18.3575L10.0254 22.9175C10.087 23.7535 10.462 24.5355 11.0753 25.1071C11.6886 25.6786 12.4951 25.9975 13.3334 26.0001H22.6667C23.3199 26 23.9584 25.8068 24.5021 25.4448L17.4147 18.3575Z" fill="#9854FF"/>
<path d="M21.9993 15.3335C22.7357 15.3335 23.3327 14.7366 23.3327 14.0002C23.3327 13.2638 22.7357 12.6669 21.9993 12.6669C21.263 12.6669 20.666 13.2638 20.666 14.0002C20.666 14.7366 21.263 15.3335 21.9993 15.3335Z" fill="#9854FF"/>
<path d="M22.6667 10H13.3333C12.4496 10.0011 11.6024 10.3526 10.9775 10.9775C10.3526 11.6024 10.0011 12.4496 10 13.3333L10 21.0573L13.6427 17.4147C13.9522 17.105 14.3197 16.8594 14.7242 16.6919C15.1287 16.5243 15.5622 16.438 16 16.438C16.4378 16.438 16.8713 16.5243 17.2758 16.6919C17.6803 16.8594 18.0478 17.105 18.3573 17.4147L25.4447 24.502C25.8067 23.9583 25.9999 23.3198 26 22.6667V13.3333C25.9989 12.4496 25.6474 11.6024 25.0225 10.9775C24.3976 10.3526 23.5504 10.0011 22.6667 10V10ZM22 16.6667C21.4726 16.6667 20.957 16.5103 20.5185 16.2173C20.0799 15.9242 19.7382 15.5078 19.5363 15.0205C19.3345 14.5332 19.2817 13.997 19.3846 13.4798C19.4875 12.9625 19.7414 12.4873 20.1144 12.1144C20.4873 11.7414 20.9625 11.4875 21.4798 11.3846C21.997 11.2817 22.5332 11.3345 23.0205 11.5363C23.5078 11.7382 23.9242 12.0799 24.2173 12.5185C24.5103 12.957 24.6667 13.4726 24.6667 14C24.6667 14.7072 24.3857 15.3855 23.8856 15.8856C23.3855 16.3857 22.7072 16.6667 22 16.6667Z" fill="#9854FF"/>
</g>
<defs>
<clipPath id="clip0_230_11501">
<rect width="16" height="16" fill="white" transform="translate(10 10)"/>
</clipPath>
</defs>
</svg>
