<svg width="20" height="20" viewBox="0 0 20 20" fill="none" xmlns="http://www.w3.org/2000/svg">
<g clip-path="url(#clip0_222_10186)">
<path d="M13.6683 4.34315L10.0002 8.01126L6.33212 4.34315C5.78294 3.79397 4.89256 3.79397 4.34338 4.34315C3.7942 4.89232 3.7942 5.7827 4.34338 6.33188L8.01149 10L4.34338 13.6681C3.7942 14.2173 3.7942 15.1077 4.34338 15.6569C4.89256 16.206 5.78294 16.206 6.33212 15.6569L10.0002 11.9887L13.6683 15.6569C14.2175 16.206 15.1079 16.206 15.6571 15.6569C16.2063 15.1077 16.2063 14.2173 15.6571 13.6681L11.989 10L15.6571 6.33188C16.2063 5.7827 16.2063 4.89232 15.6571 4.34315C15.1079 3.79397 14.2175 3.79397 13.6683 4.34315Z" fill="#9854FF"/>
</g>
<defs>
<clipPath id="clip0_222_10186">
<rect width="16" height="16" fill="white" transform="translate(2 2)"/>
</clipPath>
</defs>
</svg>
