<svg width="36" height="36" viewBox="0 0 36 36" fill="none" xmlns="http://www.w3.org/2000/svg">
<rect width="36" height="36" rx="18" fill="#FAF5FF"/>
<g clip-path="url(#clip0_615_3994)">
<path d="M10.7813 22.7458C10.2812 23.2457 10.0002 23.9239 10 24.6311V25.9998H11.3687C12.0759 25.9996 12.754 25.7186 13.254 25.2184L22.1493 16.3231L19.6767 13.8504L10.7813 22.7458Z" fill="#9854FF"/>
<path d="M25.4298 10.5701C25.2675 10.4076 25.0747 10.2787 24.8625 10.1907C24.6503 10.1028 24.4228 10.0575 24.1931 10.0575C23.9634 10.0575 23.736 10.1028 23.5238 10.1907C23.3116 10.2787 23.1188 10.4076 22.9565 10.5701L20.6191 12.9081L23.0918 15.3808L25.4298 13.0434C25.5923 12.8811 25.7212 12.6883 25.8092 12.4761C25.8972 12.2639 25.9424 12.0365 25.9424 11.8068C25.9424 11.5771 25.8972 11.3496 25.8092 11.1374C25.7212 10.9252 25.5923 10.7324 25.4298 10.5701Z" fill="#9854FF"/>
</g>
<defs>
<clipPath id="clip0_615_3994">
<rect width="16" height="16" fill="white" transform="translate(10 10)"/>
</clipPath>
</defs>
</svg>
