<svg width="40" height="40" viewBox="0 0 40 40" fill="none" xmlns="http://www.w3.org/2000/svg">
<rect x="0.5" y="0.5" width="39" height="39" rx="7.5" fill="white"/>
<rect x="0.5" y="0.5" width="39" height="39" rx="7.5" stroke="#E0E2E7"/>
<g clip-path="url(#clip0_871_7888)">
<path d="M16.3077 19.0769H10.7692C9.2 19.0769 8 17.8769 8 16.3077V10.7692C8 9.2 9.2 8 10.7692 8H16.3077C17.8769 8 19.0769 9.2 19.0769 10.7692V16.3077C19.0769 17.8769 17.8769 19.0769 16.3077 19.0769ZM10.7692 9.84615C10.2154 9.84615 9.84615 10.2154 9.84615 10.7692V16.3077C9.84615 16.8615 10.2154 17.2308 10.7692 17.2308H16.3077C16.8615 17.2308 17.2308 16.8615 17.2308 16.3077V10.7692C17.2308 10.2154 16.8615 9.84615 16.3077 9.84615H10.7692ZM29.2308 19.0769H23.6923C22.1231 19.0769 20.9231 17.8769 20.9231 16.3077V10.7692C20.9231 9.2 22.1231 8 23.6923 8H29.2308C30.8 8 32 9.2 32 10.7692V16.3077C32 17.8769 30.8 19.0769 29.2308 19.0769ZM23.6923 9.84615C23.1385 9.84615 22.7692 10.2154 22.7692 10.7692V16.3077C22.7692 16.8615 23.1385 17.2308 23.6923 17.2308H29.2308C29.7846 17.2308 30.1538 16.8615 30.1538 16.3077V10.7692C30.1538 10.2154 29.7846 9.84615 29.2308 9.84615H23.6923ZM16.3077 32H10.7692C9.2 32 8 30.8 8 29.2308V23.6923C8 22.1231 9.2 20.9231 10.7692 20.9231H16.3077C17.8769 20.9231 19.0769 22.1231 19.0769 23.6923V29.2308C19.0769 30.8 17.8769 32 16.3077 32ZM10.7692 22.7692C10.2154 22.7692 9.84615 23.1385 9.84615 23.6923V29.2308C9.84615 29.7846 10.2154 30.1538 10.7692 30.1538H16.3077C16.8615 30.1538 17.2308 29.7846 17.2308 29.2308V23.6923C17.2308 23.1385 16.8615 22.7692 16.3077 22.7692H10.7692ZM29.2308 32H23.6923C22.1231 32 20.9231 30.8 20.9231 29.2308V23.6923C20.9231 22.1231 22.1231 20.9231 23.6923 20.9231H29.2308C30.8 20.9231 32 22.1231 32 23.6923V29.2308C32 30.8 30.8 32 29.2308 32ZM23.6923 22.7692C23.1385 22.7692 22.7692 23.1385 22.7692 23.6923V29.2308C22.7692 29.7846 23.1385 30.1538 23.6923 30.1538H29.2308C29.7846 30.1538 30.1538 29.7846 30.1538 29.2308V23.6923C30.1538 23.1385 29.7846 22.7692 29.2308 22.7692H23.6923Z" fill="#667085"/>
</g>
<defs>
<clipPath id="clip0_871_7888">
<rect width="24" height="24" fill="white" transform="translate(8 8)"/>
</clipPath>
</defs>
</svg>
