<svg width="36" height="36" viewBox="0 0 36 36" fill="none" xmlns="http://www.w3.org/2000/svg">
<rect width="36" height="36" rx="18" fill="#FAF5FF"/>
<path d="M13.0587 18.2881C12.4611 18.2881 11.9767 18.6961 11.9767 19.1994V19.7088H11.9604C11.0978 19.7088 10.3984 20.2979 10.3984 21.0244V22.789C10.3984 23.5157 11.0978 24.1047 11.9604 24.1047H11.9767V24.6141C11.9767 25.1175 12.461 25.5255 13.0587 25.5255C13.6562 25.5255 14.1405 25.1175 14.1405 24.6141V19.1994C14.1405 18.6961 13.6562 18.2881 13.0587 18.2881ZM24.0391 19.7088H24.0228V19.1995C24.0228 18.6961 23.5385 18.2881 22.9408 18.2881C22.3433 18.2881 21.859 18.6961 21.859 19.1995V24.6141C21.859 25.1175 22.3433 25.5255 22.9408 25.5255C23.5384 25.5255 24.0228 25.1175 24.0228 24.6141V24.1048H24.0391C24.9017 24.1048 25.6011 23.5158 25.6011 22.7891V21.0245C25.6011 20.2979 24.9017 19.7088 24.0391 19.7088Z" fill="#9854FF"/>
<path d="M18 10.4745C13.5817 10.4745 10 14.0561 10 18.4744C10 18.838 10.0246 19.1958 10.0716 19.5465C10.1287 19.4869 10.189 19.4304 10.2522 19.3772C10.4898 19.177 10.765 19.0229 11.0626 18.9202C11.1315 18.5068 11.3517 18.1229 11.6898 17.838C11.7068 17.8238 11.7243 17.8101 11.7417 17.7964C12.0799 14.6389 14.7526 12.1797 18 12.1797C21.2474 12.1797 23.9201 14.6389 24.2583 17.7964C24.2758 17.8101 24.2932 17.8238 24.3102 17.838C24.6483 18.1229 24.8685 18.5069 24.9374 18.9202C25.235 19.0229 25.5102 19.177 25.7478 19.3772C25.811 19.4304 25.8713 19.4869 25.9284 19.5465C25.9761 19.1911 26 18.833 26 18.4744C26 14.0562 22.4183 10.4745 18 10.4745Z" fill="#9854FF"/>
</svg>
