<svg width="6" height="10" viewBox="0 0 6 10" fill="none" xmlns="http://www.w3.org/2000/svg">
<path d="M0 8.91931V1.47131C2.81495e-05 1.33948 0.0391425 1.21061 0.112399 1.10101C0.185655 0.991399 0.289764 0.905973 0.411563 0.855526C0.533363 0.805079 0.667384 0.791877 0.796686 0.817589C0.925988 0.843301 1.04476 0.906772 1.138 0.999978L4.86199 4.72398C4.98697 4.849 5.05718 5.01854 5.05718 5.19531C5.05718 5.37209 4.98697 5.54163 4.86199 5.66665L1.138 9.39065C1.04476 9.48385 0.925988 9.54732 0.796686 9.57303C0.667384 9.59875 0.533363 9.58554 0.411563 9.5351C0.289764 9.48465 0.185655 9.39922 0.112399 9.28962C0.0391425 9.18001 2.81495e-05 9.05114 0 8.91931Z" fill="#22173D"/>
</svg>
