<svg width="23" height="23" viewBox="0 0 23 23" fill="none" xmlns="http://www.w3.org/2000/svg">
<path d="M11.5 0C5.152 0 0 5.152 0 11.5C0 17.848 5.152 23 11.5 23C17.848 23 23 17.848 23 11.5C23 5.152 17.848 0 11.5 0ZM8.3835 16.4335L4.255 12.305C3.8065 11.8565 3.8065 11.132 4.255 10.6835C4.7035 10.235 5.428 10.235 5.8765 10.6835L9.2 13.9955L17.112 6.0835C17.5605 5.635 18.285 5.635 18.7335 6.0835C19.182 6.532 19.182 7.2565 18.7335 7.705L10.005 16.4335C9.568 16.882 8.832 16.882 8.3835 16.4335Z" fill="#6ACE0C"/>
</svg>
