<svg width="16" height="16" viewBox="0 0 16 16" fill="none" xmlns="http://www.w3.org/2000/svg">
<g clip-path="url(#clip0_238_14275)">
<path d="M0.781333 12.7458C0.281202 13.2457 0.000151033 13.9239 0 14.6311L0 15.9997H1.36867C2.07585 15.9996 2.75402 15.7185 3.254 15.2184L12.1493 6.3231L9.67667 3.85043L0.781333 12.7458Z" fill="white"/>
<path d="M15.4318 0.570117C15.2694 0.407607 15.0766 0.278687 14.8644 0.190728C14.6522 0.102769 14.4248 0.0574951 14.1951 0.0574951C13.9654 0.0574951 13.7379 0.102769 13.5257 0.190728C13.3135 0.278687 13.1208 0.407607 12.9584 0.570117L10.6211 2.90812L13.0938 5.38078L15.4318 3.04345C15.5943 2.88111 15.7232 2.68833 15.8111 2.47614C15.8991 2.26394 15.9444 2.03649 15.9444 1.80678C15.9444 1.57708 15.8991 1.34963 15.8111 1.13743C15.7232 0.925236 15.5943 0.732457 15.4318 0.570117Z" fill="white"/>
</g>
<defs>
<clipPath id="clip0_238_14275">
<rect width="16" height="16" fill="white"/>
</clipPath>
</defs>
</svg>
