<svg width="16" height="16" viewBox="0 0 16 16" fill="none" xmlns="http://www.w3.org/2000/svg">
<path d="M4.27325 10.6667H11.7266C11.8584 10.6661 11.9872 10.6265 12.0965 10.5528C12.2058 10.4791 12.2908 10.3746 12.3408 10.2526C12.3907 10.1306 12.4034 9.99648 12.3771 9.86727C12.3508 9.73806 12.2869 9.61954 12.1932 9.52669L8.47325 5.8067C8.41127 5.74421 8.33754 5.69461 8.2563 5.66077C8.17506 5.62692 8.08792 5.6095 7.99991 5.6095C7.91191 5.6095 7.82477 5.62692 7.74353 5.66077C7.66229 5.69461 7.58856 5.74421 7.52658 5.8067L3.80658 9.52669C3.71297 9.61954 3.64898 9.73806 3.62273 9.86727C3.59647 9.99648 3.60912 10.1306 3.65907 10.2526C3.70902 10.3746 3.79403 10.4791 3.90335 10.5528C4.01267 10.6265 4.1414 10.6661 4.27325 10.6667Z" fill="#1A9882"/>
</svg>
