<svg width="18" height="18" viewBox="0 0 18 18" fill="none" xmlns="http://www.w3.org/2000/svg">
<path fill-rule="evenodd" clip-rule="evenodd" d="M6.48659 13.5249L8.0331 15.5348C8.17349 15.7173 8.14887 15.9755 7.97836 16.1302L7.44653 16.6129C7.35153 16.6991 7.23723 16.7374 7.10949 16.7259C6.98178 16.7143 6.87657 16.6558 6.79817 16.5543L5.0836 14.3349L6.48659 13.5249ZM14.9701 8.36659H16.5452C16.7971 8.36659 17.001 8.16084 17.0005 7.90923C17 7.65729 16.7945 7.45371 16.5429 7.45371H14.9679C14.7159 7.45371 14.5121 7.65947 14.5126 7.91105C14.5131 8.16305 14.7185 8.36659 14.9701 8.36659ZM13.1006 4.21953L13.8881 2.8555C14.0139 2.63758 13.9404 2.3579 13.7224 2.23146C13.5048 2.10522 13.2247 2.17888 13.0987 2.39706L12.3112 3.76109C12.1854 3.97901 12.2589 4.25869 12.4769 4.38512C12.6945 4.51137 12.9746 4.43771 13.1006 4.21953ZM14.9229 5.85342L16.216 5.10685C16.4355 4.98012 16.5107 4.6995 16.384 4.47995C16.2572 4.26044 15.9766 4.18525 15.7571 4.31199L14.464 5.05859C14.2445 5.18532 14.1693 5.46594 14.296 5.68548C14.4228 5.90496 14.7034 5.98015 14.9229 5.85342ZM12.8891 7.90767L14.4143 10.5494C14.7007 11.0454 14.5292 11.6855 14.0332 11.9719C13.5704 12.2391 12.9821 12.1075 12.6728 11.6857H12.6727C10.9845 11.4289 8.78533 11.7048 6.59856 12.5572L4.49625 8.91596C6.32857 7.44997 7.67121 5.6927 8.29297 4.10223L8.293 4.10217C8.07459 3.62125 8.25401 3.03914 8.72045 2.76984C9.21645 2.48346 9.85651 2.65501 10.1429 3.15098L11.6681 5.79274C11.7121 5.75873 11.7583 5.72772 11.8065 5.69992C12.3958 5.35966 13.1495 5.56158 13.4897 6.15095C13.83 6.74031 13.6281 7.49394 13.0387 7.8342C12.9905 7.86202 12.9406 7.88657 12.8891 7.90767ZM6.06994 12.9424L3.86704 9.12695L2.11579 10.138C1.05166 10.7524 0.683722 12.1257 1.29806 13.1898L1.2981 13.1899C1.91247 14.2539 3.28574 14.6219 4.34987 14.0076L6.10113 12.9965L6.06994 12.9424Z" fill="#E32B2B"/>
</svg>
