<svg width="10" height="6" viewBox="0 0 10 6" fill="none" xmlns="http://www.w3.org/2000/svg">
<path d="M1.27602 0.471405H8.72402C8.85585 0.471433 8.98472 0.510548 9.09433 0.583804C9.20393 0.65706 9.28936 0.761169 9.33981 0.882968C9.39025 1.00477 9.40345 1.13879 9.37774 1.26809C9.35203 1.39739 9.28856 1.51617 9.19535 1.6094L5.47135 5.3334C5.34634 5.45838 5.1768 5.52859 5.00002 5.52859C4.82325 5.52859 4.65371 5.45838 4.52869 5.3334L0.804688 1.6094C0.711482 1.51617 0.648011 1.39739 0.622299 1.26809C0.596588 1.13879 0.60979 1.00477 0.660237 0.882968C0.710683 0.761169 0.796109 0.65706 0.905716 0.583804C1.01532 0.510548 1.14419 0.471433 1.27602 0.471405Z" fill="#9854FF"/>
</svg>
