<svg width="18" height="18" viewBox="0 0 18 18" fill="none" xmlns="http://www.w3.org/2000/svg">
<g clip-path="url(#clip0_420_855)">
<path d="M17.418 1H2.58203C1.7098 1 1 1.7098 1 2.58203V3.28516H19V2.58203C19 1.7098 18.2902 1 17.418 1ZM8.09724 9.32187L9.97595 10.9658L12.7208 8.22088C12.9382 8.00351 13.2889 8.01954 13.4879 8.24342L14.8164 9.73798V6.87109H5.18359V11.3392L7.39527 9.32855C7.59355 9.14823 7.89555 9.14539 8.09724 9.32187Z" fill="#00DDEB"/>
<path d="M14.8164 11.3255L13.0711 9.36211L10.3729 12.0604C10.1765 12.2567 9.86162 12.2672 9.65273 12.0844L7.75668 10.4254L5.18359 12.7645V13.6914H14.8164V11.3255Z" fill="#00DDEB"/>
<path d="M1 17.418C1 18.2902 1.7098 19 2.58203 19H17.418C18.2902 19 19 18.2902 19 17.418V4.33984H1V17.418ZM6.15412 16.8416L5.59162 17.4041C5.38567 17.6101 5.05179 17.6101 4.84585 17.4041L4.28335 16.8416C4.0774 16.6357 4.0774 16.3018 4.28335 16.0958C4.48926 15.8899 4.82317 15.8899 5.02912 16.0958L5.21875 16.2855L5.40838 16.0958C5.61429 15.8899 5.94821 15.8899 6.15415 16.0958C6.36006 16.3018 6.36006 16.6357 6.15412 16.8416ZM9.15625 17.2773H8.03125C7.74002 17.2773 7.50391 17.0412 7.50391 16.75C7.50391 16.4588 7.74002 16.2227 8.03125 16.2227H9.15625C9.44748 16.2227 9.68359 16.4588 9.68359 16.75C9.68359 17.0412 9.44748 17.2773 9.15625 17.2773ZM12.5312 17.2773H11.4062C11.115 17.2773 10.8789 17.0412 10.8789 16.75C10.8789 16.4588 11.115 16.2227 11.4062 16.2227H12.5312C12.8225 16.2227 13.0586 16.4588 13.0586 16.75C13.0586 17.0412 12.8225 17.2773 12.5312 17.2773ZM4.12891 6.34375C4.12891 6.05252 4.36502 5.81641 4.65625 5.81641H15.3438C15.635 5.81641 15.8711 6.05252 15.8711 6.34375V14.2188C15.8711 14.51 15.635 14.7461 15.3438 14.7461H4.65625C4.36502 14.7461 4.12891 14.51 4.12891 14.2188V6.34375Z" fill="#00DDEB"/>
</g>
<defs>
<clipPath id="clip0_420_855">
<rect width="18" height="18" fill="white"/>
</clipPath>
</defs>
</svg>
