<svg width="6" height="10" viewBox="0 0 6 10" fill="none" xmlns="http://www.w3.org/2000/svg">
<path d="M4.86003 9.3934L1.14003 5.66673C1.01586 5.54183 0.946167 5.37286 0.946167 5.19673C0.946167 5.02061 1.01586 4.85164 1.14003 4.72673L4.86003 1.00007C4.95328 0.906047 5.07241 0.841927 5.20224 0.815881C5.33207 0.789834 5.46672 0.803042 5.58902 0.85382C5.71131 0.904598 5.81572 0.990645 5.88892 1.10099C5.96212 1.21134 6.0008 1.34098 6.00003 1.4734V8.92007C6.0008 9.05248 5.96212 9.18213 5.88892 9.29248C5.81572 9.40282 5.71131 9.48887 5.58902 9.53965C5.46672 9.59042 5.33207 9.60363 5.20224 9.57759C5.07241 9.55154 4.95328 9.48742 4.86003 9.3934Z" fill="#883DCF"/>
</svg>
