<svg width="18" height="18" viewBox="0 0 18 18" fill="none" xmlns="http://www.w3.org/2000/svg">
<path d="M5.744 3.375H11.756L13.0535 2.337C13.4953 1.9845 13.6603 1.41225 13.4735 0.87825C13.2867 0.34425 12.8015 0 12.2375 0H5.2625C4.6985 0 4.21325 0.345 4.0265 0.87825C3.83975 1.4115 4.00475 1.9845 4.44575 2.33625L5.744 3.375ZM11.8588 4.5H5.64125C3.593 6.51075 2 10.0387 2 12.9375C2 15.4567 3.3335 18 6.3125 18H11.375C13.9198 18 15.5 16.0597 15.5 12.9375C15.5 10.0387 13.907 6.51075 11.8588 4.5ZM8.465 10.6875H9.035C9.43336 10.687 9.81743 10.8358 10.1114 11.1047C10.4053 11.3736 10.5877 11.7429 10.6226 12.1397C10.6574 12.5366 10.5422 12.932 10.2996 13.248C10.0571 13.564 9.70485 13.7776 9.3125 13.8465V14.4368C9.3125 14.5859 9.25324 14.729 9.14775 14.8345C9.04226 14.94 8.89918 14.9993 8.75 14.9993C8.60082 14.9993 8.45774 14.94 8.35225 14.8345C8.24676 14.729 8.1875 14.5859 8.1875 14.4368V13.875H7.4375C7.28832 13.875 7.14524 13.8157 7.03975 13.7102C6.93426 13.6048 6.875 13.4617 6.875 13.3125C6.875 13.1633 6.93426 13.0202 7.03975 12.9148C7.14524 12.8093 7.28832 12.75 7.4375 12.75H9.035C9.09606 12.75 9.15653 12.738 9.21295 12.7146C9.26936 12.6912 9.32063 12.657 9.3638 12.6138C9.40698 12.5706 9.44124 12.5194 9.4646 12.4629C9.48797 12.4065 9.5 12.3461 9.5 12.285C9.50069 12.2234 9.48919 12.1622 9.46616 12.1051C9.44313 12.0479 9.40903 11.9959 9.36581 11.952C9.32259 11.9081 9.27111 11.8732 9.21434 11.8492C9.15756 11.8253 9.09661 11.8128 9.035 11.8125H8.465C8.06664 11.813 7.68257 11.6642 7.38864 11.3953C7.09471 11.1264 6.9123 10.7571 6.87744 10.3603C6.84259 9.96344 6.95781 9.56797 7.20036 9.25197C7.44291 8.93597 7.79515 8.72242 8.1875 8.6535V8.0625C8.1875 7.91332 8.24676 7.77024 8.35225 7.66475C8.45774 7.55926 8.60082 7.5 8.75 7.5C8.89918 7.5 9.04226 7.55926 9.14775 7.66475C9.25324 7.77024 9.3125 7.91332 9.3125 8.0625V8.625H10.0625C10.2117 8.625 10.3548 8.68426 10.4602 8.78975C10.5657 8.89524 10.625 9.03832 10.625 9.1875C10.625 9.33668 10.5657 9.47976 10.4602 9.58525C10.3548 9.69074 10.2117 9.75 10.0625 9.75H8.465C8.34167 9.75 8.2234 9.79899 8.1362 9.8862C8.04899 9.9734 8 10.0917 8 10.215C8 10.479 8.2085 10.6875 8.465 10.6875Z" fill="#9854FF"/>
</svg>
