<svg width="18" height="18" viewBox="0 0 18 18" fill="none" xmlns="http://www.w3.org/2000/svg">
<path d="M8.29244 8.7224C10.5523 8.7224 12.3843 6.8904 12.3843 4.63052C12.3843 2.37063 10.5523 0.538635 8.29244 0.538635C6.03256 0.538635 4.20056 2.37063 4.20056 4.63052C4.20056 6.8904 6.03256 8.7224 8.29244 8.7224Z" fill="#F97316"/>
<path fill-rule="evenodd" clip-rule="evenodd" d="M9.35258 15.7991C8.55051 14.94 8.10504 13.8081 8.10641 12.6327C8.10641 11.3806 8.60265 10.2431 9.40912 9.40686C9.04457 9.37859 8.67184 9.36371 8.29241 9.36371C5.82091 9.36371 3.63287 9.98195 2.27437 10.9082C1.238 11.615 0.666628 12.513 0.666628 13.4556V14.5344C0.666334 14.7005 0.698847 14.8651 0.762303 15.0187C0.82576 15.1723 0.91891 15.3118 1.03641 15.4293C1.15392 15.5468 1.29346 15.64 1.44704 15.7034C1.60062 15.7669 1.76522 15.7994 1.93139 15.7991H9.35258Z" fill="#F97316"/>
<path fill-rule="evenodd" clip-rule="evenodd" d="M12.7562 8.72687C10.6002 8.72687 8.85034 10.4767 8.85034 12.6328C8.85034 14.7888 10.6002 16.5386 12.7562 16.5386C14.9123 16.5386 16.6621 14.7888 16.6621 12.6328C16.6621 10.4767 14.9123 8.72687 12.7562 8.72687ZM10.9588 13.283L12.0747 14.027C12.1821 14.0984 12.3108 14.1305 12.4391 14.1178C12.5674 14.105 12.6874 14.0482 12.7785 13.957L14.6385 12.0971C14.7431 11.9925 14.8018 11.8507 14.8018 11.7028C14.8018 11.5549 14.7431 11.413 14.6385 11.3085C14.5339 11.2039 14.3921 11.1451 14.2442 11.1451C14.0963 11.1451 13.9545 11.2039 13.8499 11.3085L12.3128 12.8448L11.5778 12.3545C11.4546 12.2744 11.3049 12.246 11.1609 12.2756C11.017 12.3052 10.8906 12.3904 10.8091 12.5126C10.7276 12.6349 10.6976 12.7843 10.7256 12.9286C10.7537 13.0728 10.8374 13.2002 10.9588 13.283Z" fill="#F97316"/>
</svg>
