<svg width="20" height="21" viewBox="0 0 20 21" fill="none" xmlns="http://www.w3.org/2000/svg">
<path d="M10 4.18628C10.6108 3.49426 11.5044 3.0578 12.5 3.0578C14.341 3.0578 15.8333 4.55018 15.8333 6.39113C15.8333 8.23208 14.341 9.72447 12.5 9.72447C11.5044 9.72447 10.6108 9.288 10 8.59599M12.5 18.0578H2.5V17.2245C2.5 14.463 4.73858 12.2245 7.5 12.2245C10.2614 12.2245 12.5 14.463 12.5 17.2245V18.0578ZM12.5 18.0578H17.5V17.2245C17.5 14.463 15.2614 12.2245 12.5 12.2245C11.5893 12.2245 10.7354 12.468 10 12.8934M10.8333 6.39113C10.8333 8.23208 9.34095 9.72447 7.5 9.72447C5.65905 9.72447 4.16667 8.23208 4.16667 6.39113C4.16667 4.55018 5.65905 3.0578 7.5 3.0578C9.34095 3.0578 10.8333 4.55018 10.8333 6.39113Z" stroke="#64748B" stroke-width="1.5" stroke-linecap="round" stroke-linejoin="round"/>
</svg>
