<svg width="30" height="30" viewBox="0 0 30 30" fill="none" xmlns="http://www.w3.org/2000/svg">
<path d="M18.75 21.25H25L23.2438 19.4938C22.7676 19.0176 22.5 18.3716 22.5 17.6981V13.75C22.5 10.4845 20.413 7.70636 17.5 6.67677V6.25C17.5 4.86929 16.3807 3.75 15 3.75C13.6193 3.75 12.5 4.86929 12.5 6.25V6.67677C9.58702 7.70636 7.5 10.4845 7.5 13.75V17.6981C7.5 18.3716 7.23244 19.0176 6.75617 19.4938L5 21.25H11.25M18.75 21.25V22.5C18.75 24.5711 17.0711 26.25 15 26.25C12.9289 26.25 11.25 24.5711 11.25 22.5V21.25M18.75 21.25H11.25" stroke="#22173D" stroke-width="1.5" stroke-linecap="round" stroke-linejoin="round"/>
</svg>
