<svg width="24" height="24" viewBox="0 0 24 24" fill="none" xmlns="http://www.w3.org/2000/svg">
<path d="M23.7925 22.7761L17.9601 16.9437C19.5247 15.145 20.4719 12.7982 20.4719 10.2333C20.4719 4.58714 15.8794 0 10.2386 0C4.59251 0 0.00537109 4.59246 0.00537109 10.2333C0.00537109 15.8741 4.59783 20.4665 10.2386 20.4665C12.8036 20.4665 15.1504 19.5193 16.9491 17.9548L22.7814 23.7871C22.9198 23.9255 23.106 24 23.287 24C23.4679 24 23.6542 23.9308 23.7925 23.7871C24.0692 23.5104 24.0692 23.0528 23.7925 22.7761ZM1.43686 10.2333C1.43686 5.38004 5.38542 1.43681 10.2333 1.43681C15.0865 1.43681 19.0298 5.38537 19.0298 10.2333C19.0298 15.0812 15.0865 19.035 10.2333 19.035C5.38542 19.035 1.43686 15.0865 1.43686 10.2333Z" fill="#A4A4A4"/>
</svg>
