<svg width="10" height="6" viewBox="0 0 10 6" fill="none" xmlns="http://www.w3.org/2000/svg">
<path d="M8.72675 0.471405L1.27342 0.471405C1.14157 0.471958 1.01285 0.511594 0.903525 0.585303C0.794203 0.659011 0.709191 0.763482 0.659242 0.885503C0.609291 1.00752 0.596644 1.14162 0.622901 1.27083C0.649158 1.40003 0.713139 1.51856 0.806753 1.6114L4.52675 5.3314C4.58873 5.39388 4.66246 5.44348 4.7437 5.47732C4.82494 5.51117 4.91208 5.52859 5.00009 5.52859C5.08809 5.52859 5.17523 5.51117 5.25647 5.47732C5.33771 5.44348 5.41144 5.39388 5.47342 5.3314L9.19342 1.6114C9.28703 1.51856 9.35102 1.40003 9.37727 1.27083C9.40353 1.14162 9.39088 1.00752 9.34093 0.885503C9.29098 0.763482 9.20597 0.659011 9.09665 0.585303C8.98733 0.511594 8.8586 0.471958 8.72675 0.471405Z" fill="#667085"/>
</svg>
