<svg width="17" height="16" viewBox="0 0 17 16" fill="none" xmlns="http://www.w3.org/2000/svg">
<rect x="3.86719" y="3.61951" width="8.92822" height="8.79024" rx="4.39512" fill="white"/>
<path d="M9.08139 6.41422L8.16436 7.33125L7.24734 6.41422C7.11004 6.27692 6.88745 6.27692 6.75015 6.41422C6.61286 6.55151 6.61286 6.77411 6.75015 6.9114L7.66718 7.82843L6.75015 8.74546C6.61286 8.88275 6.61286 9.10535 6.75015 9.24264C6.88745 9.37994 7.11004 9.37994 7.24734 9.24264L8.16436 8.32561L9.08139 9.24264C9.21869 9.37994 9.44128 9.37994 9.57858 9.24264C9.71587 9.10535 9.71587 8.88275 9.57858 8.74546L8.66155 7.82843L9.57858 6.9114C9.71587 6.77411 9.71587 6.55151 9.57858 6.41422C9.44128 6.27692 9.21869 6.27692 9.08139 6.41422Z" fill="#9854FF"/>
</svg>
