<svg width="17" height="16" viewBox="0 0 17 16" fill="none" xmlns="http://www.w3.org/2000/svg">
<g clip-path="url(#clip0_615_7053)">
<path d="M1.68672 8.4875C1.94922 4.85938 4.97422 2 8.66797 2C12.3617 2 15.3867 4.85938 15.6492 8.4875C15.2336 8.18125 14.7211 8 14.168 8C13.3398 8 12.668 8.67188 12.668 9.5V13.5C12.668 14.3281 13.3398 15 14.168 15C15.5492 15 16.668 13.8813 16.668 12.5V11.5V10.5V9C16.668 4.58125 13.0867 1 8.66797 1C4.24922 1 0.667969 4.58125 0.667969 9V10.5V11.5V12.5C0.667969 13.8813 1.78672 15 3.16797 15C3.99609 15 4.66797 14.3281 4.66797 13.5V9.5C4.66797 8.67188 3.99609 8 3.16797 8C2.61484 8 2.10234 8.18125 1.68672 8.4875ZM1.66797 10.5C1.66797 9.67188 2.33984 9 3.16797 9C3.44297 9 3.66797 9.225 3.66797 9.5V13.5C3.66797 13.775 3.44297 14 3.16797 14C2.33984 14 1.66797 13.3281 1.66797 12.5V11.5V10.5ZM15.668 10.5V11.5V12.5C15.668 13.3281 14.9961 14 14.168 14C13.893 14 13.668 13.775 13.668 13.5V9.5C13.668 9.225 13.893 9 14.168 9C14.9961 9 15.668 9.67188 15.668 10.5Z" fill="#22173D"/>
<path d="M8.97375 9.20513C8.97375 9.03708 8.83667 8.9 8.66862 8.9C8.50057 8.9 8.36349 9.03708 8.36349 9.20513V11.3615H6.20708C6.03903 11.3615 5.90195 11.4986 5.90195 11.6667C5.90195 11.8347 6.03903 11.9718 6.20708 11.9718H8.36349V14.1282C8.36349 14.2963 8.50057 14.4333 8.66862 14.4333C8.83667 14.4333 8.97375 14.2963 8.97375 14.1282V11.9718H11.1302C11.2982 11.9718 11.4353 11.8347 11.4353 11.6667C11.4353 11.4986 11.2982 11.3615 11.1302 11.3615H8.97375V9.20513Z" fill="#22173D" stroke="#22173D" stroke-width="0.2"/>
</g>
<defs>
<clipPath id="clip0_615_7053">
<rect width="16" height="16" fill="white" transform="translate(0.667969)"/>
</clipPath>
</defs>
</svg>
