<svg width="20" height="20" viewBox="0 0 20 20" fill="none" xmlns="http://www.w3.org/2000/svg">
<g clip-path="url(#clip0_230_11558)">
<path d="M13.6674 4.34315L9.99926 8.01126L6.33114 4.34315C5.78196 3.79397 4.89158 3.79397 4.3424 4.34315C3.79322 4.89232 3.79322 5.7827 4.3424 6.33188L8.01052 10L4.3424 13.6681C3.79322 14.2173 3.79322 15.1077 4.3424 15.6569C4.89158 16.206 5.78196 16.206 6.33114 15.6569L9.99926 11.9887L13.6674 15.6569C14.2166 16.206 15.1069 16.206 15.6561 15.6569C16.2053 15.1077 16.2053 14.2173 15.6561 13.6681L11.988 10L15.6561 6.33188C16.2053 5.7827 16.2053 4.89232 15.6561 4.34315C15.1069 3.79397 14.2166 3.79397 13.6674 4.34315Z" fill="#9854FF"/>
</g>
<defs>
<clipPath id="clip0_230_11558">
<rect width="16" height="16" fill="white" transform="translate(2 2)"/>
</clipPath>
</defs>
</svg>
