<svg width="20" height="21" viewBox="0 0 20 21" fill="none" xmlns="http://www.w3.org/2000/svg">
<path d="M14.1666 12.2245V17.2245M11.6666 14.7245H16.6666M4.99998 8.89114H6.66665C7.58712 8.89114 8.33331 8.14494 8.33331 7.22447V5.5578C8.33331 4.63733 7.58712 3.89114 6.66665 3.89114H4.99998C4.07951 3.89114 3.33331 4.63733 3.33331 5.5578V7.22447C3.33331 8.14494 4.07951 8.89114 4.99998 8.89114ZM13.3333 8.89114H15C15.9205 8.89114 16.6666 8.14494 16.6666 7.22447V5.5578C16.6666 4.63733 15.9205 3.89114 15 3.89114H13.3333C12.4128 3.89114 11.6666 4.63733 11.6666 5.5578V7.22447C11.6666 8.14494 12.4128 8.89114 13.3333 8.89114ZM4.99998 17.2245H6.66665C7.58712 17.2245 8.33331 16.4783 8.33331 15.5578V13.8911C8.33331 12.9707 7.58712 12.2245 6.66665 12.2245H4.99998C4.07951 12.2245 3.33331 12.9707 3.33331 13.8911V15.5578C3.33331 16.4783 4.07951 17.2245 4.99998 17.2245Z" stroke="#9854FF" stroke-width="1.5" stroke-linecap="round" stroke-linejoin="round"/>
</svg>
