<svg width="20" height="21" viewBox="0 0 20 21" fill="none" xmlns="http://www.w3.org/2000/svg">
<path d="M14.166 17.2245H18.3327V15.5578C18.3327 14.1771 17.2134 13.0578 15.8327 13.0578C15.0363 13.0578 14.327 13.4301 13.8691 14.0102M14.166 17.2245H5.83268M14.166 17.2245V15.5578C14.166 15.0109 14.0607 14.4887 13.8691 14.0102M5.83268 17.2245H1.66602V15.5578C1.66602 14.1771 2.7853 13.0578 4.16602 13.0578C4.96236 13.0578 5.67173 13.4301 6.12955 14.0102M5.83268 17.2245V15.5578C5.83268 15.0109 5.93804 14.4887 6.12955 14.0102M6.12955 14.0102C6.74393 12.4753 8.24503 11.3911 9.99935 11.3911C11.7537 11.3911 13.2548 12.4753 13.8691 14.0102M12.4993 6.39114C12.4993 7.77186 11.3801 8.89114 9.99935 8.89114C8.61864 8.89114 7.49935 7.77186 7.49935 6.39114C7.49935 5.01043 8.61864 3.89114 9.99935 3.89114C11.3801 3.89114 12.4993 5.01043 12.4993 6.39114ZM17.4993 8.89114C17.4993 9.81162 16.7532 10.5578 15.8327 10.5578C14.9122 10.5578 14.166 9.81162 14.166 8.89114C14.166 7.97067 14.9122 7.22448 15.8327 7.22448C16.7532 7.22448 17.4993 7.97067 17.4993 8.89114ZM5.83268 8.89114C5.83268 9.81162 5.08649 10.5578 4.16602 10.5578C3.24554 10.5578 2.49935 9.81162 2.49935 8.89114C2.49935 7.97067 3.24554 7.22448 4.16602 7.22448C5.08649 7.22448 5.83268 7.97067 5.83268 8.89114Z" stroke="#9854FF" stroke-width="1.5" stroke-linecap="round" stroke-linejoin="round"/>
</svg>
