<svg width="36" height="36" viewBox="0 0 36 36" fill="none" xmlns="http://www.w3.org/2000/svg">
<rect width="36" height="36" rx="8" fill="#FDDCC5"/>
<path d="M17.2924 17.7224C19.5523 17.7224 21.3843 15.8904 21.3843 13.6305C21.3843 11.3706 19.5523 9.53864 17.2924 9.53864C15.0325 9.53864 13.2005 11.3706 13.2005 13.6305C13.2005 15.8904 15.0325 17.7224 17.2924 17.7224Z" fill="#F97316"/>
<path fill-rule="evenodd" clip-rule="evenodd" d="M18.3526 24.7991C17.5505 23.94 17.105 22.8081 17.1064 21.6327C17.1064 20.3806 17.6026 19.2431 18.4091 18.4069C18.0446 18.3786 17.6718 18.3637 17.2924 18.3637C14.8209 18.3637 12.6329 18.982 11.2744 19.9082C10.238 20.615 9.66663 21.513 9.66663 22.4556V23.5344C9.66633 23.7005 9.69885 23.8651 9.7623 24.0187C9.82576 24.1723 9.91891 24.3118 10.0364 24.4293C10.1539 24.5468 10.2935 24.64 10.447 24.7034C10.6006 24.7669 10.7652 24.7994 10.9314 24.7991H18.3526Z" fill="#F97316"/>
<path fill-rule="evenodd" clip-rule="evenodd" d="M21.7563 17.7269C19.6002 17.7269 17.8504 19.4767 17.8504 21.6328C17.8504 23.7888 19.6002 25.5386 21.7563 25.5386C23.9123 25.5386 25.6622 23.7888 25.6622 21.6328C25.6622 19.4767 23.9123 17.7269 21.7563 17.7269ZM19.9588 22.283L21.0748 23.027C21.1821 23.0984 21.3109 23.1305 21.4392 23.1178C21.5675 23.105 21.6874 23.0482 21.7786 22.957L23.6386 21.0971C23.7431 20.9925 23.8019 20.8507 23.8019 20.7028C23.8019 20.5549 23.7431 20.413 23.6386 20.3085C23.534 20.2039 23.3921 20.1451 23.2442 20.1451C23.0964 20.1451 22.9545 20.2039 22.8499 20.3085L21.3129 21.8448L20.5778 21.3545C20.4547 21.2744 20.3049 21.246 20.161 21.2756C20.0171 21.3052 19.8907 21.3904 19.8092 21.5126C19.7277 21.6349 19.6977 21.7843 19.7257 21.9286C19.7537 22.0728 19.8375 22.2002 19.9588 22.283Z" fill="#F97316"/>
</svg>
