<svg width="40" height="40" viewBox="0 0 40 40" fill="none" xmlns="http://www.w3.org/2000/svg">
<rect width="40" height="40" rx="20" fill="#F0F1F3"/>
<g clip-path="url(#clip0_121_2611)">
<path d="M19.9999 11.0319C18.0154 11.034 16.1127 11.8233 14.7094 13.2265C13.306 14.6297 12.5165 16.5323 12.5142 18.5169C12.5142 20.4444 14.0067 23.4609 16.9504 27.4824C17.3009 27.9625 17.7597 28.353 18.2896 28.6223C18.8195 28.8915 19.4055 29.0319 19.9999 29.0319C20.5943 29.0319 21.1803 28.8915 21.7102 28.6223C22.2401 28.353 22.699 27.9625 23.0494 27.4824C25.9932 23.4609 27.4857 20.4444 27.4857 18.5169C27.4833 16.5323 26.6938 14.6297 25.2905 13.2265C23.8871 11.8233 21.9845 11.034 19.9999 11.0319ZM19.9999 21.5004C19.4066 21.5004 18.8265 21.3244 18.3332 20.9948C17.8399 20.6651 17.4553 20.1966 17.2283 19.6484C17.0012 19.1002 16.9418 18.497 17.0576 17.9151C17.1733 17.3331 17.459 16.7986 17.8786 16.379C18.2981 15.9595 18.8327 15.6738 19.4146 15.558C19.9966 15.4422 20.5998 15.5017 21.148 15.7287C21.6961 15.9558 22.1647 16.3403 22.4943 16.8336C22.824 17.327 22.9999 17.907 22.9999 18.5004C22.9999 19.296 22.6838 20.0591 22.1212 20.6217C21.5586 21.1843 20.7956 21.5004 19.9999 21.5004Z" fill="#667085"/>
</g>
<defs>
<clipPath id="clip0_121_2611">
<rect width="18" height="18" fill="white" transform="translate(11 11)"/>
</clipPath>
</defs>
</svg>
