<svg width="20" height="20" viewBox="0 0 20 20" fill="none" xmlns="http://www.w3.org/2000/svg">
<g clip-path="url(#clip0_486_398)">
<path d="M2.66757 5.16717H4.49138C4.85135 6.4916 6.21681 7.27346 7.54124 6.91349C8.39187 6.6823 9.05637 6.0178 9.28756 5.16717H17.3328C17.7009 5.16717 17.9994 4.86873 17.9994 4.50058C17.9994 4.13243 17.7009 3.83399 17.3328 3.83399H9.28756C8.9276 2.50953 7.56214 1.72767 6.23771 2.08763C5.38708 2.31883 4.72258 2.98332 4.49138 3.83396H2.66757C2.29942 3.83396 2.00098 4.1324 2.00098 4.50055C2.00098 4.8687 2.29942 5.16717 2.66757 5.16717Z" fill="#858D9D"/>
<path d="M17.3328 9.33374H15.5089C15.1497 8.0095 13.785 7.2272 12.4607 7.58642C11.6094 7.81736 10.9444 8.48239 10.7134 9.33374H2.66757C2.29942 9.33374 2.00098 9.63218 2.00098 10.0003C2.00098 10.3685 2.29942 10.6669 2.66757 10.6669H10.7134C11.0727 11.9912 12.4374 12.7735 13.7616 12.4143C14.6129 12.1833 15.278 11.5183 15.5089 10.6669H17.3328C17.7009 10.6669 17.9994 10.3685 17.9994 10.0003C17.9994 9.63218 17.7009 9.33374 17.3328 9.33374Z" fill="#858D9D"/>
<path d="M17.3328 14.8329H9.28756C8.9276 13.5085 7.56214 12.7266 6.23771 13.0866C5.38708 13.3178 4.72258 13.9823 4.49138 14.8329H2.66757C2.29942 14.8329 2.00098 15.1313 2.00098 15.4995C2.00098 15.8676 2.29942 16.1661 2.66757 16.1661H4.49138C4.85135 17.4905 6.21681 18.2724 7.54124 17.9124C8.39187 17.6812 9.05637 17.0167 9.28756 16.1661H17.3328C17.7009 16.1661 17.9994 15.8676 17.9994 15.4995C17.9994 15.1313 17.7009 14.8329 17.3328 14.8329Z" fill="#858D9D"/>
</g>
<defs>
<clipPath id="clip0_486_398">
<rect width="16" height="16" fill="white" transform="translate(2 2)"/>
</clipPath>
</defs>
</svg>
