<svg width="605" height="294" viewBox="0 0 605 294" fill="none" xmlns="http://www.w3.org/2000/svg">
<circle cx="438" cy="9" r="6" fill="#9854FF"/>
<path d="M451.098 13V4.324H456.702L456.696 5.44H452.388V8.074H456.234V9.172H452.382V11.866L456.804 11.872V13H451.098ZM458.289 13V6.796H459.543V7.69C459.643 7.522 459.777 7.364 459.945 7.216C460.117 7.068 460.327 6.948 460.575 6.856C460.827 6.764 461.117 6.718 461.445 6.718C461.833 6.718 462.191 6.796 462.519 6.952C462.851 7.104 463.117 7.344 463.317 7.672C463.517 7.996 463.617 8.416 463.617 8.932V13H462.333V9.07C462.333 8.626 462.213 8.296 461.973 8.08C461.737 7.864 461.431 7.756 461.055 7.756C460.803 7.756 460.563 7.798 460.335 7.882C460.107 7.966 459.923 8.094 459.783 8.266C459.643 8.434 459.573 8.646 459.573 8.902V13H458.289ZM467.446 13.042C466.986 13.042 466.63 12.98 466.378 12.856C466.126 12.732 465.95 12.554 465.85 12.322C465.75 12.086 465.7 11.802 465.7 11.47V7.72H464.692V6.796H465.742L466.054 4.972H466.99V6.79H468.382V7.72H466.99L466.996 11.422C466.996 11.626 467.016 11.776 467.056 11.872C467.1 11.964 467.172 12.024 467.272 12.052C467.376 12.076 467.516 12.088 467.692 12.088H468.412V12.922C468.336 12.954 468.218 12.982 468.058 13.006C467.902 13.03 467.698 13.042 467.446 13.042ZM472.406 13.12C471.818 13.12 471.3 12.994 470.852 12.742C470.404 12.486 470.054 12.122 469.802 11.65C469.554 11.178 469.43 10.616 469.43 9.964C469.43 9.32 469.544 8.752 469.772 8.26C470 7.764 470.33 7.376 470.762 7.096C471.194 6.816 471.714 6.676 472.322 6.676C472.918 6.676 473.422 6.804 473.834 7.06C474.246 7.316 474.558 7.676 474.77 8.14C474.982 8.6 475.088 9.144 475.088 9.772V10.198H470.72C470.716 10.57 470.776 10.904 470.9 11.2C471.024 11.492 471.208 11.724 471.452 11.896C471.7 12.064 472.008 12.148 472.376 12.148C472.748 12.148 473.068 12.064 473.336 11.896C473.608 11.728 473.786 11.478 473.87 11.146H475.058C474.986 11.57 474.816 11.93 474.548 12.226C474.28 12.522 473.958 12.746 473.582 12.898C473.206 13.046 472.814 13.12 472.406 13.12ZM470.72 9.364H473.864C473.864 9.04 473.808 8.746 473.696 8.482C473.584 8.214 473.412 8.004 473.18 7.852C472.952 7.696 472.664 7.618 472.316 7.618C471.96 7.618 471.664 7.704 471.428 7.876C471.192 8.048 471.014 8.268 470.894 8.536C470.778 8.804 470.72 9.08 470.72 9.364ZM476.61 13V6.796H477.84V8.068C477.944 7.764 478.088 7.51 478.272 7.306C478.46 7.098 478.678 6.942 478.926 6.838C479.174 6.73 479.436 6.676 479.712 6.676C479.796 6.676 479.876 6.682 479.952 6.694C480.028 6.702 480.088 6.718 480.132 6.742V7.978C480.08 7.954 480.012 7.938 479.928 7.93C479.848 7.922 479.778 7.916 479.718 7.912C479.446 7.892 479.198 7.906 478.974 7.954C478.75 8.002 478.556 8.082 478.392 8.194C478.232 8.306 478.108 8.452 478.02 8.632C477.936 8.812 477.894 9.024 477.894 9.268V13H476.61ZM481.428 14.932V6.796H482.712L482.724 7.828C482.8 7.692 482.898 7.558 483.018 7.426C483.138 7.29 483.28 7.166 483.444 7.054C483.612 6.938 483.802 6.846 484.014 6.778C484.23 6.71 484.468 6.676 484.728 6.676C485.216 6.676 485.646 6.79 486.018 7.018C486.394 7.242 486.686 7.588 486.894 8.056C487.106 8.52 487.212 9.11 487.212 9.826C487.212 10.546 487.106 11.15 486.894 11.638C486.686 12.126 486.388 12.496 486 12.748C485.612 12.996 485.152 13.12 484.62 13.12C484.364 13.12 484.134 13.084 483.93 13.012C483.726 12.94 483.546 12.846 483.39 12.73C483.234 12.61 483.1 12.482 482.988 12.346C482.88 12.206 482.79 12.068 482.718 11.932V14.932H481.428ZM484.35 12.142C484.826 12.142 485.216 11.958 485.52 11.59C485.828 11.218 485.982 10.638 485.982 9.85C485.982 9.174 485.84 8.64 485.556 8.248C485.276 7.852 484.874 7.654 484.35 7.654C483.81 7.654 483.402 7.86 483.126 8.272C482.85 8.68 482.712 9.206 482.712 9.85C482.712 10.27 482.772 10.654 482.892 11.002C483.016 11.346 483.2 11.622 483.444 11.83C483.688 12.038 483.99 12.142 484.35 12.142ZM488.671 13V6.796H489.901V8.068C490.005 7.764 490.149 7.51 490.333 7.306C490.521 7.098 490.739 6.942 490.987 6.838C491.235 6.73 491.497 6.676 491.773 6.676C491.857 6.676 491.937 6.682 492.013 6.694C492.089 6.702 492.149 6.718 492.193 6.742V7.978C492.141 7.954 492.073 7.938 491.989 7.93C491.909 7.922 491.839 7.916 491.779 7.912C491.507 7.892 491.259 7.906 491.035 7.954C490.811 8.002 490.617 8.082 490.453 8.194C490.293 8.306 490.169 8.452 490.081 8.632C489.997 8.812 489.955 9.024 489.955 9.268V13H488.671ZM493.519 13V6.796H494.755V13H493.519ZM493.489 5.596V4.33H494.779V5.596H493.489ZM498.894 13.12C498.462 13.12 498.056 13.052 497.676 12.916C497.3 12.78 496.984 12.566 496.728 12.274C496.476 11.982 496.318 11.608 496.254 11.152H497.4C497.452 11.388 497.55 11.584 497.694 11.74C497.842 11.892 498.018 12.006 498.222 12.082C498.43 12.154 498.652 12.19 498.888 12.19C499.28 12.19 499.598 12.12 499.842 11.98C500.086 11.836 500.208 11.616 500.208 11.32C500.208 11.108 500.142 10.938 500.01 10.81C499.878 10.682 499.672 10.588 499.392 10.528L498.156 10.234C497.644 10.114 497.234 9.924 496.926 9.664C496.618 9.4 496.462 9.032 496.458 8.56C496.458 8.196 496.548 7.872 496.728 7.588C496.912 7.304 497.184 7.082 497.544 6.922C497.908 6.758 498.356 6.676 498.888 6.676C499.588 6.676 500.15 6.832 500.574 7.144C501.002 7.456 501.222 7.908 501.234 8.5H500.124C500.084 8.216 499.954 7.994 499.734 7.834C499.518 7.67 499.232 7.588 498.876 7.588C498.508 7.588 498.206 7.662 497.97 7.81C497.734 7.954 497.616 8.176 497.616 8.476C497.616 8.68 497.702 8.842 497.874 8.962C498.05 9.078 498.308 9.174 498.648 9.25L499.824 9.544C500.128 9.624 500.378 9.73 500.574 9.862C500.77 9.99 500.924 10.132 501.036 10.288C501.148 10.444 501.226 10.606 501.27 10.774C501.318 10.942 501.342 11.1 501.342 11.248C501.342 11.64 501.242 11.976 501.042 12.256C500.846 12.532 500.566 12.746 500.202 12.898C499.838 13.046 499.402 13.12 498.894 13.12ZM505.473 13.12C504.885 13.12 504.367 12.994 503.919 12.742C503.471 12.486 503.121 12.122 502.869 11.65C502.621 11.178 502.497 10.616 502.497 9.964C502.497 9.32 502.611 8.752 502.839 8.26C503.067 7.764 503.397 7.376 503.829 7.096C504.261 6.816 504.781 6.676 505.389 6.676C505.985 6.676 506.489 6.804 506.901 7.06C507.313 7.316 507.625 7.676 507.837 8.14C508.049 8.6 508.155 9.144 508.155 9.772V10.198H503.787C503.783 10.57 503.843 10.904 503.967 11.2C504.091 11.492 504.275 11.724 504.519 11.896C504.767 12.064 505.075 12.148 505.443 12.148C505.815 12.148 506.135 12.064 506.403 11.896C506.675 11.728 506.853 11.478 506.937 11.146H508.125C508.053 11.57 507.883 11.93 507.615 12.226C507.347 12.522 507.025 12.746 506.649 12.898C506.273 13.046 505.881 13.12 505.473 13.12ZM503.787 9.364H506.931C506.931 9.04 506.875 8.746 506.763 8.482C506.651 8.214 506.479 8.004 506.247 7.852C506.019 7.696 505.731 7.618 505.383 7.618C505.027 7.618 504.731 7.704 504.495 7.876C504.259 8.048 504.081 8.268 503.961 8.536C503.845 8.804 503.787 9.08 503.787 9.364Z" fill="#667085"/>
<circle cx="531" cy="9" r="6" fill="#00DDEB"/>
<path d="M544.098 13V4.324H545.382V13H544.098ZM547.41 13V6.796H548.664V7.69C548.764 7.522 548.898 7.364 549.066 7.216C549.238 7.068 549.448 6.948 549.696 6.856C549.948 6.764 550.238 6.718 550.566 6.718C550.954 6.718 551.312 6.796 551.64 6.952C551.972 7.104 552.238 7.344 552.438 7.672C552.638 7.996 552.738 8.416 552.738 8.932V13H551.454V9.07C551.454 8.626 551.334 8.296 551.094 8.08C550.858 7.864 550.552 7.756 550.176 7.756C549.924 7.756 549.684 7.798 549.456 7.882C549.228 7.966 549.044 8.094 548.904 8.266C548.764 8.434 548.694 8.646 548.694 8.902V13H547.41ZM556.729 13.12C555.917 13.12 555.275 12.842 554.803 12.286C554.335 11.726 554.101 10.92 554.101 9.868C554.101 9.224 554.195 8.664 554.383 8.188C554.575 7.708 554.857 7.336 555.229 7.072C555.601 6.808 556.065 6.676 556.621 6.676C556.897 6.676 557.145 6.71 557.365 6.778C557.585 6.846 557.777 6.934 557.941 7.042C558.105 7.15 558.243 7.266 558.355 7.39C558.467 7.514 558.551 7.63 558.607 7.738V4.084H559.903V13H558.937L558.793 11.728C558.749 11.864 558.681 12.012 558.589 12.172C558.501 12.332 558.377 12.484 558.217 12.628C558.061 12.772 557.861 12.89 557.617 12.982C557.373 13.074 557.077 13.12 556.729 13.12ZM556.975 12.154C557.551 12.154 557.967 11.974 558.223 11.614C558.479 11.25 558.607 10.654 558.607 9.826C558.603 9.358 558.545 8.962 558.433 8.638C558.325 8.314 558.153 8.07 557.917 7.906C557.685 7.738 557.379 7.654 556.999 7.654C556.523 7.654 556.133 7.826 555.829 8.17C555.529 8.51 555.379 9.062 555.379 9.826C555.379 10.578 555.515 11.154 555.787 11.554C556.063 11.954 556.459 12.154 556.975 12.154ZM561.799 13V6.796H563.035V13H561.799ZM561.769 5.596V4.33H563.059V5.596H561.769ZM566.514 13L564.246 6.796H565.434L567.006 11.374H567.09L568.662 6.796H569.85L567.594 13H566.514ZM571.059 13V6.796H572.295V13H571.059ZM571.029 5.596V4.33H572.319V5.596H571.029ZM576.411 13.12C575.599 13.12 574.957 12.842 574.485 12.286C574.017 11.726 573.783 10.92 573.783 9.868C573.783 9.224 573.877 8.664 574.065 8.188C574.257 7.708 574.539 7.336 574.911 7.072C575.283 6.808 575.747 6.676 576.303 6.676C576.579 6.676 576.827 6.71 577.047 6.778C577.267 6.846 577.459 6.934 577.623 7.042C577.787 7.15 577.925 7.266 578.037 7.39C578.149 7.514 578.233 7.63 578.289 7.738V4.084H579.585V13H578.619L578.475 11.728C578.431 11.864 578.363 12.012 578.271 12.172C578.183 12.332 578.059 12.484 577.899 12.628C577.743 12.772 577.543 12.89 577.299 12.982C577.055 13.074 576.759 13.12 576.411 13.12ZM576.657 12.154C577.233 12.154 577.649 11.974 577.905 11.614C578.161 11.25 578.289 10.654 578.289 9.826C578.285 9.358 578.227 8.962 578.115 8.638C578.007 8.314 577.835 8.07 577.599 7.906C577.367 7.738 577.061 7.654 576.681 7.654C576.205 7.654 575.815 7.826 575.511 8.17C575.211 8.51 575.061 9.062 575.061 9.826C575.061 10.578 575.197 11.154 575.469 11.554C575.745 11.954 576.141 12.154 576.657 12.154ZM583.66 13.12C583.348 13.116 583.05 13.07 582.766 12.982C582.482 12.894 582.228 12.762 582.004 12.586C581.784 12.41 581.608 12.192 581.476 11.932C581.348 11.672 581.284 11.37 581.284 11.026V6.796H582.574V10.888C582.574 11.26 582.69 11.562 582.922 11.794C583.154 12.026 583.504 12.142 583.972 12.142C584.396 12.142 584.736 12.032 584.992 11.812C585.248 11.588 585.376 11.262 585.376 10.834V6.796H586.654V13H585.658L585.514 11.8C585.442 12.124 585.312 12.384 585.124 12.58C584.94 12.772 584.72 12.912 584.464 13C584.212 13.084 583.944 13.124 583.66 13.12ZM590.229 13.12C589.829 13.12 589.473 13.048 589.161 12.904C588.853 12.76 588.611 12.552 588.435 12.28C588.259 12.008 588.171 11.68 588.171 11.296C588.171 10.608 588.413 10.094 588.897 9.754C589.385 9.414 590.165 9.234 591.237 9.214L592.257 9.184V8.734C592.257 8.378 592.151 8.098 591.939 7.894C591.727 7.69 591.399 7.59 590.955 7.594C590.627 7.594 590.333 7.67 590.073 7.822C589.813 7.974 589.643 8.224 589.563 8.572H588.453C588.477 8.16 588.595 7.814 588.807 7.534C589.023 7.25 589.319 7.036 589.695 6.892C590.071 6.748 590.511 6.676 591.015 6.676C591.583 6.676 592.049 6.754 592.413 6.91C592.777 7.062 593.047 7.286 593.223 7.582C593.403 7.878 593.493 8.238 593.493 8.662V13H592.401L592.305 11.86C592.073 12.336 591.779 12.666 591.423 12.85C591.067 13.03 590.669 13.12 590.229 13.12ZM590.631 12.226C590.827 12.226 591.021 12.192 591.213 12.124C591.405 12.052 591.579 11.956 591.735 11.836C591.891 11.712 592.015 11.574 592.107 11.422C592.203 11.27 592.253 11.114 592.257 10.954V9.928L591.417 9.946C590.989 9.95 590.625 9.994 590.325 10.078C590.029 10.162 589.801 10.292 589.641 10.468C589.485 10.644 589.407 10.878 589.407 11.17C589.407 11.502 589.521 11.762 589.749 11.95C589.981 12.134 590.275 12.226 590.631 12.226ZM596.879 13.084C596.511 13.084 596.215 13.036 595.991 12.94C595.771 12.844 595.603 12.716 595.487 12.556C595.371 12.392 595.293 12.208 595.253 12.004C595.217 11.796 595.199 11.582 595.199 11.362V4.084H596.465V11.23C596.465 11.518 596.521 11.738 596.633 11.89C596.749 12.042 596.925 12.128 597.161 12.148L597.485 12.16V12.976C597.385 13.008 597.281 13.034 597.173 13.054C597.069 13.074 596.971 13.084 596.879 13.084ZM601.132 13.12C600.7 13.12 600.294 13.052 599.914 12.916C599.538 12.78 599.222 12.566 598.966 12.274C598.714 11.982 598.556 11.608 598.492 11.152H599.638C599.69 11.388 599.788 11.584 599.932 11.74C600.08 11.892 600.256 12.006 600.46 12.082C600.668 12.154 600.89 12.19 601.126 12.19C601.518 12.19 601.836 12.12 602.08 11.98C602.324 11.836 602.446 11.616 602.446 11.32C602.446 11.108 602.38 10.938 602.248 10.81C602.116 10.682 601.91 10.588 601.63 10.528L600.394 10.234C599.882 10.114 599.472 9.924 599.164 9.664C598.856 9.4 598.7 9.032 598.696 8.56C598.696 8.196 598.786 7.872 598.966 7.588C599.15 7.304 599.422 7.082 599.782 6.922C600.146 6.758 600.594 6.676 601.126 6.676C601.826 6.676 602.388 6.832 602.812 7.144C603.24 7.456 603.46 7.908 603.472 8.5H602.362C602.322 8.216 602.192 7.994 601.972 7.834C601.756 7.67 601.47 7.588 601.114 7.588C600.746 7.588 600.444 7.662 600.208 7.81C599.972 7.954 599.854 8.176 599.854 8.476C599.854 8.68 599.94 8.842 600.112 8.962C600.288 9.078 600.546 9.174 600.886 9.25L602.062 9.544C602.366 9.624 602.616 9.73 602.812 9.862C603.008 9.99 603.162 10.132 603.274 10.288C603.386 10.444 603.464 10.606 603.508 10.774C603.556 10.942 603.58 11.1 603.58 11.248C603.58 11.64 603.48 11.976 603.28 12.256C603.084 12.532 602.804 12.746 602.44 12.898C602.076 13.046 601.64 13.12 601.132 13.12Z" fill="#667085"/>
<g clip-path="url(#clip0_152_5401)">
<path d="M19.0498 55V54.322V53.968C19.0498 53.524 19.1318 53.14 19.2958 52.816C19.4638 52.492 19.6838 52.21 19.9558 51.97C20.2318 51.726 20.5318 51.508 20.8558 51.316C21.1838 51.124 21.5098 50.94 21.8338 50.764C22.1618 50.584 22.4618 50.398 22.7338 50.206C23.0058 50.01 23.2238 49.79 23.3878 49.546C23.5558 49.298 23.6398 49.006 23.6398 48.67C23.6398 48.23 23.4838 47.872 23.1718 47.596C22.8638 47.32 22.4458 47.182 21.9178 47.182C21.3498 47.182 20.8938 47.342 20.5498 47.662C20.2058 47.982 20.0118 48.408 19.9678 48.94H18.8638C18.8758 48.44 18.9998 47.984 19.2358 47.572C19.4718 47.156 19.8178 46.824 20.2738 46.576C20.7298 46.328 21.2918 46.204 21.9598 46.204C22.5398 46.204 23.0438 46.308 23.4718 46.516C23.8998 46.72 24.2298 47.008 24.4618 47.38C24.6978 47.748 24.8158 48.178 24.8158 48.67C24.8158 49.118 24.7338 49.502 24.5698 49.822C24.4058 50.142 24.1878 50.42 23.9158 50.656C23.6478 50.888 23.3538 51.096 23.0338 51.28C22.7138 51.464 22.3918 51.642 22.0678 51.814C21.7438 51.982 21.4478 52.16 21.1798 52.348C20.9118 52.532 20.6958 52.744 20.5318 52.984C20.3678 53.224 20.2858 53.51 20.2858 53.842V54.016H24.8638V55H19.0498ZM29.4682 55.132C28.9322 55.132 28.4362 55.038 27.9802 54.85C27.5242 54.662 27.1322 54.4 26.8042 54.064C26.4802 53.728 26.2422 53.342 26.0902 52.906L27.0502 52.504C27.1942 52.832 27.3742 53.124 27.5902 53.38C27.8102 53.636 28.0702 53.836 28.3702 53.98C28.6702 54.124 29.0102 54.196 29.3902 54.196C30.0062 54.196 30.5002 54.018 30.8722 53.662C31.2482 53.302 31.4362 52.814 31.4362 52.198C31.4362 51.814 31.3482 51.48 31.1722 51.196C30.9962 50.908 30.7582 50.684 30.4582 50.524C30.1622 50.364 29.8342 50.284 29.4742 50.284C29.2382 50.284 29.0182 50.306 28.8142 50.35C28.6102 50.39 28.4082 50.47 28.2082 50.59C28.0082 50.71 27.7982 50.892 27.5782 51.136C27.5542 51.148 27.5362 51.154 27.5242 51.154C27.5122 51.15 27.4922 51.142 27.4642 51.13L26.5282 50.836L26.9182 46.324H32.0962L32.0662 47.284H27.8662L27.6442 50.086C27.9322 49.818 28.2462 49.628 28.5862 49.516C28.9302 49.4 29.3022 49.342 29.7022 49.342C30.2262 49.342 30.7082 49.45 31.1482 49.666C31.5922 49.878 31.9482 50.194 32.2162 50.614C32.4842 51.03 32.6182 51.546 32.6182 52.162C32.6182 52.762 32.4882 53.284 32.2282 53.728C31.9682 54.172 31.6022 54.518 31.1302 54.766C30.6582 55.01 30.1042 55.132 29.4682 55.132ZM34.1797 55V46.084H35.2837V51.898L38.1997 48.796H39.4717L37.2337 51.16L39.6277 55H38.4517L36.5077 51.886L35.2837 53.152V55H34.1797Z" fill="#667085"/>
<path d="M48 51H605" stroke="#C2C6CE" stroke-dasharray="2 5"/>
<path d="M19.3896 91V90.322V89.968C19.3896 89.524 19.4716 89.14 19.6356 88.816C19.8036 88.492 20.0236 88.21 20.2956 87.97C20.5716 87.726 20.8716 87.508 21.1956 87.316C21.5236 87.124 21.8496 86.94 22.1736 86.764C22.5016 86.584 22.8016 86.398 23.0736 86.206C23.3456 86.01 23.5636 85.79 23.7276 85.546C23.8956 85.298 23.9796 85.006 23.9796 84.67C23.9796 84.23 23.8236 83.872 23.5116 83.596C23.2036 83.32 22.7856 83.182 22.2576 83.182C21.6896 83.182 21.2336 83.342 20.8896 83.662C20.5456 83.982 20.3516 84.408 20.3076 84.94H19.2036C19.2156 84.44 19.3396 83.984 19.5756 83.572C19.8116 83.156 20.1576 82.824 20.6136 82.576C21.0696 82.328 21.6316 82.204 22.2996 82.204C22.8796 82.204 23.3836 82.308 23.8116 82.516C24.2396 82.72 24.5696 83.008 24.8016 83.38C25.0376 83.748 25.1556 84.178 25.1556 84.67C25.1556 85.118 25.0736 85.502 24.9096 85.822C24.7456 86.142 24.5276 86.42 24.2556 86.656C23.9876 86.888 23.6936 87.096 23.3736 87.28C23.0536 87.464 22.7316 87.642 22.4076 87.814C22.0836 87.982 21.7876 88.16 21.5196 88.348C21.2516 88.532 21.0356 88.744 20.8716 88.984C20.7076 89.224 20.6256 89.51 20.6256 89.842V90.016H25.2036V91H19.3896ZM29.5201 91.132C28.5721 91.132 27.8201 90.76 27.2641 90.016C26.7081 89.268 26.4301 88.162 26.4301 86.698C26.4301 85.71 26.5581 84.882 26.8141 84.214C27.0701 83.546 27.4301 83.044 27.8941 82.708C28.3581 82.372 28.9041 82.204 29.5321 82.204C30.4721 82.204 31.2201 82.582 31.7761 83.338C32.3361 84.09 32.6161 85.204 32.6161 86.68C32.6161 88.148 32.3381 89.258 31.7821 90.01C31.2261 90.758 30.4721 91.132 29.5201 91.132ZM29.5321 90.172C30.1521 90.172 30.6201 89.9 30.9361 89.356C31.2561 88.808 31.4161 87.918 31.4161 86.686C31.4161 85.43 31.2541 84.526 30.9301 83.974C30.6101 83.418 30.1421 83.14 29.5261 83.14C28.9141 83.14 28.4421 83.42 28.1101 83.98C27.7821 84.536 27.6181 85.438 27.6181 86.686C27.6181 87.914 27.7821 88.802 28.1101 89.35C28.4381 89.898 28.9121 90.172 29.5321 90.172ZM34.1797 91V82.084H35.2837V87.898L38.1997 84.796H39.4717L37.2337 87.16L39.6277 91H38.4517L36.5077 87.886L35.2837 89.152V91H34.1797Z" fill="#667085"/>
<path d="M48 87H605" stroke="#C2C6CE" stroke-dasharray="2 5"/>
<path d="M22.7995 127V120.094H21.1255V119.368C21.6455 119.368 22.0495 119.33 22.3375 119.254C22.6255 119.178 22.8295 119.062 22.9495 118.906C23.0735 118.75 23.1415 118.556 23.1535 118.324H23.9455V127H22.7995ZM29.4682 127.132C28.9322 127.132 28.4362 127.038 27.9802 126.85C27.5242 126.662 27.1322 126.4 26.8042 126.064C26.4802 125.728 26.2422 125.342 26.0902 124.906L27.0502 124.504C27.1942 124.832 27.3742 125.124 27.5902 125.38C27.8102 125.636 28.0702 125.836 28.3702 125.98C28.6702 126.124 29.0102 126.196 29.3902 126.196C30.0062 126.196 30.5002 126.018 30.8722 125.662C31.2482 125.302 31.4362 124.814 31.4362 124.198C31.4362 123.814 31.3482 123.48 31.1722 123.196C30.9962 122.908 30.7582 122.684 30.4582 122.524C30.1622 122.364 29.8342 122.284 29.4742 122.284C29.2382 122.284 29.0182 122.306 28.8142 122.35C28.6102 122.39 28.4082 122.47 28.2082 122.59C28.0082 122.71 27.7982 122.892 27.5782 123.136C27.5542 123.148 27.5362 123.154 27.5242 123.154C27.5122 123.15 27.4922 123.142 27.4642 123.13L26.5282 122.836L26.9182 118.324H32.0962L32.0662 119.284H27.8662L27.6442 122.086C27.9322 121.818 28.2462 121.628 28.5862 121.516C28.9302 121.4 29.3022 121.342 29.7022 121.342C30.2262 121.342 30.7082 121.45 31.1482 121.666C31.5922 121.878 31.9482 122.194 32.2162 122.614C32.4842 123.03 32.6182 123.546 32.6182 124.162C32.6182 124.762 32.4882 125.284 32.2282 125.728C31.9682 126.172 31.6022 126.518 31.1302 126.766C30.6582 127.01 30.1042 127.132 29.4682 127.132ZM34.1797 127V118.084H35.2837V123.898L38.1997 120.796H39.4717L37.2337 123.16L39.6277 127H38.4517L36.5077 123.886L35.2837 125.152V127H34.1797Z" fill="#667085"/>
<path d="M48 123H605" stroke="#C2C6CE" stroke-dasharray="2 5"/>
<path d="M23.1393 163V156.094H21.4653V155.368C21.9853 155.368 22.3893 155.33 22.6773 155.254C22.9653 155.178 23.1693 155.062 23.2893 154.906C23.4133 154.75 23.4813 154.556 23.4933 154.324H24.2853V163H23.1393ZM29.5201 163.132C28.5721 163.132 27.8201 162.76 27.2641 162.016C26.7081 161.268 26.4301 160.162 26.4301 158.698C26.4301 157.71 26.5581 156.882 26.8141 156.214C27.0701 155.546 27.4301 155.044 27.8941 154.708C28.3581 154.372 28.9041 154.204 29.5321 154.204C30.4721 154.204 31.2201 154.582 31.7761 155.338C32.3361 156.09 32.6161 157.204 32.6161 158.68C32.6161 160.148 32.3381 161.258 31.7821 162.01C31.2261 162.758 30.4721 163.132 29.5201 163.132ZM29.5321 162.172C30.1521 162.172 30.6201 161.9 30.9361 161.356C31.2561 160.808 31.4161 159.918 31.4161 158.686C31.4161 157.43 31.2541 156.526 30.9301 155.974C30.6101 155.418 30.1421 155.14 29.5261 155.14C28.9141 155.14 28.4421 155.42 28.1101 155.98C27.7821 156.536 27.6181 157.438 27.6181 158.686C27.6181 159.914 27.7821 160.802 28.1101 161.35C28.4381 161.898 28.9121 162.172 29.5321 162.172ZM34.1797 163V154.084H35.2837V159.898L38.1997 156.796H39.4717L37.2337 159.16L39.6277 163H38.4517L36.5077 159.886L35.2837 161.152V163H34.1797Z" fill="#667085"/>
<path d="M48 159H605" stroke="#C2C6CE" stroke-dasharray="2 5"/>
<path d="M29.4682 199.132C28.9322 199.132 28.4362 199.038 27.9802 198.85C27.5242 198.662 27.1322 198.4 26.8042 198.064C26.4802 197.728 26.2422 197.342 26.0902 196.906L27.0502 196.504C27.1942 196.832 27.3742 197.124 27.5902 197.38C27.8102 197.636 28.0702 197.836 28.3702 197.98C28.6702 198.124 29.0102 198.196 29.3902 198.196C30.0062 198.196 30.5002 198.018 30.8722 197.662C31.2482 197.302 31.4362 196.814 31.4362 196.198C31.4362 195.814 31.3482 195.48 31.1722 195.196C30.9962 194.908 30.7582 194.684 30.4582 194.524C30.1622 194.364 29.8342 194.284 29.4742 194.284C29.2382 194.284 29.0182 194.306 28.8142 194.35C28.6102 194.39 28.4082 194.47 28.2082 194.59C28.0082 194.71 27.7982 194.892 27.5782 195.136C27.5542 195.148 27.5362 195.154 27.5242 195.154C27.5122 195.15 27.4922 195.142 27.4642 195.13L26.5282 194.836L26.9182 190.324H32.0962L32.0662 191.284H27.8662L27.6442 194.086C27.9322 193.818 28.2462 193.628 28.5862 193.516C28.9302 193.4 29.3022 193.342 29.7022 193.342C30.2262 193.342 30.7082 193.45 31.1482 193.666C31.5922 193.878 31.9482 194.194 32.2162 194.614C32.4842 195.03 32.6182 195.546 32.6182 196.162C32.6182 196.762 32.4882 197.284 32.2282 197.728C31.9682 198.172 31.6022 198.518 31.1302 198.766C30.6582 199.01 30.1042 199.132 29.4682 199.132ZM34.1797 199V190.084H35.2837V195.898L38.1997 192.796H39.4717L37.2337 195.16L39.6277 199H38.4517L36.5077 195.886L35.2837 197.152V199H34.1797Z" fill="#667085"/>
<path d="M48 195H605" stroke="#C2C6CE" stroke-dasharray="2 5"/>
<path d="M30.547 235V228.094H28.873V227.368C29.393 227.368 29.797 227.33 30.085 227.254C30.373 227.178 30.577 227.062 30.697 226.906C30.821 226.75 30.889 226.556 30.901 226.324H31.693V235H30.547ZM34.1797 235V226.084H35.2837V231.898L38.1997 228.796H39.4717L37.2337 231.16L39.6277 235H38.4517L36.5077 231.886L35.2837 233.152V235H34.1797Z" fill="#667085"/>
<path d="M48 231H605" stroke="#C2C6CE" stroke-dasharray="2 5"/>
<path d="M36.3303 262.204C37.2703 262.204 38.0183 262.582 38.5743 263.338C39.1343 264.09 39.4143 265.204 39.4143 266.68C39.4143 268.148 39.1363 269.258 38.5803 270.01C38.0243 270.758 37.2703 271.132 36.3183 271.132C35.3703 271.132 34.6183 270.76 34.0623 270.016C33.5063 269.268 33.2283 268.162 33.2283 266.698C33.2283 265.71 33.3563 264.882 33.6123 264.214C33.8683 263.546 34.2283 263.044 34.6923 262.708C35.1563 262.372 35.7023 262.204 36.3303 262.204ZM36.3303 270.172C36.9503 270.172 37.4183 269.9 37.7343 269.356C38.0543 268.808 38.2143 267.918 38.2143 266.686C38.2143 265.43 38.0523 264.526 37.7283 263.974C37.4083 263.418 36.9403 263.14 36.3243 263.14C35.7123 263.14 35.2403 263.42 34.9083 263.98C34.5803 264.536 34.4163 265.438 34.4163 266.686C34.4163 267.914 34.5803 268.802 34.9083 269.35C35.2363 269.898 35.7103 270.172 36.3303 270.172Z" fill="#667085"/>
<path d="M48 267H605" stroke="#C2C6CE" stroke-dasharray="2 5"/>
<path d="M62.1057 289.12C61.7977 289.12 61.5077 289.084 61.2357 289.012C60.9677 288.94 60.7897 288.886 60.7017 288.85L60.7797 287.788C60.9037 287.832 61.0457 287.888 61.2057 287.956C61.3697 288.02 61.5717 288.052 61.8117 288.052C62.2037 288.052 62.4717 287.944 62.6157 287.728C62.7637 287.512 62.8377 287.148 62.8377 286.636V280.324H63.9477V286.954C63.9477 287.414 63.8957 287.806 63.7917 288.13C63.6877 288.454 63.5017 288.7 63.2337 288.868C62.9697 289.036 62.5937 289.12 62.1057 289.12ZM67.5857 289.12C67.1817 289.12 66.8257 289.05 66.5177 288.91C66.2137 288.766 65.9737 288.56 65.7977 288.292C65.6257 288.024 65.5397 287.7 65.5397 287.32C65.5397 286.632 65.7797 286.12 66.2597 285.784C66.7397 285.448 67.5097 285.268 68.5697 285.244L69.6737 285.214V284.728C69.6737 284.348 69.5597 284.048 69.3317 283.828C69.1037 283.604 68.7517 283.492 68.2757 283.492C67.9197 283.496 67.6057 283.58 67.3337 283.744C67.0617 283.908 66.8877 284.176 66.8117 284.548H65.8337C65.8577 284.144 65.9697 283.804 66.1697 283.528C66.3737 283.248 66.6597 283.036 67.0277 282.892C67.3957 282.748 67.8297 282.676 68.3297 282.676C68.8697 282.676 69.3177 282.752 69.6737 282.904C70.0337 283.056 70.3017 283.28 70.4777 283.576C70.6577 283.872 70.7477 284.236 70.7477 284.668V289H69.7997L69.7157 287.836C69.4797 288.32 69.1757 288.656 68.8037 288.844C68.4357 289.028 68.0297 289.12 67.5857 289.12ZM67.9157 288.322C68.1277 288.322 68.3357 288.284 68.5397 288.208C68.7477 288.132 68.9357 288.03 69.1037 287.902C69.2757 287.77 69.4137 287.624 69.5177 287.464C69.6217 287.3 69.6737 287.132 69.6737 286.96V285.898L68.7557 285.916C68.2797 285.924 67.8837 285.972 67.5677 286.06C67.2517 286.148 67.0137 286.286 66.8537 286.474C66.6937 286.662 66.6137 286.908 66.6137 287.212C66.6137 287.56 66.7357 287.832 66.9797 288.028C67.2237 288.224 67.5357 288.322 67.9157 288.322ZM72.5385 289V282.796H73.6125V283.696C73.7125 283.524 73.8505 283.362 74.0265 283.21C74.2065 283.058 74.4225 282.936 74.6745 282.844C74.9305 282.752 75.2245 282.706 75.5565 282.706C75.9485 282.706 76.3085 282.784 76.6365 282.94C76.9685 283.096 77.2325 283.34 77.4285 283.672C77.6285 284 77.7285 284.424 77.7285 284.944V289H76.6185V285.052C76.6185 284.568 76.4905 284.21 76.2345 283.978C75.9825 283.742 75.6545 283.624 75.2505 283.624C74.9705 283.624 74.7085 283.67 74.4645 283.762C74.2205 283.85 74.0225 283.986 73.8705 284.17C73.7185 284.35 73.6425 284.578 73.6425 284.854V289H72.5385Z" fill="#667085"/>
<path d="M106.758 289V280.324H112.164L112.158 281.296H107.898V284.164H111.726V285.124H107.898V289H106.758ZM116.161 289.12C115.585 289.12 115.077 288.994 114.637 288.742C114.197 288.49 113.853 288.128 113.605 287.656C113.357 287.184 113.233 286.618 113.233 285.958C113.233 285.306 113.345 284.734 113.569 284.242C113.793 283.75 114.117 283.366 114.541 283.09C114.969 282.814 115.483 282.676 116.083 282.676C116.667 282.676 117.161 282.802 117.565 283.054C117.969 283.306 118.275 283.662 118.483 284.122C118.695 284.578 118.801 285.12 118.801 285.748V286.156H114.355C114.355 286.548 114.419 286.904 114.547 287.224C114.679 287.54 114.877 287.792 115.141 287.98C115.405 288.168 115.739 288.262 116.143 288.262C116.539 288.262 116.879 288.17 117.163 287.986C117.451 287.802 117.635 287.536 117.715 287.188H118.759C118.687 287.608 118.519 287.962 118.255 288.25C117.995 288.538 117.681 288.756 117.313 288.904C116.949 289.048 116.565 289.12 116.161 289.12ZM114.361 285.406H117.733C117.733 285.05 117.673 284.73 117.553 284.446C117.433 284.158 117.249 283.932 117.001 283.768C116.757 283.6 116.449 283.516 116.077 283.516C115.689 283.516 115.367 283.61 115.111 283.798C114.855 283.982 114.665 284.22 114.541 284.512C114.417 284.8 114.357 285.098 114.361 285.406ZM123.462 289.12C123.098 289.12 122.79 289.072 122.538 288.976C122.29 288.88 122.086 288.758 121.926 288.61C121.766 288.458 121.642 288.304 121.554 288.148C121.466 287.988 121.402 287.848 121.362 287.728L121.242 289H120.396V280.084H121.512V283.78C121.564 283.676 121.642 283.562 121.746 283.438C121.854 283.314 121.992 283.194 122.16 283.078C122.328 282.962 122.526 282.866 122.754 282.79C122.986 282.714 123.25 282.676 123.546 282.676C124.322 282.676 124.938 282.946 125.394 283.486C125.854 284.026 126.084 284.822 126.084 285.874C126.084 286.526 125.986 287.096 125.79 287.584C125.594 288.068 125.302 288.446 124.914 288.718C124.526 288.986 124.042 289.12 123.462 289.12ZM123.264 288.268C123.768 288.268 124.178 288.074 124.494 287.686C124.81 287.294 124.968 286.672 124.968 285.82C124.968 285.096 124.82 284.536 124.524 284.14C124.232 283.74 123.804 283.54 123.24 283.54C122.828 283.54 122.496 283.63 122.244 283.81C121.996 283.986 121.812 284.244 121.692 284.584C121.576 284.924 121.516 285.336 121.512 285.82C121.512 286.688 121.646 287.314 121.914 287.698C122.186 288.078 122.636 288.268 123.264 288.268Z" fill="#667085"/>
<path d="M153.004 289V280.324H154.54L157.156 287.488L159.808 280.324H161.338V289H160.192V281.986L157.678 289H156.64L154.144 282.052V289H153.004ZM165.17 289.12C164.766 289.12 164.41 289.05 164.102 288.91C163.798 288.766 163.558 288.56 163.382 288.292C163.21 288.024 163.124 287.7 163.124 287.32C163.124 286.632 163.364 286.12 163.844 285.784C164.324 285.448 165.094 285.268 166.154 285.244L167.258 285.214V284.728C167.258 284.348 167.144 284.048 166.916 283.828C166.688 283.604 166.336 283.492 165.86 283.492C165.504 283.496 165.19 283.58 164.918 283.744C164.646 283.908 164.472 284.176 164.396 284.548H163.418C163.442 284.144 163.554 283.804 163.754 283.528C163.958 283.248 164.244 283.036 164.612 282.892C164.98 282.748 165.414 282.676 165.914 282.676C166.454 282.676 166.902 282.752 167.258 282.904C167.618 283.056 167.886 283.28 168.062 283.576C168.242 283.872 168.332 284.236 168.332 284.668V289H167.384L167.3 287.836C167.064 288.32 166.76 288.656 166.388 288.844C166.02 289.028 165.614 289.12 165.17 289.12ZM165.5 288.322C165.712 288.322 165.92 288.284 166.124 288.208C166.332 288.132 166.52 288.03 166.688 287.902C166.86 287.77 166.998 287.624 167.102 287.464C167.206 287.3 167.258 287.132 167.258 286.96V285.898L166.34 285.916C165.864 285.924 165.468 285.972 165.152 286.06C164.836 286.148 164.598 286.286 164.438 286.474C164.278 286.662 164.198 286.908 164.198 287.212C164.198 287.56 164.32 287.832 164.564 288.028C164.808 288.224 165.12 288.322 165.5 288.322ZM170.123 289V282.796H171.179V283.99C171.283 283.694 171.429 283.45 171.617 283.258C171.805 283.062 172.019 282.916 172.259 282.82C172.503 282.724 172.755 282.676 173.015 282.676C173.107 282.676 173.197 282.682 173.285 282.694C173.373 282.706 173.441 282.726 173.489 282.754V283.828C173.429 283.8 173.351 283.782 173.255 283.774C173.163 283.762 173.085 283.756 173.021 283.756C172.773 283.74 172.541 283.756 172.325 283.804C172.109 283.848 171.919 283.926 171.755 284.038C171.591 284.15 171.461 284.298 171.365 284.482C171.273 284.662 171.227 284.882 171.227 285.142V289H170.123Z" fill="#667085"/>
<path d="M199.885 289L203.023 280.324H204.277L207.415 289H206.281L205.429 286.624H201.871L201.013 289H199.885ZM202.165 285.604H205.123L203.647 281.41L202.165 285.604ZM208.885 290.932V282.796H209.989L210.001 283.876C210.073 283.748 210.165 283.614 210.277 283.474C210.393 283.334 210.533 283.204 210.697 283.084C210.865 282.964 211.059 282.866 211.279 282.79C211.503 282.714 211.757 282.676 212.041 282.676C212.537 282.676 212.973 282.79 213.349 283.018C213.729 283.242 214.025 283.586 214.237 284.05C214.449 284.514 214.555 285.102 214.555 285.814C214.555 286.526 214.451 287.128 214.243 287.62C214.039 288.108 213.743 288.48 213.355 288.736C212.967 288.992 212.499 289.12 211.951 289.12C211.675 289.12 211.429 289.08 211.213 289C211.001 288.924 210.815 288.824 210.655 288.7C210.499 288.572 210.367 288.436 210.259 288.292C210.155 288.148 210.069 288.01 210.001 287.878V290.932H208.885ZM211.741 288.256C212.253 288.256 212.671 288.062 212.995 287.674C213.319 287.282 213.481 286.674 213.481 285.85C213.481 285.142 213.333 284.58 213.037 284.164C212.741 283.748 212.309 283.54 211.741 283.54C211.165 283.54 210.729 283.754 210.433 284.182C210.137 284.606 209.989 285.162 209.989 285.85C209.989 286.294 210.055 286.698 210.187 287.062C210.319 287.426 210.515 287.716 210.775 287.932C211.035 288.148 211.357 288.256 211.741 288.256ZM216.093 289V282.796H217.149V283.99C217.253 283.694 217.399 283.45 217.587 283.258C217.775 283.062 217.989 282.916 218.229 282.82C218.473 282.724 218.725 282.676 218.985 282.676C219.077 282.676 219.167 282.682 219.255 282.694C219.343 282.706 219.411 282.726 219.459 282.754V283.828C219.399 283.8 219.321 283.782 219.225 283.774C219.133 283.762 219.055 283.756 218.991 283.756C218.743 283.74 218.511 283.756 218.295 283.804C218.079 283.848 217.889 283.926 217.725 284.038C217.561 284.15 217.431 284.298 217.335 284.482C217.243 284.662 217.197 284.882 217.197 285.142V289H216.093Z" fill="#667085"/>
<path d="M245.736 289V280.324H247.272L249.888 287.488L252.54 280.324H254.07V289H252.924V281.986L250.41 289H249.372L246.876 282.052V289H245.736ZM257.902 289.12C257.498 289.12 257.142 289.05 256.834 288.91C256.53 288.766 256.29 288.56 256.114 288.292C255.942 288.024 255.856 287.7 255.856 287.32C255.856 286.632 256.096 286.12 256.576 285.784C257.056 285.448 257.826 285.268 258.886 285.244L259.99 285.214V284.728C259.99 284.348 259.876 284.048 259.648 283.828C259.42 283.604 259.068 283.492 258.592 283.492C258.236 283.496 257.922 283.58 257.65 283.744C257.378 283.908 257.204 284.176 257.128 284.548H256.15C256.174 284.144 256.286 283.804 256.486 283.528C256.69 283.248 256.976 283.036 257.344 282.892C257.712 282.748 258.146 282.676 258.646 282.676C259.186 282.676 259.634 282.752 259.99 282.904C260.35 283.056 260.618 283.28 260.794 283.576C260.974 283.872 261.064 284.236 261.064 284.668V289H260.116L260.032 287.836C259.796 288.32 259.492 288.656 259.12 288.844C258.752 289.028 258.346 289.12 257.902 289.12ZM258.232 288.322C258.444 288.322 258.652 288.284 258.856 288.208C259.064 288.132 259.252 288.03 259.42 287.902C259.592 287.77 259.73 287.624 259.834 287.464C259.938 287.3 259.99 287.132 259.99 286.96V285.898L259.072 285.916C258.596 285.924 258.2 285.972 257.884 286.06C257.568 286.148 257.33 286.286 257.17 286.474C257.01 286.662 256.93 286.908 256.93 287.212C256.93 287.56 257.052 287.832 257.296 288.028C257.54 288.224 257.852 288.322 258.232 288.322ZM263.274 290.98C262.91 290.98 262.66 290.954 262.524 290.902C262.388 290.85 262.32 290.824 262.32 290.824V290.104L262.956 290.116C263.184 290.124 263.374 290.108 263.526 290.068C263.678 290.028 263.8 289.974 263.892 289.906C263.984 289.838 264.054 289.762 264.102 289.678C264.154 289.594 264.196 289.514 264.228 289.438L264.444 288.85L262.02 282.796H263.142L264.972 287.584L266.79 282.796H267.876L265.266 289.468C265.102 289.86 264.92 290.166 264.72 290.386C264.524 290.606 264.304 290.76 264.06 290.848C263.82 290.936 263.558 290.98 263.274 290.98Z" fill="#667085"/>
<path d="M295.332 289.12C295.056 289.12 294.772 289.096 294.48 289.048C294.188 289.004 293.974 288.964 293.838 288.928L293.874 287.326C293.99 287.35 294.122 287.382 294.27 287.422C294.422 287.462 294.59 287.482 294.774 287.482C295.178 287.482 295.45 287.376 295.59 287.164C295.73 286.948 295.8 286.6 295.8 286.12V280.324H297.552V286.588C297.552 287.14 297.492 287.604 297.372 287.98C297.252 288.356 297.032 288.64 296.712 288.832C296.392 289.024 295.932 289.12 295.332 289.12ZM301.432 289.12C301.144 289.12 300.86 289.076 300.58 288.988C300.304 288.9 300.052 288.77 299.824 288.598C299.596 288.426 299.412 288.214 299.272 287.962C299.136 287.71 299.068 287.418 299.068 287.086V282.796H300.82V286.864C300.82 287.152 300.914 287.388 301.102 287.572C301.29 287.756 301.566 287.848 301.93 287.848C302.274 287.848 302.546 287.76 302.746 287.584C302.95 287.404 303.052 287.154 303.052 286.834V282.796H304.786V289H303.466L303.262 287.77C303.19 288.134 303.054 288.414 302.854 288.61C302.658 288.802 302.432 288.934 302.176 289.006C301.924 289.082 301.676 289.12 301.432 289.12ZM306.378 289V282.796H308.1V283.672C308.196 283.52 308.32 283.374 308.472 283.234C308.628 283.09 308.824 282.972 309.06 282.88C309.296 282.788 309.576 282.742 309.9 282.742C310.28 282.742 310.634 282.816 310.962 282.964C311.294 283.112 311.562 283.346 311.766 283.666C311.97 283.982 312.072 284.396 312.072 284.908V289H310.32V285.124C310.32 284.788 310.22 284.536 310.02 284.368C309.82 284.2 309.576 284.116 309.288 284.116C309.096 284.116 308.91 284.15 308.73 284.218C308.554 284.286 308.41 284.388 308.298 284.524C308.186 284.66 308.13 284.828 308.13 285.028V289H306.378Z" fill="#9854FF"/>
<path d="M344.053 289.12C343.745 289.12 343.455 289.084 343.183 289.012C342.915 288.94 342.737 288.886 342.649 288.85L342.727 287.788C342.851 287.832 342.993 287.888 343.153 287.956C343.317 288.02 343.519 288.052 343.759 288.052C344.151 288.052 344.419 287.944 344.563 287.728C344.711 287.512 344.785 287.148 344.785 286.636V280.324H345.895V286.954C345.895 287.414 345.843 287.806 345.739 288.13C345.635 288.454 345.449 288.7 345.181 288.868C344.917 289.036 344.541 289.12 344.053 289.12ZM350.073 289.12C349.749 289.116 349.443 289.07 349.155 288.982C348.871 288.89 348.619 288.756 348.399 288.58C348.179 288.404 348.005 288.186 347.877 287.926C347.753 287.662 347.691 287.356 347.691 287.008V282.796H348.801V286.894C348.801 287.298 348.925 287.626 349.173 287.878C349.425 288.13 349.803 288.256 350.307 288.256C350.763 288.256 351.129 288.138 351.405 287.902C351.685 287.662 351.825 287.306 351.825 286.834V282.796H352.929V289H352.047L351.933 287.812C351.857 288.124 351.727 288.376 351.543 288.568C351.363 288.76 351.145 288.902 350.889 288.994C350.637 289.082 350.365 289.124 350.073 289.12ZM356.45 289.078C356.114 289.078 355.842 289.032 355.634 288.94C355.43 288.848 355.272 288.724 355.16 288.568C355.052 288.412 354.978 288.234 354.938 288.034C354.902 287.83 354.884 287.62 354.884 287.404V280.084H355.976V287.296C355.976 287.608 356.036 287.842 356.156 287.998C356.28 288.154 356.452 288.24 356.672 288.256L357.008 288.262V288.982C356.916 289.01 356.82 289.032 356.72 289.048C356.62 289.068 356.53 289.078 356.45 289.078Z" fill="#667085"/>
<path d="M385.655 289L388.793 280.324H390.047L393.185 289H392.051L391.199 286.624H387.641L386.783 289H385.655ZM387.935 285.604H390.893L389.417 281.41L387.935 285.604ZM396.829 289.12C396.505 289.116 396.199 289.07 395.911 288.982C395.627 288.89 395.375 288.756 395.155 288.58C394.935 288.404 394.761 288.186 394.633 287.926C394.509 287.662 394.447 287.356 394.447 287.008V282.796H395.557V286.894C395.557 287.298 395.681 287.626 395.929 287.878C396.181 288.13 396.559 288.256 397.063 288.256C397.519 288.256 397.885 288.138 398.161 287.902C398.441 287.662 398.581 287.306 398.581 286.834V282.796H399.685V289H398.803L398.689 287.812C398.613 288.124 398.483 288.376 398.299 288.568C398.119 288.76 397.901 288.902 397.645 288.994C397.393 289.082 397.121 289.124 396.829 289.12ZM404.168 291.052C403.196 291.052 402.438 290.91 401.894 290.626C401.35 290.346 401.078 289.944 401.078 289.42C401.078 289.196 401.13 289.006 401.234 288.85C401.338 288.69 401.462 288.558 401.606 288.454C401.75 288.35 401.884 288.268 402.008 288.208C402.132 288.144 402.214 288.098 402.254 288.07C402.182 288.03 402.096 287.98 401.996 287.92C401.896 287.86 401.806 287.78 401.726 287.68C401.65 287.58 401.612 287.45 401.612 287.29C401.612 287.094 401.704 286.914 401.888 286.75C402.072 286.586 402.346 286.464 402.71 286.384C402.346 286.2 402.062 285.956 401.858 285.652C401.654 285.348 401.552 285.018 401.552 284.662C401.552 284.262 401.66 283.914 401.876 283.618C402.092 283.322 402.402 283.096 402.806 282.94C403.21 282.78 403.692 282.7 404.252 282.7C404.656 282.7 404.994 282.748 405.266 282.844C405.542 282.936 405.798 283.068 406.034 283.24C406.098 283.212 406.2 283.17 406.34 283.114C406.48 283.054 406.632 282.99 406.796 282.922C406.964 282.854 407.12 282.79 407.264 282.73C407.412 282.666 407.53 282.618 407.618 282.586L407.612 283.612L406.526 283.816C406.59 283.944 406.64 284.084 406.676 284.236C406.712 284.388 406.73 284.53 406.73 284.662C406.73 285.026 406.634 285.356 406.442 285.652C406.254 285.948 405.968 286.184 405.584 286.36C405.2 286.536 404.72 286.624 404.144 286.624C404.096 286.624 404.034 286.624 403.958 286.624C403.886 286.62 403.824 286.616 403.772 286.612C403.348 286.624 403.056 286.672 402.896 286.756C402.74 286.836 402.662 286.926 402.662 287.026C402.662 287.142 402.752 287.222 402.932 287.266C403.112 287.31 403.416 287.348 403.844 287.38C404 287.388 404.192 287.398 404.42 287.41C404.652 287.422 404.91 287.438 405.194 287.458C405.842 287.498 406.342 287.664 406.694 287.956C407.046 288.248 407.222 288.642 407.222 289.138C407.222 289.702 406.97 290.162 406.466 290.518C405.966 290.874 405.2 291.052 404.168 291.052ZM404.366 290.338C404.938 290.338 405.376 290.252 405.68 290.08C405.988 289.908 406.142 289.648 406.142 289.3C406.142 289.052 406.048 288.85 405.86 288.694C405.672 288.534 405.388 288.442 405.008 288.418L403.268 288.304C403.112 288.296 402.95 288.336 402.782 288.424C402.614 288.508 402.472 288.626 402.356 288.778C402.24 288.93 402.182 289.102 402.182 289.294C402.182 289.622 402.36 289.878 402.716 290.062C403.072 290.246 403.622 290.338 404.366 290.338ZM404.18 285.91C404.624 285.91 404.982 285.806 405.254 285.598C405.53 285.39 405.668 285.082 405.668 284.674C405.668 284.254 405.53 283.934 405.254 283.714C404.982 283.494 404.624 283.384 404.18 283.384C403.724 283.384 403.356 283.496 403.076 283.72C402.8 283.94 402.662 284.258 402.662 284.674C402.662 285.066 402.794 285.37 403.058 285.586C403.326 285.802 403.7 285.91 404.18 285.91Z" fill="#667085"/>
<path d="M436.409 289.12C435.985 289.12 435.583 289.07 435.203 288.97C434.823 288.866 434.477 288.712 434.165 288.508C433.857 288.304 433.601 288.052 433.397 287.752C433.197 287.448 433.071 287.096 433.019 286.696H434.183C434.255 287.024 434.397 287.3 434.609 287.524C434.825 287.748 435.091 287.916 435.407 288.028C435.727 288.14 436.077 288.196 436.457 288.196C436.825 288.196 437.163 288.138 437.471 288.022C437.783 287.906 438.033 287.738 438.221 287.518C438.409 287.294 438.503 287.026 438.503 286.714C438.503 286.37 438.391 286.094 438.167 285.886C437.943 285.674 437.597 285.504 437.129 285.376L435.341 284.914C434.937 284.814 434.579 284.674 434.267 284.494C433.959 284.31 433.717 284.07 433.541 283.774C433.365 283.474 433.277 283.102 433.277 282.658C433.277 282.166 433.413 281.738 433.685 281.374C433.957 281.006 434.325 280.722 434.789 280.522C435.257 280.318 435.785 280.216 436.373 280.216C437.053 280.216 437.625 280.334 438.089 280.57C438.557 280.806 438.911 281.116 439.151 281.5C439.391 281.884 439.511 282.294 439.511 282.73H438.371C438.335 282.334 438.219 282.022 438.023 281.794C437.827 281.562 437.583 281.396 437.291 281.296C436.999 281.192 436.681 281.14 436.337 281.14C435.717 281.14 435.247 281.282 434.927 281.566C434.611 281.846 434.453 282.18 434.453 282.568C434.453 282.924 434.567 283.204 434.795 283.408C435.023 283.612 435.359 283.77 435.803 283.882L437.543 284.332C438.059 284.452 438.469 284.626 438.773 284.854C439.081 285.082 439.301 285.348 439.433 285.652C439.569 285.952 439.637 286.278 439.637 286.63C439.637 287.11 439.503 287.538 439.235 287.914C438.967 288.29 438.591 288.586 438.107 288.802C437.627 289.014 437.061 289.12 436.409 289.12ZM443.962 289.12C443.386 289.12 442.878 288.994 442.438 288.742C441.998 288.49 441.654 288.128 441.406 287.656C441.158 287.184 441.034 286.618 441.034 285.958C441.034 285.306 441.146 284.734 441.37 284.242C441.594 283.75 441.918 283.366 442.342 283.09C442.77 282.814 443.284 282.676 443.884 282.676C444.468 282.676 444.962 282.802 445.366 283.054C445.77 283.306 446.076 283.662 446.284 284.122C446.496 284.578 446.602 285.12 446.602 285.748V286.156H442.156C442.156 286.548 442.22 286.904 442.348 287.224C442.48 287.54 442.678 287.792 442.942 287.98C443.206 288.168 443.54 288.262 443.944 288.262C444.34 288.262 444.68 288.17 444.964 287.986C445.252 287.802 445.436 287.536 445.516 287.188H446.56C446.488 287.608 446.32 287.962 446.056 288.25C445.796 288.538 445.482 288.756 445.114 288.904C444.75 289.048 444.366 289.12 443.962 289.12ZM442.162 285.406H445.534C445.534 285.05 445.474 284.73 445.354 284.446C445.234 284.158 445.05 283.932 444.802 283.768C444.558 283.6 444.25 283.516 443.878 283.516C443.49 283.516 443.168 283.61 442.912 283.798C442.656 283.982 442.466 284.22 442.342 284.512C442.218 284.8 442.158 285.098 442.162 285.406ZM448.197 290.932V282.796H449.301L449.313 283.876C449.385 283.748 449.477 283.614 449.589 283.474C449.705 283.334 449.845 283.204 450.009 283.084C450.177 282.964 450.371 282.866 450.591 282.79C450.815 282.714 451.069 282.676 451.353 282.676C451.849 282.676 452.285 282.79 452.661 283.018C453.041 283.242 453.337 283.586 453.549 284.05C453.761 284.514 453.867 285.102 453.867 285.814C453.867 286.526 453.763 287.128 453.555 287.62C453.351 288.108 453.055 288.48 452.667 288.736C452.279 288.992 451.811 289.12 451.263 289.12C450.987 289.12 450.741 289.08 450.525 289C450.313 288.924 450.127 288.824 449.967 288.7C449.811 288.572 449.679 288.436 449.571 288.292C449.467 288.148 449.381 288.01 449.313 287.878V290.932H448.197ZM451.053 288.256C451.565 288.256 451.983 288.062 452.307 287.674C452.631 287.282 452.793 286.674 452.793 285.85C452.793 285.142 452.645 284.58 452.349 284.164C452.053 283.748 451.621 283.54 451.053 283.54C450.477 283.54 450.041 283.754 449.745 284.182C449.449 284.606 449.301 285.162 449.301 285.85C449.301 286.294 449.367 286.698 449.499 287.062C449.631 287.426 449.827 287.716 450.087 287.932C450.347 288.148 450.669 288.256 451.053 288.256Z" fill="#667085"/>
<path d="M480.365 289V280.324H481.427L486.011 287.068V280.324H487.121V289H486.131L481.475 282.16V289H480.365ZM491.646 289.12C491.074 289.12 490.574 288.998 490.146 288.754C489.722 288.506 489.392 288.144 489.156 287.668C488.92 287.192 488.802 286.61 488.802 285.922C488.802 285.274 488.912 284.706 489.132 284.218C489.352 283.73 489.674 283.352 490.098 283.084C490.522 282.812 491.04 282.676 491.652 282.676C492.224 282.676 492.72 282.802 493.14 283.054C493.56 283.302 493.886 283.668 494.118 284.152C494.354 284.636 494.472 285.226 494.472 285.922C494.472 286.554 494.364 287.11 494.148 287.59C493.932 288.07 493.614 288.446 493.194 288.718C492.778 288.986 492.262 289.12 491.646 289.12ZM491.652 288.244C492.02 288.244 492.332 288.15 492.588 287.962C492.844 287.774 493.038 287.504 493.17 287.152C493.306 286.8 493.374 286.382 493.374 285.898C493.374 285.454 493.314 285.056 493.194 284.704C493.078 284.348 492.894 284.066 492.642 283.858C492.39 283.65 492.06 283.546 491.652 283.546C491.276 283.546 490.958 283.64 490.698 283.828C490.438 284.012 490.24 284.28 490.104 284.632C489.972 284.984 489.906 285.406 489.906 285.898C489.906 286.334 489.964 286.73 490.08 287.086C490.2 287.442 490.388 287.724 490.644 287.932C490.904 288.14 491.24 288.244 491.652 288.244ZM497.498 289L495.254 282.796H496.298L497.948 287.608H498.05L499.706 282.796H500.744L498.512 289H497.498Z" fill="#667085"/>
<path d="M531.411 289.12C530.639 289.12 529.971 288.946 529.407 288.598C528.843 288.25 528.407 287.746 528.099 287.086C527.795 286.422 527.643 285.62 527.643 284.68C527.643 283.732 527.797 282.926 528.105 282.262C528.413 281.594 528.849 281.084 529.413 280.732C529.981 280.38 530.647 280.204 531.411 280.204C532.179 280.204 532.843 280.38 533.403 280.732C533.963 281.08 534.395 281.588 534.699 282.256C535.003 282.92 535.155 283.728 535.155 284.68C535.155 285.62 535.003 286.422 534.699 287.086C534.399 287.746 533.969 288.25 533.409 288.598C532.849 288.946 532.183 289.12 531.411 289.12ZM531.411 288.154C531.947 288.154 532.403 288.032 532.779 287.788C533.155 287.544 533.441 287.166 533.637 286.654C533.837 286.142 533.937 285.488 533.937 284.692C533.937 283.884 533.837 283.22 533.637 282.7C533.437 282.18 533.149 281.796 532.773 281.548C532.397 281.296 531.943 281.17 531.411 281.17C530.883 281.17 530.429 281.296 530.049 281.548C529.669 281.8 529.377 282.186 529.173 282.706C528.969 283.226 528.867 283.888 528.867 284.692C528.867 285.488 528.969 286.142 529.173 286.654C529.377 287.166 529.669 287.544 530.049 287.788C530.429 288.032 530.883 288.154 531.411 288.154ZM539.199 289.12C538.639 289.12 538.143 288.998 537.711 288.754C537.283 288.51 536.947 288.15 536.703 287.674C536.463 287.198 536.343 286.614 536.343 285.922C536.343 285.274 536.453 284.708 536.673 284.224C536.897 283.736 537.221 283.356 537.645 283.084C538.073 282.812 538.591 282.676 539.199 282.676C539.643 282.676 540.041 282.762 540.393 282.934C540.749 283.102 541.041 283.342 541.269 283.654C541.497 283.966 541.637 284.334 541.689 284.758H540.705C540.669 284.542 540.585 284.344 540.453 284.164C540.325 283.984 540.155 283.84 539.943 283.732C539.735 283.624 539.489 283.57 539.205 283.57C538.673 283.57 538.239 283.762 537.903 284.146C537.571 284.53 537.405 285.118 537.405 285.91C537.405 286.626 537.557 287.2 537.861 287.632C538.169 288.06 538.621 288.274 539.217 288.274C539.501 288.274 539.749 288.22 539.961 288.112C540.173 288 540.343 287.854 540.471 287.674C540.599 287.49 540.681 287.294 540.717 287.086H541.683C541.631 287.502 541.489 287.862 541.257 288.166C541.029 288.47 540.737 288.706 540.381 288.874C540.029 289.038 539.635 289.12 539.199 289.12ZM545.283 289.03C544.855 289.03 544.523 288.972 544.287 288.856C544.051 288.74 543.885 288.568 543.789 288.34C543.697 288.112 543.651 287.832 543.651 287.5V283.606H542.643V282.796H543.681L543.951 280.99H544.767V282.79H546.165V283.606H544.767V287.464C544.767 287.684 544.789 287.846 544.833 287.95C544.881 288.05 544.959 288.114 545.067 288.142C545.175 288.17 545.327 288.184 545.523 288.184H546.201V288.928C546.125 288.956 546.009 288.98 545.853 289C545.701 289.02 545.511 289.03 545.283 289.03Z" fill="#667085"/>
<path d="M573.889 289V280.324C573.917 280.324 574.001 280.326 574.141 280.33C574.285 280.33 574.459 280.33 574.663 280.33C574.867 280.326 575.079 280.326 575.299 280.33C575.519 280.33 575.721 280.332 575.905 280.336C576.969 280.352 577.831 280.526 578.491 280.858C579.155 281.186 579.641 281.664 579.949 282.292C580.261 282.92 580.417 283.692 580.417 284.608C580.417 285.568 580.249 286.374 579.913 287.026C579.581 287.678 579.073 288.17 578.389 288.502C577.709 288.834 576.843 289 575.791 289H573.889ZM575.029 288.046H575.791C576.507 288.046 577.123 287.936 577.639 287.716C578.155 287.492 578.551 287.13 578.827 286.63C579.107 286.13 579.247 285.462 579.247 284.626C579.247 283.79 579.111 283.128 578.839 282.64C578.571 282.152 578.183 281.804 577.675 281.596C577.167 281.384 576.555 281.278 575.839 281.278H575.029V288.046ZM584.663 289.12C584.087 289.12 583.579 288.994 583.139 288.742C582.699 288.49 582.355 288.128 582.107 287.656C581.859 287.184 581.735 286.618 581.735 285.958C581.735 285.306 581.847 284.734 582.071 284.242C582.295 283.75 582.619 283.366 583.043 283.09C583.471 282.814 583.985 282.676 584.585 282.676C585.169 282.676 585.663 282.802 586.067 283.054C586.471 283.306 586.777 283.662 586.985 284.122C587.197 284.578 587.303 285.12 587.303 285.748V286.156H582.857C582.857 286.548 582.921 286.904 583.049 287.224C583.181 287.54 583.379 287.792 583.643 287.98C583.907 288.168 584.241 288.262 584.645 288.262C585.041 288.262 585.381 288.17 585.665 287.986C585.953 287.802 586.137 287.536 586.217 287.188H587.261C587.189 287.608 587.021 287.962 586.757 288.25C586.497 288.538 586.183 288.756 585.815 288.904C585.451 289.048 585.067 289.12 584.663 289.12ZM582.863 285.406H586.235C586.235 285.05 586.175 284.73 586.055 284.446C585.935 284.158 585.751 283.932 585.503 283.768C585.259 283.6 584.951 283.516 584.579 283.516C584.191 283.516 583.869 283.61 583.613 283.798C583.357 283.982 583.167 284.22 583.043 284.512C582.919 284.8 582.859 285.098 582.863 285.406ZM591.394 289.12C590.834 289.12 590.338 288.998 589.906 288.754C589.478 288.51 589.142 288.15 588.898 287.674C588.658 287.198 588.538 286.614 588.538 285.922C588.538 285.274 588.648 284.708 588.868 284.224C589.092 283.736 589.416 283.356 589.84 283.084C590.268 282.812 590.786 282.676 591.394 282.676C591.838 282.676 592.236 282.762 592.588 282.934C592.944 283.102 593.236 283.342 593.464 283.654C593.692 283.966 593.832 284.334 593.884 284.758H592.9C592.864 284.542 592.78 284.344 592.648 284.164C592.52 283.984 592.35 283.84 592.138 283.732C591.93 283.624 591.684 283.57 591.4 283.57C590.868 283.57 590.434 283.762 590.098 284.146C589.766 284.53 589.6 285.118 589.6 285.91C589.6 286.626 589.752 287.2 590.056 287.632C590.364 288.06 590.816 288.274 591.412 288.274C591.696 288.274 591.944 288.22 592.156 288.112C592.368 288 592.538 287.854 592.666 287.674C592.794 287.49 592.876 287.294 592.912 287.086H593.878C593.826 287.502 593.684 287.862 593.452 288.166C593.224 288.47 592.932 288.706 592.576 288.874C592.224 289.038 591.83 289.12 591.394 289.12Z" fill="#667085"/>
<path d="M605 175.317C598.202 175.317 594.391 185.548 587.594 185.548C580.796 185.548 576.985 182.758 570.188 182.758C563.39 182.758 559.579 205.081 552.781 205.081C545.984 205.081 542.173 190.199 535.375 190.199C528.577 190.199 524.766 160.435 517.969 160.435C511.171 160.435 507.36 169.737 500.563 169.737C493.765 169.737 489.954 179.968 483.156 179.968C476.359 179.968 472.548 152.995 465.75 152.995C458.952 152.995 455.141 127.882 448.344 127.882C441.546 127.882 437.735 150.204 430.938 150.204C424.14 150.204 420.329 175.317 413.531 175.317C406.734 175.317 402.923 187.409 396.125 187.409C389.327 187.409 385.516 167.876 378.719 167.876C371.921 167.876 368.11 178.108 361.313 178.108C354.515 178.108 350.704 168.806 343.906 168.806C337.109 168.806 333.298 152.995 326.5 152.995C319.702 152.995 315.891 175.317 309.094 175.317C302.296 175.317 298.485 169.737 291.688 169.737C284.89 169.737 281.079 160.435 274.281 160.435C267.484 160.435 263.673 167.876 256.875 167.876C250.077 167.876 246.266 182.758 239.469 182.758C232.671 182.758 228.86 161.366 222.063 161.366C215.265 161.366 211.454 166.016 204.656 166.016C197.859 166.016 194.048 135.323 187.25 135.323C180.452 135.323 176.641 113 169.844 113C163.046 113 159.235 180.898 152.438 180.898C145.64 180.898 141.829 167.876 135.031 167.876C128.234 167.876 124.423 162.296 117.625 162.296C110.827 162.296 107.016 187.409 100.219 187.409C93.4212 187.409 89.6101 189.269 82.8125 189.269C76.0149 189.269 72.2038 156.715 65.4063 156.715C58.6087 156.715 54.7976 140.903 48 140.903" stroke="#00DDEB" stroke-width="2.5"/>
<path d="M605 149.248C598.202 149.248 594.391 159.767 587.594 159.767C580.796 159.767 576.985 156.898 570.188 156.898C563.39 156.898 559.579 179.85 552.781 179.85C545.984 179.85 542.173 164.549 535.375 164.549C528.577 164.549 524.766 172.199 517.969 172.199C511.171 172.199 507.36 135.859 500.563 135.859C493.765 135.859 489.954 161.68 483.156 161.68C476.359 161.68 472.548 179.85 465.75 179.85C458.952 179.85 455.141 169.33 448.344 169.33C441.546 169.33 437.735 154.029 430.938 154.029C424.14 154.029 420.329 149.248 413.531 149.248C406.734 149.248 402.923 138.728 396.125 138.728C389.327 138.728 385.516 149.248 378.719 149.248C371.921 149.248 368.11 144.466 361.313 144.466C354.515 144.466 350.704 134.903 343.906 134.903C337.109 134.903 333.298 118.646 326.5 118.646C319.702 118.646 315.891 149.248 309.094 149.248C302.296 149.248 298.485 128.209 291.688 128.209C284.89 128.209 281.079 133.947 274.281 133.947C267.484 133.947 263.673 141.597 256.875 141.597C250.077 141.597 246.266 133.947 239.469 133.947C232.671 133.947 228.86 89 222.063 89C215.265 89 211.454 116.733 204.656 116.733C197.859 116.733 194.048 146.379 187.25 146.379C180.452 146.379 176.641 161.68 169.844 161.68C163.046 161.68 159.235 154.985 152.438 154.985C145.64 154.985 141.829 172.199 135.031 172.199C128.234 172.199 124.423 197.063 117.625 197.063C110.827 197.063 107.016 176.981 100.219 176.981C93.4212 176.981 89.6101 148.291 82.8125 148.291C76.0149 148.291 72.2038 176.024 65.4063 176.024C58.6087 176.024 54.7976 159.767 48 159.767" stroke="#9854FF" stroke-width="2.5"/>
<g filter="url(#filter0_d_152_5401)">
<rect x="225" y="65" width="151" height="66" rx="8" fill="#1D1F2C"/>
<circle cx="246" cy="86" r="5" fill="#9854FF"/>
<path d="M264.35 90H263.174L261.59 86.262H259.256V90H258.146V81.324H261.506C262.13 81.324 262.652 81.42 263.072 81.612C263.492 81.8 263.806 82.072 264.014 82.428C264.222 82.78 264.326 83.202 264.326 83.694C264.326 84.166 264.242 84.558 264.074 84.87C263.91 85.182 263.7 85.434 263.444 85.626C263.188 85.814 262.922 85.96 262.646 86.064L264.35 90ZM261.146 85.344C261.798 85.344 262.302 85.212 262.658 84.948C263.014 84.68 263.192 84.284 263.192 83.76C263.192 83.248 263.032 82.866 262.712 82.614C262.396 82.358 261.962 82.23 261.41 82.23H259.256V85.344H261.146ZM266.692 87.156C266.692 87.548 266.756 87.904 266.884 88.224C267.016 88.54 267.214 88.792 267.478 88.98C267.746 89.168 268.08 89.262 268.48 89.262C268.876 89.262 269.216 89.17 269.5 88.986C269.788 88.802 269.972 88.536 270.052 88.188H271.102C271.026 88.608 270.858 88.962 270.598 89.25C270.338 89.538 270.024 89.756 269.656 89.904C269.288 90.048 268.904 90.12 268.504 90.12C267.924 90.12 267.414 89.994 266.974 89.742C266.534 89.49 266.19 89.128 265.942 88.656C265.694 88.184 265.57 87.618 265.57 86.958C265.57 86.306 265.682 85.734 265.906 85.242C266.13 84.75 266.454 84.366 266.878 84.09C267.306 83.814 267.82 83.676 268.42 83.676C269.004 83.676 269.498 83.802 269.902 84.054C270.306 84.306 270.612 84.662 270.82 85.122C271.032 85.578 271.138 86.12 271.138 86.748V87.156H266.692ZM266.698 86.406H270.07C270.07 86.05 270.01 85.73 269.89 85.446C269.77 85.158 269.586 84.932 269.338 84.768C269.094 84.6 268.786 84.516 268.414 84.516C268.026 84.516 267.704 84.61 267.448 84.798C267.196 84.982 267.006 85.22 266.878 85.512C266.754 85.8 266.694 86.098 266.698 86.406ZM277.394 83.796L275.156 90H274.148L271.904 83.796H272.948L274.598 88.608H274.7L276.356 83.796H277.394ZM279.21 87.156C279.21 87.548 279.274 87.904 279.402 88.224C279.534 88.54 279.732 88.792 279.996 88.98C280.264 89.168 280.598 89.262 280.998 89.262C281.394 89.262 281.734 89.17 282.018 88.986C282.306 88.802 282.49 88.536 282.57 88.188H283.62C283.544 88.608 283.376 88.962 283.116 89.25C282.856 89.538 282.542 89.756 282.174 89.904C281.806 90.048 281.422 90.12 281.022 90.12C280.442 90.12 279.932 89.994 279.492 89.742C279.052 89.49 278.708 89.128 278.46 88.656C278.212 88.184 278.088 87.618 278.088 86.958C278.088 86.306 278.2 85.734 278.424 85.242C278.648 84.75 278.972 84.366 279.396 84.09C279.824 83.814 280.338 83.676 280.938 83.676C281.522 83.676 282.016 83.802 282.42 84.054C282.824 84.306 283.13 84.662 283.338 85.122C283.55 85.578 283.656 86.12 283.656 86.748V87.156H279.21ZM279.216 86.406H282.588C282.588 86.05 282.528 85.73 282.408 85.446C282.288 85.158 282.104 84.932 281.856 84.768C281.612 84.6 281.304 84.516 280.932 84.516C280.544 84.516 280.222 84.61 279.966 84.798C279.714 84.982 279.524 85.22 279.396 85.512C279.272 85.8 279.212 86.098 279.216 86.406ZM285.24 90V83.796H286.314V84.696C286.414 84.524 286.552 84.362 286.728 84.21C286.908 84.058 287.124 83.936 287.376 83.844C287.632 83.752 287.926 83.706 288.258 83.706C288.65 83.706 289.01 83.784 289.338 83.94C289.67 84.096 289.934 84.34 290.13 84.672C290.33 85 290.43 85.424 290.43 85.944V90H289.32V86.052C289.32 85.568 289.192 85.21 288.936 84.978C288.684 84.742 288.356 84.624 287.952 84.624C287.672 84.624 287.41 84.67 287.166 84.762C286.922 84.85 286.724 84.986 286.572 85.17C286.42 85.35 286.344 85.578 286.344 85.854V90H285.24ZM294.412 90.12C294.088 90.116 293.782 90.07 293.494 89.982C293.21 89.89 292.958 89.756 292.738 89.58C292.518 89.404 292.344 89.186 292.216 88.926C292.092 88.662 292.03 88.356 292.03 88.008V83.796H293.14V87.894C293.14 88.298 293.264 88.626 293.512 88.878C293.764 89.13 294.142 89.256 294.646 89.256C295.102 89.256 295.468 89.138 295.744 88.902C296.024 88.662 296.164 88.306 296.164 87.834V83.796H297.268V90H296.386L296.272 88.812C296.196 89.124 296.066 89.376 295.882 89.568C295.702 89.76 295.484 89.902 295.228 89.994C294.976 90.082 294.704 90.124 294.412 90.12ZM299.851 87.156C299.851 87.548 299.915 87.904 300.043 88.224C300.175 88.54 300.373 88.792 300.637 88.98C300.905 89.168 301.239 89.262 301.639 89.262C302.035 89.262 302.375 89.17 302.659 88.986C302.947 88.802 303.131 88.536 303.211 88.188H304.261C304.185 88.608 304.017 88.962 303.757 89.25C303.497 89.538 303.183 89.756 302.815 89.904C302.447 90.048 302.063 90.12 301.663 90.12C301.083 90.12 300.573 89.994 300.133 89.742C299.693 89.49 299.349 89.128 299.101 88.656C298.853 88.184 298.729 87.618 298.729 86.958C298.729 86.306 298.841 85.734 299.065 85.242C299.289 84.75 299.613 84.366 300.037 84.09C300.465 83.814 300.979 83.676 301.579 83.676C302.163 83.676 302.657 83.802 303.061 84.054C303.465 84.306 303.771 84.662 303.979 85.122C304.191 85.578 304.297 86.12 304.297 86.748V87.156H299.851ZM299.857 86.406H303.229C303.229 86.05 303.169 85.73 303.049 85.446C302.929 85.158 302.745 84.932 302.497 84.768C302.253 84.6 301.945 84.516 301.573 84.516C301.185 84.516 300.863 84.61 300.607 84.798C300.355 84.982 300.165 85.22 300.037 85.512C299.913 85.8 299.853 86.098 299.857 86.406Z" fill="#D2D2D5"/>
<path d="M312.986 84.042V85.452H311.66V84.042H312.986ZM312.986 88.566V89.964H311.66V88.566H312.986Z" fill="white"/>
<path d="M322.142 90V83.316H320.534V82.446C321.042 82.446 321.444 82.404 321.74 82.32C322.04 82.232 322.258 82.104 322.394 81.936C322.534 81.768 322.614 81.564 322.634 81.324H323.63V90H322.142ZM329.167 90.132C328.615 90.132 328.101 90.042 327.625 89.862C327.153 89.678 326.745 89.426 326.401 89.106C326.061 88.786 325.807 88.42 325.639 88.008L326.821 87.384C326.969 87.68 327.145 87.946 327.349 88.182C327.557 88.418 327.799 88.604 328.075 88.74C328.355 88.872 328.675 88.938 329.035 88.938C329.599 88.938 330.051 88.782 330.391 88.47C330.735 88.154 330.907 87.734 330.907 87.21C330.907 86.886 330.827 86.598 330.667 86.346C330.511 86.094 330.297 85.898 330.025 85.758C329.757 85.614 329.451 85.542 329.107 85.542C328.903 85.542 328.711 85.56 328.531 85.596C328.355 85.632 328.177 85.7 327.997 85.8C327.817 85.896 327.623 86.042 327.415 86.238C327.375 86.258 327.345 86.268 327.325 86.268C327.309 86.264 327.279 86.252 327.235 86.232L326.113 85.776L326.509 81.324H331.903L331.849 82.542H327.697L327.499 84.954C327.807 84.738 328.117 84.582 328.429 84.486C328.741 84.39 329.085 84.342 329.461 84.342C330.013 84.342 330.515 84.45 330.967 84.666C331.419 84.882 331.779 85.2 332.047 85.62C332.315 86.04 332.449 86.554 332.449 87.162C332.449 87.77 332.313 88.296 332.041 88.74C331.773 89.184 331.393 89.528 330.901 89.772C330.413 90.012 329.835 90.132 329.167 90.132ZM333.603 91.602L334.287 90.036L333.717 89.994V88.464H335.313V89.802L334.191 91.602H333.603ZM340.026 90.132C339.022 90.132 338.232 89.754 337.656 88.998C337.084 88.242 336.798 87.14 336.798 85.692C336.798 84.716 336.93 83.896 337.194 83.232C337.458 82.564 337.832 82.06 338.316 81.72C338.8 81.376 339.372 81.204 340.032 81.204C341.024 81.204 341.808 81.586 342.384 82.35C342.964 83.11 343.254 84.22 343.254 85.68C343.254 87.132 342.966 88.238 342.39 88.998C341.818 89.754 341.03 90.132 340.026 90.132ZM340.032 88.914C340.596 88.914 341.016 88.664 341.292 88.164C341.568 87.664 341.706 86.838 341.706 85.686C341.706 84.51 341.566 83.666 341.286 83.154C341.006 82.642 340.586 82.386 340.026 82.386C339.466 82.386 339.042 82.644 338.754 83.16C338.47 83.676 338.328 84.518 338.328 85.686C338.328 86.834 338.47 87.66 338.754 88.164C339.042 88.664 339.468 88.914 340.032 88.914ZM347.586 90.132C346.582 90.132 345.792 89.754 345.216 88.998C344.644 88.242 344.358 87.14 344.358 85.692C344.358 84.716 344.49 83.896 344.754 83.232C345.018 82.564 345.392 82.06 345.876 81.72C346.36 81.376 346.932 81.204 347.592 81.204C348.584 81.204 349.368 81.586 349.944 82.35C350.524 83.11 350.814 84.22 350.814 85.68C350.814 87.132 350.526 88.238 349.95 88.998C349.378 89.754 348.59 90.132 347.586 90.132ZM347.592 88.914C348.156 88.914 348.576 88.664 348.852 88.164C349.128 87.664 349.266 86.838 349.266 85.686C349.266 84.51 349.126 83.666 348.846 83.154C348.566 82.642 348.146 82.386 347.586 82.386C347.026 82.386 346.602 82.644 346.314 83.16C346.03 83.676 345.888 84.518 345.888 85.686C345.888 86.834 346.03 87.66 346.314 88.164C346.602 88.664 347.028 88.914 347.592 88.914ZM355.146 90.132C354.142 90.132 353.352 89.754 352.776 88.998C352.204 88.242 351.918 87.14 351.918 85.692C351.918 84.716 352.05 83.896 352.314 83.232C352.578 82.564 352.952 82.06 353.436 81.72C353.92 81.376 354.492 81.204 355.152 81.204C356.144 81.204 356.928 81.586 357.504 82.35C358.084 83.11 358.374 84.22 358.374 85.68C358.374 87.132 358.086 88.238 357.51 88.998C356.938 89.754 356.15 90.132 355.146 90.132ZM355.152 88.914C355.716 88.914 356.136 88.664 356.412 88.164C356.688 87.664 356.826 86.838 356.826 85.686C356.826 84.51 356.686 83.666 356.406 83.154C356.126 82.642 355.706 82.386 355.146 82.386C354.586 82.386 354.162 82.644 353.874 83.16C353.59 83.676 353.448 84.518 353.448 85.686C353.448 86.834 353.59 87.66 353.874 88.164C354.162 88.664 354.588 88.914 355.152 88.914Z" fill="white"/>
<circle cx="246" cy="110" r="5" fill="#00DDEB"/>
<path d="M258.146 114V105.324H261.506C262.13 105.324 262.652 105.42 263.072 105.612C263.492 105.8 263.806 106.072 264.014 106.428C264.222 106.78 264.326 107.202 264.326 107.694C264.326 108.166 264.242 108.558 264.074 108.87C263.91 109.182 263.7 109.434 263.444 109.626C263.188 109.814 262.922 109.96 262.646 110.064L264.35 114H263.174L261.59 110.262H259.256V114H258.146ZM259.256 109.344H261.146C261.798 109.344 262.302 109.212 262.658 108.948C263.014 108.68 263.192 108.284 263.192 107.76C263.192 107.248 263.032 106.866 262.712 106.614C262.396 106.358 261.962 106.23 261.41 106.23H259.256V109.344ZM268.522 114.12C267.946 114.12 267.438 113.994 266.998 113.742C266.558 113.49 266.214 113.128 265.966 112.656C265.718 112.184 265.594 111.618 265.594 110.958C265.594 110.306 265.706 109.734 265.93 109.242C266.154 108.75 266.478 108.366 266.902 108.09C267.33 107.814 267.844 107.676 268.444 107.676C269.028 107.676 269.522 107.802 269.926 108.054C270.33 108.306 270.636 108.662 270.844 109.122C271.056 109.578 271.162 110.12 271.162 110.748V111.156H266.716C266.716 111.548 266.78 111.904 266.908 112.224C267.04 112.54 267.238 112.792 267.502 112.98C267.766 113.168 268.1 113.262 268.504 113.262C268.9 113.262 269.24 113.17 269.524 112.986C269.812 112.802 269.996 112.536 270.076 112.188H271.12C271.048 112.608 270.88 112.962 270.616 113.25C270.356 113.538 270.042 113.756 269.674 113.904C269.31 114.048 268.926 114.12 268.522 114.12ZM266.722 110.406H270.094C270.094 110.05 270.034 109.73 269.914 109.446C269.794 109.158 269.61 108.932 269.362 108.768C269.118 108.6 268.81 108.516 268.438 108.516C268.05 108.516 267.728 108.61 267.472 108.798C267.216 108.982 267.026 109.22 266.902 109.512C266.778 109.8 266.718 110.098 266.722 110.406ZM274.248 114L272.004 107.796H273.048L274.698 112.608H274.8L276.456 107.796H277.494L275.262 114H274.248ZM281.263 114.12C280.687 114.12 280.179 113.994 279.739 113.742C279.299 113.49 278.955 113.128 278.707 112.656C278.459 112.184 278.335 111.618 278.335 110.958C278.335 110.306 278.447 109.734 278.671 109.242C278.895 108.75 279.219 108.366 279.643 108.09C280.071 107.814 280.585 107.676 281.185 107.676C281.769 107.676 282.263 107.802 282.667 108.054C283.071 108.306 283.377 108.662 283.585 109.122C283.797 109.578 283.903 110.12 283.903 110.748V111.156H279.457C279.457 111.548 279.521 111.904 279.649 112.224C279.781 112.54 279.979 112.792 280.243 112.98C280.507 113.168 280.841 113.262 281.245 113.262C281.641 113.262 281.981 113.17 282.265 112.986C282.553 112.802 282.737 112.536 282.817 112.188H283.861C283.789 112.608 283.621 112.962 283.357 113.25C283.097 113.538 282.783 113.756 282.415 113.904C282.051 114.048 281.667 114.12 281.263 114.12ZM279.463 110.406H282.835C282.835 110.05 282.775 109.73 282.655 109.446C282.535 109.158 282.351 108.932 282.103 108.768C281.859 108.6 281.551 108.516 281.179 108.516C280.791 108.516 280.469 108.61 280.213 108.798C279.957 108.982 279.767 109.22 279.643 109.512C279.519 109.8 279.459 110.098 279.463 110.406ZM285.498 114V107.796H286.572V108.696C286.672 108.524 286.81 108.362 286.986 108.21C287.166 108.058 287.382 107.936 287.634 107.844C287.89 107.752 288.184 107.706 288.516 107.706C288.908 107.706 289.268 107.784 289.596 107.94C289.928 108.096 290.192 108.34 290.388 108.672C290.588 109 290.688 109.424 290.688 109.944V114H289.578V110.052C289.578 109.568 289.45 109.21 289.194 108.978C288.942 108.742 288.614 108.624 288.21 108.624C287.93 108.624 287.668 108.67 287.424 108.762C287.18 108.85 286.982 108.986 286.83 109.17C286.678 109.35 286.602 109.578 286.602 109.854V114H285.498ZM294.764 114.12C294.44 114.116 294.134 114.07 293.846 113.982C293.562 113.89 293.31 113.756 293.09 113.58C292.87 113.404 292.696 113.186 292.568 112.926C292.444 112.662 292.382 112.356 292.382 112.008V107.796H293.492V111.894C293.492 112.298 293.616 112.626 293.864 112.878C294.116 113.13 294.494 113.256 294.998 113.256C295.454 113.256 295.82 113.138 296.096 112.902C296.376 112.662 296.516 112.306 296.516 111.834V107.796H297.62V114H296.738L296.624 112.812C296.548 113.124 296.418 113.376 296.234 113.568C296.054 113.76 295.836 113.902 295.58 113.994C295.328 114.082 295.056 114.124 294.764 114.12ZM302.127 114.12C301.551 114.12 301.043 113.994 300.603 113.742C300.163 113.49 299.819 113.128 299.571 112.656C299.323 112.184 299.199 111.618 299.199 110.958C299.199 110.306 299.311 109.734 299.535 109.242C299.759 108.75 300.083 108.366 300.507 108.09C300.935 107.814 301.449 107.676 302.049 107.676C302.633 107.676 303.127 107.802 303.531 108.054C303.935 108.306 304.241 108.662 304.449 109.122C304.661 109.578 304.767 110.12 304.767 110.748V111.156H300.321C300.321 111.548 300.385 111.904 300.513 112.224C300.645 112.54 300.843 112.792 301.107 112.98C301.371 113.168 301.705 113.262 302.109 113.262C302.505 113.262 302.845 113.17 303.129 112.986C303.417 112.802 303.601 112.536 303.681 112.188H304.725C304.653 112.608 304.485 112.962 304.221 113.25C303.961 113.538 303.647 113.756 303.279 113.904C302.915 114.048 302.531 114.12 302.127 114.12ZM300.327 110.406H303.699C303.699 110.05 303.639 109.73 303.519 109.446C303.399 109.158 303.215 108.932 302.967 108.768C302.723 108.6 302.415 108.516 302.043 108.516C301.655 108.516 301.333 108.61 301.077 108.798C300.821 108.982 300.631 109.22 300.507 109.512C300.383 109.8 300.323 110.098 300.327 110.406Z" fill="#D2D2D5"/>
<path d="M313.986 108.042V109.452H312.66V108.042H313.986ZM313.986 112.566V113.964H312.66V112.566H313.986Z" fill="white"/>
<path d="M323.142 114V107.316H321.534V106.446C322.042 106.446 322.444 106.404 322.74 106.32C323.04 106.232 323.258 106.104 323.394 105.936C323.534 105.768 323.614 105.564 323.634 105.324H324.63V114H323.142ZM329.867 114.132C328.863 114.132 328.073 113.754 327.497 112.998C326.925 112.242 326.639 111.14 326.639 109.692C326.639 108.716 326.771 107.896 327.035 107.232C327.299 106.564 327.673 106.06 328.157 105.72C328.641 105.376 329.213 105.204 329.873 105.204C330.865 105.204 331.649 105.586 332.225 106.35C332.805 107.11 333.095 108.22 333.095 109.68C333.095 111.132 332.807 112.238 332.231 112.998C331.659 113.754 330.871 114.132 329.867 114.132ZM329.873 112.914C330.437 112.914 330.857 112.664 331.133 112.164C331.409 111.664 331.547 110.838 331.547 109.686C331.547 108.51 331.407 107.666 331.127 107.154C330.847 106.642 330.427 106.386 329.867 106.386C329.307 106.386 328.883 106.644 328.595 107.16C328.311 107.676 328.169 108.518 328.169 109.686C328.169 110.834 328.311 111.66 328.595 112.164C328.883 112.664 329.309 112.914 329.873 112.914ZM334.252 115.602L334.936 114.036L334.366 113.994V112.464H335.962V113.802L334.84 115.602H334.252ZM337.837 114V113.22V112.818C337.837 112.374 337.919 111.992 338.083 111.672C338.247 111.348 338.465 111.066 338.737 110.826C339.009 110.586 339.307 110.374 339.631 110.19C339.959 110.002 340.283 109.826 340.603 109.662C340.927 109.494 341.225 109.322 341.497 109.146C341.769 108.966 341.987 108.766 342.151 108.546C342.319 108.326 342.403 108.064 342.403 107.76C342.403 107.372 342.265 107.056 341.989 106.812C341.717 106.564 341.347 106.44 340.879 106.44C340.383 106.44 339.973 106.582 339.649 106.866C339.329 107.15 339.139 107.55 339.079 108.066H337.663C337.671 107.538 337.797 107.058 338.041 106.626C338.285 106.194 338.647 105.85 339.127 105.594C339.607 105.334 340.205 105.204 340.921 105.204C341.541 105.204 342.075 105.312 342.523 105.528C342.975 105.74 343.323 106.038 343.567 106.422C343.815 106.802 343.939 107.246 343.939 107.754C343.939 108.198 343.857 108.578 343.693 108.894C343.533 109.21 343.319 109.484 343.051 109.716C342.787 109.944 342.495 110.146 342.175 110.322C341.859 110.498 341.541 110.664 341.221 110.82C340.905 110.972 340.613 111.132 340.345 111.3C340.081 111.464 339.867 111.652 339.703 111.864C339.543 112.076 339.463 112.33 339.463 112.626V112.752H343.957V114H337.837ZM348.375 114.132C347.371 114.132 346.581 113.754 346.005 112.998C345.433 112.242 345.147 111.14 345.147 109.692C345.147 108.716 345.279 107.896 345.543 107.232C345.807 106.564 346.181 106.06 346.665 105.72C347.149 105.376 347.721 105.204 348.381 105.204C349.373 105.204 350.157 105.586 350.733 106.35C351.313 107.11 351.603 108.22 351.603 109.68C351.603 111.132 351.315 112.238 350.739 112.998C350.167 113.754 349.379 114.132 348.375 114.132ZM348.381 112.914C348.945 112.914 349.365 112.664 349.641 112.164C349.917 111.664 350.055 110.838 350.055 109.686C350.055 108.51 349.915 107.666 349.635 107.154C349.355 106.642 348.935 106.386 348.375 106.386C347.815 106.386 347.391 106.644 347.103 107.16C346.819 107.676 346.677 108.518 346.677 109.686C346.677 110.834 346.819 111.66 347.103 112.164C347.391 112.664 347.817 112.914 348.381 112.914ZM355.935 114.132C354.931 114.132 354.141 113.754 353.565 112.998C352.993 112.242 352.707 111.14 352.707 109.692C352.707 108.716 352.839 107.896 353.103 107.232C353.367 106.564 353.741 106.06 354.225 105.72C354.709 105.376 355.281 105.204 355.941 105.204C356.933 105.204 357.717 105.586 358.293 106.35C358.873 107.11 359.163 108.22 359.163 109.68C359.163 111.132 358.875 112.238 358.299 112.998C357.727 113.754 356.939 114.132 355.935 114.132ZM355.941 112.914C356.505 112.914 356.925 112.664 357.201 112.164C357.477 111.664 357.615 110.838 357.615 109.686C357.615 108.51 357.475 107.666 357.195 107.154C356.915 106.642 356.495 106.386 355.935 106.386C355.375 106.386 354.951 106.644 354.663 107.16C354.379 107.676 354.237 108.518 354.237 109.686C354.237 110.834 354.379 111.66 354.663 112.164C354.951 112.664 355.377 112.914 355.941 112.914Z" fill="white"/>
</g>
<circle cx="300.5" cy="141" r="5" fill="#883DCF" stroke="white" stroke-width="2"/>
<path d="M300.5 151V290" stroke="#9854FF" stroke-dasharray="2 5"/>
</g>
<defs>
<filter id="filter0_d_152_5401" x="195" y="39" width="211" height="126" filterUnits="userSpaceOnUse" color-interpolation-filters="sRGB">
<feFlood flood-opacity="0" result="BackgroundImageFix"/>
<feColorMatrix in="SourceAlpha" type="matrix" values="0 0 0 0 0 0 0 0 0 0 0 0 0 0 0 0 0 0 127 0" result="hardAlpha"/>
<feOffset dy="4"/>
<feGaussianBlur stdDeviation="15"/>
<feComposite in2="hardAlpha" operator="out"/>
<feColorMatrix type="matrix" values="0 0 0 0 0.180392 0 0 0 0 0.176471 0 0 0 0 0.454902 0 0 0 0.05 0"/>
<feBlend mode="normal" in2="BackgroundImageFix" result="effect1_dropShadow_152_5401"/>
<feBlend mode="normal" in="SourceGraphic" in2="effect1_dropShadow_152_5401" result="shape"/>
</filter>
<clipPath id="clip0_152_5401">
<rect width="605" height="252" fill="white" transform="translate(0 42)"/>
</clipPath>
</defs>
</svg>
