<svg width="37" height="36" viewBox="0 0 37 36" fill="none" xmlns="http://www.w3.org/2000/svg">
<rect x="0.667969" width="36" height="36" rx="18" fill="#FAF5FF"/>
<path d="M13.7266 18.2881C13.129 18.2881 12.6447 18.6961 12.6447 19.1994V19.7088H12.6283C11.7658 19.7088 11.0664 20.2979 11.0664 21.0244V22.789C11.0664 23.5157 11.7657 24.1047 12.6283 24.1047H12.6447V24.6141C12.6447 25.1175 13.129 25.5255 13.7266 25.5255C14.3241 25.5255 14.8085 25.1175 14.8085 24.6141V19.1994C14.8085 18.6961 14.3241 18.2881 13.7266 18.2881ZM24.7071 19.7088H24.6908V19.1995C24.6908 18.6961 24.2064 18.2881 23.6088 18.2881C23.0113 18.2881 22.5269 18.6961 22.5269 19.1995V24.6141C22.5269 25.1175 23.0113 25.5255 23.6088 25.5255C24.2064 25.5255 24.6908 25.1175 24.6908 24.6141V24.1048H24.7071C25.5697 24.1048 26.269 23.5158 26.269 22.7891V21.0245C26.269 20.2979 25.5697 19.7088 24.7071 19.7088Z" fill="#9854FF"/>
<path d="M18.668 10.4745C14.2497 10.4745 10.668 14.0561 10.668 18.4744C10.668 18.838 10.6926 19.1958 10.7395 19.5465C10.7967 19.4869 10.857 19.4304 10.9202 19.3772C11.1578 19.177 11.433 19.0229 11.7306 18.9202C11.7995 18.5068 12.0197 18.1229 12.3578 17.838C12.3748 17.8238 12.3923 17.8101 12.4097 17.7964C12.7479 14.6389 15.4206 12.1797 18.668 12.1797C21.9153 12.1797 24.588 14.6389 24.9263 17.7964C24.9437 17.8101 24.9612 17.8238 24.9781 17.838C25.3163 18.1229 25.5365 18.5069 25.6053 18.9202C25.903 19.0229 26.1781 19.177 26.4157 19.3772C26.4789 19.4304 26.5392 19.4869 26.5964 19.5465C26.644 19.1911 26.668 18.833 26.668 18.4744C26.668 14.0562 23.0863 10.4745 18.668 10.4745Z" fill="#9854FF"/>
</svg>
