<svg width="36" height="36" viewBox="0 0 36 36" fill="none" xmlns="http://www.w3.org/2000/svg">
<rect width="36" height="36" rx="8" fill="#FFDCDC"/>
<path fill-rule="evenodd" clip-rule="evenodd" d="M15.4866 22.5249L17.0331 24.5348C17.1735 24.7173 17.1489 24.9755 16.9784 25.1302L16.4465 25.6129C16.3515 25.6991 16.2372 25.7374 16.1095 25.7259C15.9818 25.7143 15.8766 25.6558 15.7982 25.5543L14.0836 23.3349L15.4866 22.5249ZM23.9701 17.3666H25.5452C25.7971 17.3666 26.001 17.1608 26.0005 16.9092C26 16.6573 25.7945 16.4537 25.5429 16.4537H23.9679C23.7159 16.4537 23.5121 16.6595 23.5126 16.911C23.5131 17.163 23.7185 17.3666 23.9701 17.3666ZM22.1006 13.2195L22.8881 11.8555C23.0139 11.6376 22.9404 11.3579 22.7224 11.2315C22.5048 11.1052 22.2247 11.1789 22.0987 11.3971L21.3112 12.7611C21.1854 12.979 21.2589 13.2587 21.4769 13.3851C21.6945 13.5114 21.9746 13.4377 22.1006 13.2195ZM23.9229 14.8534L25.216 14.1068C25.4355 13.9801 25.5107 13.6995 25.384 13.48C25.2572 13.2604 24.9766 13.1853 24.7571 13.312L23.464 14.0586C23.2445 14.1853 23.1693 14.4659 23.296 14.6855C23.4228 14.905 23.7034 14.9802 23.9229 14.8534ZM21.8891 16.9077L23.4143 19.5494C23.7007 20.0454 23.5292 20.6855 23.0332 20.9719C22.5704 21.2391 21.9821 21.1075 21.6728 20.6857H21.6727C19.9845 20.4289 17.7853 20.7048 15.5986 21.5572L13.4962 17.916C15.3286 16.45 16.6712 14.6927 17.293 13.1022L17.293 13.1022C17.0746 12.6213 17.254 12.0391 17.7204 11.7698C18.2164 11.4835 18.8565 11.655 19.1429 12.151L20.6681 14.7927C20.7121 14.7587 20.7583 14.7277 20.8065 14.6999C21.3958 14.3597 22.1495 14.5616 22.4897 15.1509C22.83 15.7403 22.6281 16.4939 22.0387 16.8342C21.9905 16.862 21.9406 16.8866 21.8891 16.9077ZM15.0699 21.9424L12.867 18.127L11.1158 19.138C10.0517 19.7524 9.68372 21.1257 10.2981 22.1898L10.2981 22.1899C10.9125 23.2539 12.2857 23.6219 13.3499 23.0076L15.1011 21.9965L15.0699 21.9424Z" fill="#E32B2B"/>
</svg>
