<svg width="36" height="36" viewBox="0 0 36 36" fill="none" xmlns="http://www.w3.org/2000/svg">
<rect width="36" height="36" rx="8" fill="#E9FAF7"/>
<g clip-path="url(#clip0_149_4064)">
<path d="M19.5675 21H20.25C25.2323 21 27 18.375 27 16.125C26.9993 15.5152 26.7863 14.9247 26.3976 14.4549C26.0089 13.9851 25.4688 13.6652 24.87 13.5502C24.99 13.3079 25.0925 13.0572 25.1768 12.8002C25.3077 12.3614 25.3334 11.898 25.2518 11.4474C25.1703 10.9968 24.9837 10.5718 24.7073 10.2067C24.4283 9.83056 24.0648 9.52531 23.646 9.31567C23.2273 9.10604 22.765 8.99789 22.2968 8.99998H13.7032C13.2348 8.99815 12.7724 9.10664 12.3536 9.31668C11.9349 9.52672 11.5714 9.8324 11.2927 10.209C11.0163 10.574 10.8297 10.9991 10.7482 11.4496C10.6666 11.9002 10.6923 12.3637 10.8233 12.8025C10.9075 13.0595 11.01 13.3101 11.13 13.5525C10.5316 13.6674 9.99174 13.9869 9.60311 14.4563C9.21448 14.9257 9.00126 15.5156 9 16.125C9 18.375 10.7677 21 15.75 21H16.4325C16.4762 21.2277 16.4988 21.4589 16.5 21.6907V24C16.5129 24.2003 16.4829 24.4011 16.4121 24.5889C16.3413 24.7767 16.2312 24.9473 16.0893 25.0893C15.9473 25.2312 15.7768 25.3413 15.5889 25.4121C15.4011 25.4829 15.2003 25.5129 15 25.5H13.5C13.3011 25.5 13.1103 25.579 12.9697 25.7197C12.829 25.8603 12.75 26.0511 12.75 26.25C12.75 26.4489 12.829 26.6397 12.9697 26.7803C13.1103 26.921 13.3011 27 13.5 27H22.5C22.6989 27 22.8897 26.921 23.0303 26.7803C23.171 26.6397 23.25 26.4489 23.25 26.25C23.25 26.0511 23.171 25.8603 23.0303 25.7197C22.8897 25.579 22.6989 25.5 22.5 25.5H21.0045C20.8039 25.5133 20.6027 25.4837 20.4144 25.413C20.2262 25.3424 20.0551 25.2325 19.9128 25.0905C19.7704 24.9485 19.6599 24.7778 19.5887 24.5898C19.5175 24.4017 19.4873 24.2007 19.5 24V21.69C19.5013 21.4584 19.5238 21.2274 19.5675 21ZM20.7945 18.8617C22.0796 17.7233 23.1914 16.4031 24.0945 14.943C24.1835 14.9798 24.2787 14.9992 24.375 15C24.6734 15 24.9595 15.1185 25.1705 15.3295C25.3815 15.5405 25.5 15.8266 25.5 16.125C25.5 17.757 24.1207 19.5 20.25 19.5H20.208C20.3771 19.2644 20.574 19.0501 20.7945 18.8617ZM15.75 19.5C11.8793 19.5 10.5 17.757 10.5 16.125C10.5 15.8266 10.6185 15.5405 10.8295 15.3295C11.0405 15.1185 11.3266 15 11.625 15C11.7215 14.9993 11.817 14.9799 11.9062 14.943C12.8094 16.4031 13.9212 17.7233 15.2062 18.8617C15.4265 19.0502 15.6231 19.2645 15.792 19.5H15.75Z" fill="#22CAAD"/>
</g>
<defs>
<clipPath id="clip0_149_4064">
<rect width="18" height="18" fill="white" transform="translate(9 9)"/>
</clipPath>
</defs>
</svg>
