<svg width="19" height="18" viewBox="0 0 19 18" fill="none" xmlns="http://www.w3.org/2000/svg">
<g clip-path="url(#clip0_149_4053)">
<path d="M13.833 9C13.0428 9.00092 12.2663 8.7935 11.5818 8.39865C10.8973 8.0038 10.329 7.43547 9.93423 6.75096C9.53942 6.06645 9.33205 5.28995 9.33302 4.49974C9.33399 3.70953 9.54327 2.93354 9.93976 2.25H3.51451L3.48301 1.986C3.41837 1.43895 3.1553 0.934615 2.74365 0.568578C2.33199 0.202541 1.80036 0.000234627 1.24951 0L1.08301 0C0.884095 0 0.69333 0.0790176 0.552678 0.21967C0.412025 0.360322 0.333008 0.551088 0.333008 0.75C0.333008 0.948912 0.412025 1.13968 0.552678 1.28033C0.69333 1.42098 0.884095 1.5 1.08301 1.5H1.24951C1.43321 1.50002 1.61051 1.56747 1.74779 1.68954C1.88506 1.81161 1.97276 1.97981 1.99426 2.16225L3.02626 10.9373C3.1334 11.8498 3.57187 12.6913 4.25844 13.302C4.94501 13.9127 5.8319 14.25 6.75076 14.25H14.583C14.7819 14.25 14.9727 14.171 15.1133 14.0303C15.254 13.8897 15.333 13.6989 15.333 13.5C15.333 13.3011 15.254 13.1103 15.1133 12.9697C14.9727 12.829 14.7819 12.75 14.583 12.75H6.75076C6.28642 12.7488 5.83381 12.6041 5.45502 12.3355C5.07622 12.067 4.78979 11.6878 4.63501 11.25H13.5758C14.455 11.2501 15.3063 10.9412 15.9809 10.3773C16.6555 9.81348 17.1105 9.03052 17.2665 8.16525L17.445 7.176C17.0278 7.74162 16.4836 8.20136 15.8562 8.51817C15.2289 8.83499 14.5358 9.00003 13.833 9Z" fill="#F86624"/>
<path d="M5.583 18.0005C6.41143 18.0005 7.083 17.3289 7.083 16.5005C7.083 15.6721 6.41143 15.0005 5.583 15.0005C4.75458 15.0005 4.08301 15.6721 4.08301 16.5005C4.08301 17.3289 4.75458 18.0005 5.583 18.0005Z" fill="#F86624"/>
<path d="M13.083 18.0005C13.9114 18.0005 14.583 17.3289 14.583 16.5005C14.583 15.6721 13.9114 15.0005 13.083 15.0005C12.2546 15.0005 11.583 15.6721 11.583 16.5005C11.583 17.3289 12.2546 18.0005 13.083 18.0005Z" fill="#F86624"/>
<path d="M12.1326 6.70928C12.2616 6.8486 12.4175 6.9603 12.5908 7.03765C12.7642 7.115 12.9515 7.15637 13.1413 7.15928H13.1661C13.3521 7.15989 13.5364 7.12355 13.7083 7.05235C13.8802 6.98115 14.0362 6.87652 14.1673 6.74453L17.3713 3.54053C17.5127 3.3995 17.5922 3.20811 17.5924 3.00845C17.5926 2.8088 17.5135 2.61723 17.3725 2.47591C17.2314 2.33458 17.04 2.25506 16.8404 2.25485C16.6407 2.25464 16.4492 2.33375 16.3078 2.47478L13.1676 5.62028L12.2421 4.62728C12.1062 4.48178 11.9181 4.3962 11.7192 4.38938C11.5202 4.38256 11.3267 4.45505 11.1812 4.59091C11.0357 4.72676 10.9501 4.91486 10.9433 5.11381C10.9365 5.31276 11.009 5.50628 11.1448 5.65178L12.1326 6.70928Z" fill="#F86624"/>
</g>
<defs>
<clipPath id="clip0_149_4053">
<rect width="18" height="18" fill="white" transform="translate(0.333008)"/>
</clipPath>
</defs>
</svg>
