<svg width="20" height="21" viewBox="0 0 20 21" fill="none" xmlns="http://www.w3.org/2000/svg">
<path d="M14.1673 12.2245V17.2245M11.6673 14.7245H16.6673M5.00065 8.89112H6.66732C7.58779 8.89112 8.33398 8.14493 8.33398 7.22445V5.55779C8.33398 4.63731 7.58779 3.89112 6.66732 3.89112H5.00065C4.08018 3.89112 3.33398 4.63731 3.33398 5.55779V7.22445C3.33398 8.14493 4.08018 8.89112 5.00065 8.89112ZM13.334 8.89112H15.0007C15.9211 8.89112 16.6673 8.14493 16.6673 7.22445V5.55779C16.6673 4.63731 15.9211 3.89112 15.0007 3.89112H13.334C12.4135 3.89112 11.6673 4.63731 11.6673 5.55779V7.22445C11.6673 8.14493 12.4135 8.89112 13.334 8.89112ZM5.00065 17.2245H6.66732C7.58779 17.2245 8.33398 16.4783 8.33398 15.5578V13.8911C8.33398 12.9706 7.58779 12.2245 6.66732 12.2245H5.00065C4.08018 12.2245 3.33398 12.9706 3.33398 13.8911V15.5578C3.33398 16.4783 4.08018 17.2245 5.00065 17.2245Z" stroke="#64748B" stroke-width="1.5" stroke-linecap="round" stroke-linejoin="round"/>
</svg>
