<svg width="40" height="40" viewBox="0 0 40 40" fill="none" xmlns="http://www.w3.org/2000/svg">
<rect width="40" height="40" rx="20" fill="#F0F1F3"/>
<g clip-path="url(#clip0_121_2605)">
<path d="M28.9655 15.1564L22.652 21.4699C21.948 22.1721 20.9943 22.5664 20 22.5664C19.0057 22.5664 18.052 22.1721 17.348 21.4699L11.0345 15.1564C11.024 15.2749 11 15.3821 11 15.4999V24.4999C11.0012 25.4941 11.3967 26.4472 12.0997 27.1502C12.8027 27.8532 13.7558 28.2487 14.75 28.2499H25.25C26.2442 28.2487 27.1973 27.8532 27.9003 27.1502C28.6033 26.4472 28.9988 25.4941 29 24.4999V15.4999C29 15.3821 28.976 15.2749 28.9655 15.1564Z" fill="#667085"/>
<path d="M21.5916 20.4094L28.4421 13.5581C28.1103 13.0079 27.6422 12.5524 27.0831 12.2357C26.524 11.9189 25.8927 11.7516 25.2501 11.7499H14.7501C14.1075 11.7516 13.4762 11.9189 12.9171 12.2357C12.358 12.5524 11.89 13.0079 11.5581 13.5581L18.4086 20.4094C18.8313 20.8304 19.4035 21.0667 20.0001 21.0667C20.5967 21.0667 21.1689 20.8304 21.5916 20.4094Z" fill="#667085"/>
</g>
<defs>
<clipPath id="clip0_121_2605">
<rect width="18" height="18" fill="white" transform="translate(11 11)"/>
</clipPath>
</defs>
</svg>
