<svg width="40" height="40" viewBox="0 0 40 40" fill="none" xmlns="http://www.w3.org/2000/svg">
<rect x="0.5" y="0.5" width="39" height="39" rx="7.5" fill="#9854FF"/>
<rect x="0.5" y="0.5" width="39" height="39" rx="7.5" stroke="#9854FF"/>
<g clip-path="url(#clip0_871_7859)">
<path d="M16.135 16.5904H10.2478C9.95431 16.5904 9.64858 16.6148 9.35508 16.583C9.44068 16.5953 9.52873 16.6075 9.61434 16.6173C9.53607 16.605 9.46514 16.5879 9.39177 16.5586C9.47003 16.5904 9.5483 16.6246 9.62657 16.6564C9.55808 16.6246 9.49449 16.5879 9.43335 16.5414L9.63146 16.6955C9.58254 16.654 9.53852 16.6099 9.49694 16.561L9.65103 16.7591C9.60456 16.698 9.56787 16.6368 9.53607 16.5659C9.56787 16.6442 9.60211 16.7224 9.63391 16.8007C9.60456 16.7273 9.58499 16.6564 9.57521 16.5781C9.58743 16.6637 9.59966 16.7518 9.60945 16.8374C9.58499 16.5953 9.60211 16.3458 9.60211 16.1036V10.8499C9.60211 10.5564 9.57765 10.2507 9.60945 9.95721C9.59722 10.0428 9.58499 10.1309 9.57521 10.2165C9.58743 10.1382 9.60456 10.0673 9.63391 9.99389C9.60211 10.0722 9.56787 10.1504 9.53607 10.2287C9.56787 10.1602 9.60456 10.0966 9.65103 10.0355L9.49694 10.2336C9.53852 10.1847 9.58254 10.1406 9.63146 10.0991L9.43335 10.2532C9.49449 10.2067 9.55564 10.17 9.62657 10.1382C9.5483 10.17 9.47003 10.2042 9.39177 10.236C9.46514 10.2067 9.53607 10.1871 9.61434 10.1773C9.52873 10.1896 9.44068 10.2018 9.35508 10.2116C9.59722 10.1871 9.8467 10.2042 10.0888 10.2042H15.3425C15.636 10.2042 15.9418 10.1798 16.2353 10.2116C16.1497 10.1993 16.0616 10.1871 15.976 10.1773C16.0543 10.1896 16.1252 10.2067 16.1986 10.236C16.1203 10.2042 16.042 10.17 15.9638 10.1382C16.0323 10.17 16.0959 10.2067 16.157 10.2532L15.9589 10.0991C16.0078 10.1406 16.0518 10.1847 16.0934 10.2336L15.9393 10.0355C15.9858 10.0966 16.0225 10.1578 16.0543 10.2287C16.0225 10.1504 15.9882 10.0722 15.9564 9.99389C15.9858 10.0673 16.0054 10.1382 16.0151 10.2165C16.0029 10.1309 15.9907 10.0428 15.9809 9.95721C16.0054 10.1993 15.9882 10.4488 15.9882 10.691V15.9447C15.9882 16.2382 16.0127 16.5439 15.9809 16.8374C15.9931 16.7518 16.0054 16.6637 16.0151 16.5781C16.0029 16.6564 15.9858 16.7273 15.9564 16.8007C15.9882 16.7224 16.0225 16.6442 16.0543 16.5659C16.0225 16.6344 15.9858 16.698 15.9393 16.7591L16.0934 16.561C16.0518 16.6099 16.0078 16.654 15.9589 16.6955L16.157 16.5414C16.0959 16.5879 16.0347 16.6246 15.9638 16.6564C16.042 16.6246 16.1203 16.5904 16.1986 16.5586C16.1252 16.5879 16.0543 16.6075 15.976 16.6173C16.0616 16.605 16.1497 16.5928 16.2353 16.583C16.2035 16.5879 16.1692 16.5904 16.135 16.5904C15.8806 16.5953 15.6238 16.6955 15.4428 16.8765C15.274 17.0453 15.1444 17.3241 15.1566 17.5687C15.1811 18.0897 15.5871 18.5593 16.135 18.547C16.6144 18.5373 17.0742 18.3587 17.4142 18.0163C17.7468 17.6837 17.9229 17.2385 17.9425 16.7714C17.9449 16.6906 17.9425 16.6124 17.9425 16.5317V11.0481C17.9425 10.7228 17.9474 10.3975 17.9425 10.0722C17.9327 9.40689 17.5683 8.73428 16.9495 8.44811C16.6755 8.32093 16.4285 8.25245 16.1203 8.25H9.50672C9.01266 8.25 8.52838 8.4261 8.17618 8.78075C7.82153 9.1354 7.64543 9.61723 7.64543 10.1162V16.7273C7.64787 17.0331 7.7188 17.285 7.84354 17.5565C8.12971 18.1753 8.80232 18.5397 9.46759 18.5495C10.4459 18.5617 11.4243 18.5495 12.4026 18.5495H16.1325C16.6437 18.5495 17.1353 18.0995 17.1109 17.5712C17.0913 17.038 16.6853 16.5904 16.135 16.5904ZM16.135 20.7239H9.76843C9.66815 20.7239 9.56787 20.7214 9.46759 20.7239C8.67513 20.7361 8.00986 21.2253 7.74326 21.9664C7.60874 22.3381 7.64787 22.7833 7.64787 23.1746V29.1669C7.64787 29.6757 7.83865 30.1918 8.22509 30.5366C8.58953 30.8619 9.03223 31.0233 9.51895 31.0233H16.0274C16.3747 31.0233 16.7 30.9598 17.013 30.7959C17.5976 30.4926 17.9425 29.842 17.9474 29.1963V23.292C17.9474 23.0083 17.9669 22.7148 17.94 22.4311C17.9009 21.981 17.7321 21.5432 17.3922 21.2301C17.0448 20.9097 16.6119 20.7336 16.135 20.7239C15.6238 20.7141 15.1322 21.1812 15.1566 21.7022C15.1811 22.2403 15.5871 22.6683 16.135 22.6805C16.1692 22.6805 16.2035 22.683 16.2377 22.6879C16.1521 22.6756 16.0641 22.6634 15.9785 22.6536C16.0567 22.6659 16.1276 22.683 16.201 22.7123C16.1228 22.6805 16.0445 22.6463 15.9662 22.6145C16.0347 22.6463 16.0983 22.683 16.1594 22.7295L15.9613 22.5754C16.0102 22.6169 16.0543 22.661 16.0959 22.7099L15.9418 22.5118C15.9882 22.5729 16.0249 22.6341 16.0567 22.705C16.0249 22.6267 15.9907 22.5485 15.9589 22.4702C15.9882 22.5436 16.0078 22.6145 16.0176 22.6928C16.0054 22.6072 15.9931 22.5191 15.9833 22.4335C16.0078 22.6756 15.9907 22.9251 15.9907 23.1673V28.421C15.9907 28.7145 16.0151 29.0202 15.9833 29.3137C15.9956 29.2281 16.0078 29.14 16.0176 29.0544C16.0054 29.1327 15.9882 29.2036 15.9589 29.277C15.9907 29.1987 16.0249 29.1205 16.0567 29.0422C16.0249 29.1107 15.9882 29.1743 15.9418 29.2354L16.0959 29.0373C16.0543 29.0862 16.0102 29.1303 15.9613 29.1718L16.1594 29.0177C16.0983 29.0642 16.0372 29.1009 15.9662 29.1327C16.0445 29.1009 16.1228 29.0667 16.201 29.0349C16.1276 29.0642 16.0567 29.0838 15.9785 29.0936C16.0641 29.0813 16.1521 29.0691 16.2377 29.0593C15.9956 29.0838 15.7461 29.0667 15.504 29.0667H10.2503C9.95676 29.0667 9.65103 29.0911 9.35752 29.0593C9.44313 29.0716 9.53118 29.0838 9.61679 29.0936C9.53852 29.0813 9.46759 29.0642 9.39421 29.0349C9.47248 29.0667 9.55075 29.1009 9.62901 29.1327C9.56053 29.1009 9.49694 29.0642 9.43579 29.0177L9.63391 29.1718C9.58499 29.1303 9.54096 29.0862 9.49938 29.0373L9.65347 29.2354C9.607 29.1743 9.57031 29.1131 9.53852 29.0422C9.57031 29.1205 9.60456 29.1987 9.63635 29.277C9.607 29.2036 9.58743 29.1327 9.57765 29.0544C9.58988 29.14 9.60211 29.2281 9.61189 29.3137C9.58743 29.0716 9.60456 28.8221 9.60456 28.5799V23.3262C9.60456 23.0327 9.5801 22.727 9.61189 22.4335C9.59966 22.5191 9.58743 22.6072 9.57765 22.6928C9.58988 22.6145 9.607 22.5436 9.63635 22.4702C9.60456 22.5485 9.57031 22.6267 9.53852 22.705C9.57031 22.6365 9.607 22.5729 9.65347 22.5118L9.49938 22.7099C9.54096 22.661 9.58499 22.6169 9.63391 22.5754L9.43579 22.7295C9.49694 22.683 9.55808 22.6463 9.62901 22.6145C9.55075 22.6463 9.47248 22.6805 9.39421 22.7123C9.46759 22.683 9.53852 22.6634 9.61679 22.6536C9.53118 22.6659 9.44313 22.6781 9.35752 22.6879C9.59966 22.6634 9.84914 22.6805 10.0913 22.6805H16.1374C16.6486 22.6805 17.1402 22.2305 17.1158 21.7022C17.0913 21.1714 16.6853 20.7239 16.135 20.7239ZM20.5229 12.1218H29.4135C29.8244 12.1218 30.2353 12.1291 30.6462 12.1218H30.6634C31.1745 12.1218 31.6662 11.6718 31.6417 11.1434C31.6172 10.6127 31.2112 10.1651 30.6634 10.1651H21.7727C21.3618 10.1651 20.9509 10.1578 20.54 10.1651H20.5229C20.0117 10.1651 19.52 10.6151 19.5445 11.1434C19.5665 11.6718 19.975 12.1218 20.5229 12.1218ZM26.8234 14.6753H20.5204C20.0092 14.6753 19.5176 15.1253 19.5421 15.6536C19.5665 16.1844 19.9725 16.6319 20.5204 16.6319H26.8234C27.3346 16.6319 27.8262 16.1819 27.8017 15.6536C27.7797 15.1229 27.3737 14.6753 26.8234 14.6753ZM20.5229 24.5956H29.4135C29.8244 24.5956 30.2353 24.603 30.6462 24.5956H30.6634C31.1745 24.5956 31.6662 24.1456 31.6417 23.6173C31.6172 23.0866 31.2112 22.639 30.6634 22.639H21.7727C21.3618 22.639 20.9509 22.6316 20.54 22.639H20.5229C20.0117 22.639 19.52 23.089 19.5445 23.6173C19.5665 24.1481 19.975 24.5956 20.5229 24.5956ZM26.8234 27.1491H20.5204C20.0092 27.1491 19.5176 27.5992 19.5421 28.1275C19.5665 28.6582 19.9725 29.1058 20.5204 29.1058H26.8234C27.3346 29.1058 27.8262 28.6558 27.8017 28.1275C27.7797 27.5992 27.3737 27.1491 26.8234 27.1491Z" fill="white"/>
</g>
<defs>
<clipPath id="clip0_871_7859">
<rect width="24" height="24" fill="white" transform="translate(8 8)"/>
</clipPath>
</defs>
</svg>
