<svg width="40" height="40" viewBox="0 0 40 40" fill="none" xmlns="http://www.w3.org/2000/svg">
<rect width="40" height="40" rx="20" fill="#F0F1F3"/>
<g clip-path="url(#clip0_121_2629)">
<path d="M25.2133 28.2506H25.1885C24.8053 28.2446 24.4408 28.0819 24.1805 27.8006L22.742 26.3899C22.454 26.0921 22.4608 25.6174 22.7585 25.3294C22.7593 25.3286 22.76 25.3279 22.7608 25.3271C23.0585 25.0414 23.531 25.0496 23.8183 25.3451L25.214 26.7124L27.7197 24.2066C28.0122 23.9141 28.4877 23.9141 28.7802 24.2066C29.0727 24.4991 29.0727 24.9746 28.7802 25.2671L26.2145 27.8329C25.9505 28.1006 25.5898 28.2514 25.2133 28.2506Z" fill="#667085"/>
<path d="M21.5264 26.0113C21.5234 23.5385 23.5251 21.5315 25.9971 21.5278C26.9594 21.5263 27.8969 21.8353 28.6694 22.409C29.9991 17.6203 27.1949 12.6605 22.4069 11.3308C17.6189 10.001 12.6599 12.8045 11.3301 17.5933C10.0004 22.382 12.8046 27.3425 17.5926 28.6723C19.1676 29.1095 20.8319 29.1095 22.4069 28.6723C21.8354 27.9028 21.5264 26.9698 21.5264 26.0113ZM20.7501 20.0165C20.7501 20.216 20.6706 20.4065 20.5296 20.5475L18.2759 22.802C17.9774 23.09 17.5019 23.0818 17.2139 22.7833C16.9326 22.4923 16.9326 22.0303 17.2139 21.7393L19.2479 19.7053V16.2598C19.2479 15.845 19.5839 15.5083 19.9994 15.5083C20.4141 15.5083 20.7501 15.845 20.7501 16.2598V20.0165Z" fill="#667085"/>
</g>
<defs>
<clipPath id="clip0_121_2629">
<rect width="18" height="18" fill="white" transform="translate(11 11)"/>
</clipPath>
</defs>
</svg>
