<svg width="20" height="20" viewBox="0 0 20 20" fill="none" xmlns="http://www.w3.org/2000/svg">
<path d="M13.7268 7.47141L6.27342 7.47141C6.14157 7.47196 6.01285 7.51159 5.90353 7.5853C5.7942 7.65901 5.70919 7.76348 5.65924 7.8855C5.60929 8.00752 5.59664 8.14162 5.6229 8.27083C5.64916 8.40003 5.71314 8.51856 5.80675 8.6114L9.52675 12.3314C9.58873 12.3939 9.66246 12.4435 9.7437 12.4773C9.82494 12.5112 9.91208 12.5286 10.0001 12.5286C10.0881 12.5286 10.1752 12.5112 10.2565 12.4773C10.3377 12.4435 10.4114 12.3939 10.4734 12.3314L14.1934 8.6114C14.287 8.51856 14.351 8.40003 14.3773 8.27083C14.4035 8.14162 14.3909 8.00752 14.3409 7.8855C14.291 7.76348 14.206 7.65901 14.0966 7.5853C13.9873 7.51159 13.8586 7.47196 13.7268 7.47141Z" fill="#667085"/>
</svg>
