<svg width="20" height="21" viewBox="0 0 20 21" fill="none" xmlns="http://www.w3.org/2000/svg">
<path d="M12.5 14.7245H16.6666L15.4959 13.5537C15.1784 13.2362 15 12.8055 15 12.3565V9.72447C15 7.54744 13.6086 5.69537 11.6666 5.00898V4.72447C11.6666 3.80399 10.9205 3.0578 9.99998 3.0578C9.0795 3.0578 8.33331 3.80399 8.33331 4.72447V5.00898C6.39133 5.69537 4.99998 7.54744 4.99998 9.72447V12.3565C4.99998 12.8055 4.8216 13.2362 4.50409 13.5537L3.33331 14.7245H7.49998M12.5 14.7245V15.5578C12.5 16.9385 11.3807 18.0578 9.99998 18.0578C8.61927 18.0578 7.49998 16.9385 7.49998 15.5578V14.7245M12.5 14.7245H7.49998" stroke="#64748B" stroke-width="1.5" stroke-linecap="round" stroke-linejoin="round"/>
</svg>
