<svg width="40" height="40" viewBox="0 0 40 40" fill="none" xmlns="http://www.w3.org/2000/svg">
<rect width="40" height="40" rx="20" fill="#F0F1F3"/>
<g clip-path="url(#clip0_121_2599)">
<path d="M25.25 14H22.25V13.25C22.25 12.6533 22.0129 12.081 21.591 11.659C21.169 11.2371 20.5967 11 20 11C19.4033 11 18.831 11.2371 18.409 11.659C17.9871 12.081 17.75 12.6533 17.75 13.25V14H14.75C13.7558 14.0012 12.8027 14.3967 12.0997 15.0997C11.3967 15.8027 11.0012 16.7558 11 17.75V25.25C11.0012 26.2442 11.3967 27.1973 12.0997 27.9003C12.8027 28.6033 13.7558 28.9988 14.75 29H25.25C26.2442 28.9988 27.1973 28.6033 27.9003 27.9003C28.6033 27.1973 28.9988 26.2442 29 25.25V17.75C28.9988 16.7558 28.6033 15.8027 27.9003 15.0997C27.1973 14.3967 26.2442 14.0012 25.25 14ZM18.5 24.5C18.5 24.6989 18.421 24.8897 18.2803 25.0303C18.1397 25.171 17.9489 25.25 17.75 25.25H14C13.8011 25.25 13.6103 25.171 13.4697 25.0303C13.329 24.8897 13.25 24.6989 13.25 24.5V18.5C13.25 18.3011 13.329 18.1103 13.4697 17.9697C13.6103 17.829 13.8011 17.75 14 17.75H17.75C17.9489 17.75 18.1397 17.829 18.2803 17.9697C18.421 18.1103 18.5 18.3011 18.5 18.5V24.5ZM20 15.5C19.8011 15.5 19.6103 15.421 19.4697 15.2803C19.329 15.1397 19.25 14.9489 19.25 14.75V13.25C19.25 13.0511 19.329 12.8603 19.4697 12.7197C19.6103 12.579 19.8011 12.5 20 12.5C20.1989 12.5 20.3897 12.579 20.5303 12.7197C20.671 12.8603 20.75 13.0511 20.75 13.25V14.75C20.75 14.9489 20.671 15.1397 20.5303 15.2803C20.3897 15.421 20.1989 15.5 20 15.5ZM24.5 25.25H21.5C21.3011 25.25 21.1103 25.171 20.9697 25.0303C20.829 24.8897 20.75 24.6989 20.75 24.5C20.75 24.3011 20.829 24.1103 20.9697 23.9697C21.1103 23.829 21.3011 23.75 21.5 23.75H24.5C24.6989 23.75 24.8897 23.829 25.0303 23.9697C25.171 24.1103 25.25 24.3011 25.25 24.5C25.25 24.6989 25.171 24.8897 25.0303 25.0303C24.8897 25.171 24.6989 25.25 24.5 25.25ZM26 22.25H21.5C21.3011 22.25 21.1103 22.171 20.9697 22.0303C20.829 21.8897 20.75 21.6989 20.75 21.5C20.75 21.3011 20.829 21.1103 20.9697 20.9697C21.1103 20.829 21.3011 20.75 21.5 20.75H26C26.1989 20.75 26.3897 20.829 26.5303 20.9697C26.671 21.1103 26.75 21.3011 26.75 21.5C26.75 21.6989 26.671 21.8897 26.5303 22.0303C26.3897 22.171 26.1989 22.25 26 22.25ZM26 19.25H21.5C21.3011 19.25 21.1103 19.171 20.9697 19.0303C20.829 18.8897 20.75 18.6989 20.75 18.5C20.75 18.3011 20.829 18.1103 20.9697 17.9697C21.1103 17.829 21.3011 17.75 21.5 17.75H26C26.1989 17.75 26.3897 17.829 26.5303 17.9697C26.671 18.1103 26.75 18.3011 26.75 18.5C26.75 18.6989 26.671 18.8897 26.5303 19.0303C26.3897 19.171 26.1989 19.25 26 19.25ZM14.75 19.25H17V23.75H14.75V19.25Z" fill="#667085"/>
</g>
<defs>
<clipPath id="clip0_121_2599">
<rect width="18" height="18" fill="white" transform="translate(11 11)"/>
</clipPath>
</defs>
</svg>
