<svg width="16" height="16" viewBox="0 0 16 16" fill="none" xmlns="http://www.w3.org/2000/svg">
<path d="M8.86015 12.3933L5.14015 8.66661C5.01598 8.5417 4.94629 8.37274 4.94629 8.19661C4.94629 8.02049 5.01598 7.85152 5.14015 7.72661L8.86015 3.99994C8.9534 3.90593 9.07253 3.84181 9.20236 3.81576C9.3322 3.78971 9.46684 3.80292 9.58914 3.8537C9.71143 3.90448 9.81584 3.99052 9.88904 4.10087C9.96224 4.21122 10.0009 4.34086 10.0002 4.47328V11.9199C10.0009 12.0524 9.96224 12.182 9.88904 12.2924C9.81584 12.4027 9.71143 12.4887 9.58914 12.5395C9.46684 12.5903 9.3322 12.6035 9.20236 12.5775C9.07253 12.5514 8.9534 12.4873 8.86015 12.3933Z" fill="#883DCF"/>
</svg>
