<svg width="48" height="48" viewBox="0 0 48 48" fill="none" xmlns="http://www.w3.org/2000/svg">
<rect width="48" height="48" rx="24" fill="#E0FCFD"/>
<path d="M27.75 30.25H34L32.2438 28.4938C31.7676 28.0176 31.5 27.3716 31.5 26.6981V22.75C31.5 19.4845 29.413 16.7064 26.5 15.6768V15.25C26.5 13.8693 25.3807 12.75 24 12.75C22.6193 12.75 21.5 13.8693 21.5 15.25V15.6768C18.587 16.7064 16.5 19.4845 16.5 22.75V26.6981C16.5 27.3716 16.2324 28.0176 15.7562 28.4938L14 30.25H20.25M27.75 30.25V31.5C27.75 33.5711 26.0711 35.25 24 35.25C21.9289 35.25 20.25 33.5711 20.25 31.5V30.25M27.75 30.25H20.25" stroke="#22173D" stroke-width="1.5" stroke-linecap="round" stroke-linejoin="round"/>
<rect x="8.5" y="22.5" width="7" height="7" rx="3.5" fill="#F97316"/>
<rect x="8.5" y="22.5" width="7" height="7" rx="3.5" stroke="white"/>
</svg>
