<svg width="441" height="395" viewBox="0 0 441 395" fill="none" xmlns="http://www.w3.org/2000/svg">
<g filter="url(#filter0_d_152_5402)">
<g clip-path="url(#clip0_152_5402)">
<rect x="30" y="26" width="387" height="345" rx="20" fill="white"/>
<path d="M310.563 70V69.0508C310.563 68.4062 310.672 67.8291 310.889 67.3193C311.105 66.8037 311.378 66.3408 311.706 65.9307C312.034 65.5264 312.392 65.1689 312.778 64.8584C313.171 64.542 313.543 64.2578 313.895 64.0059C314.264 63.748 314.583 63.502 314.853 63.2676C315.122 63.0273 315.362 62.7959 315.573 62.5732C315.79 62.3389 315.945 62.0928 316.039 61.835C316.139 61.5713 316.188 61.2637 316.188 60.9121C316.188 60.4844 316.051 60.127 315.775 59.8398C315.506 59.5469 315.107 59.4004 314.58 59.4004C314.24 59.4004 313.807 59.4883 313.279 59.6641C312.752 59.8398 312.236 60.1182 311.732 60.499L310.396 58.7324C311.105 58.1992 311.829 57.8096 312.567 57.5635C313.312 57.3115 314.129 57.1855 315.02 57.1855C316.227 57.1855 317.185 57.5137 317.894 58.1699C318.608 58.8203 318.966 59.6143 318.966 60.5518C318.966 61.29 318.875 61.8818 318.693 62.3271C318.518 62.7725 318.28 63.1768 317.981 63.54C317.688 63.9092 317.349 64.249 316.962 64.5596C316.575 64.8643 316.174 65.1602 315.758 65.4473C315.477 65.6465 315.204 65.8457 314.94 66.0449C314.683 66.2383 314.454 66.4287 314.255 66.6162C314.056 66.8096 313.897 66.9971 313.78 67.1787C313.663 67.3604 313.604 67.5332 313.604 67.6973H318.948V70H310.563ZM325.03 70.2197C323.507 70.2197 322.394 69.6924 321.69 68.6377C320.987 67.583 320.636 66.0039 320.636 63.9004C320.636 61.7148 321.017 60.0508 321.778 58.9082C322.546 57.7598 323.63 57.1855 325.03 57.1855C326.636 57.1855 327.77 57.7217 328.432 58.7939C329.094 59.8604 329.425 61.4658 329.425 63.6104C329.425 65.7432 329.059 67.3779 328.326 68.5146C327.6 69.6514 326.501 70.2197 325.03 70.2197ZM325.021 59.3037C324.459 59.3037 324.058 59.6816 323.817 60.4375C323.577 61.1875 323.457 62.3184 323.457 63.8301C323.457 65.248 323.58 66.3145 323.826 67.0293C324.078 67.7383 324.479 68.0928 325.03 68.0928C325.64 68.0928 326.053 67.7266 326.27 66.9941C326.486 66.2617 326.595 65.1631 326.595 63.6982C326.595 62.2334 326.48 61.1348 326.252 60.4023C326.029 59.6699 325.619 59.3037 325.021 59.3037ZM340.394 70H337.062L334.188 65.5352H334.153V70H331.376V56.6758H334.153V65.1572H334.188L336.869 61H340.165L336.939 65.2275L340.394 70Z" fill="#9854FF"/>
<path d="M359.75 64.7354C359.75 66.5635 359.331 67.9346 358.493 68.8486C357.661 69.7568 356.41 70.2109 354.74 70.2109C353.129 70.2109 351.919 69.7715 351.11 68.8926C350.308 68.0078 349.906 66.6777 349.906 64.9023V57.3965H351.998V64.876C351.998 66.042 352.238 66.918 352.719 67.5039C353.199 68.0898 353.917 68.3828 354.872 68.3828C355.804 68.3828 356.501 68.1016 356.964 67.5391C357.427 66.9707 357.658 66.1211 357.658 64.9902V57.3965H359.75V64.7354ZM361.613 69.2793L362.501 67.8379C362.853 68.084 363.225 68.2832 363.617 68.4355C364.016 68.582 364.446 68.6553 364.909 68.6553C365.413 68.6553 365.803 68.5645 366.078 68.3828C366.359 68.1953 366.5 67.917 366.5 67.5479C366.5 67.2549 366.383 67.0117 366.148 66.8184C365.92 66.6191 365.527 66.4551 364.971 66.3262C363.846 66.0625 363.055 65.7139 362.598 65.2803C362.146 64.8467 361.921 64.2754 361.921 63.5664C361.921 62.752 362.237 62.0869 362.87 61.5713C363.503 61.0498 364.332 60.7891 365.357 60.7891C365.867 60.7891 366.354 60.8564 366.816 60.9912C367.279 61.1201 367.73 61.3281 368.17 61.6152L367.344 63.0215C366.957 62.7754 366.603 62.5996 366.28 62.4941C365.958 62.3887 365.627 62.3359 365.287 62.3359C364.807 62.3359 364.432 62.4268 364.162 62.6084C363.898 62.7842 363.767 63.0303 363.767 63.3467C363.767 63.6807 363.901 63.9297 364.171 64.0938C364.446 64.252 364.906 64.4072 365.551 64.5596C366.523 64.7939 367.235 65.1338 367.687 65.5791C368.138 66.0186 368.363 66.6074 368.363 67.3457C368.363 68.2188 368.044 68.916 367.405 69.4375C366.772 69.9531 365.914 70.2109 364.83 70.2109C364.244 70.2109 363.682 70.1348 363.143 69.9824C362.609 69.8242 362.1 69.5898 361.613 69.2793ZM377.873 66.0361H371.729C371.765 66.8857 372.011 67.5332 372.468 67.9785C372.925 68.418 373.563 68.6377 374.384 68.6377C374.718 68.6377 375.099 68.5703 375.526 68.4355C375.954 68.3008 376.376 68.084 376.792 67.7852L377.715 69.0596C377.158 69.4639 376.593 69.7568 376.019 69.9385C375.444 70.1201 374.812 70.2109 374.12 70.2109C372.72 70.2109 371.63 69.8096 370.851 69.0068C370.071 68.1982 369.679 67.0703 369.673 65.623C369.673 64.1816 370.074 63.0156 370.877 62.125C371.686 61.2344 372.72 60.7891 373.979 60.7891C375.187 60.7891 376.136 61.1699 376.827 61.9316C377.524 62.6875 377.873 63.7598 377.873 65.1484V66.0361ZM375.896 64.6211C375.896 63.8477 375.726 63.2676 375.386 62.8809C375.052 62.4883 374.577 62.292 373.962 62.292C373.382 62.292 372.887 62.5029 372.477 62.9248C372.072 63.3408 371.823 63.9062 371.729 64.6211H375.896ZM384.825 62.7139C384.714 62.6846 384.605 62.6641 384.5 62.6523C384.4 62.6348 384.283 62.626 384.148 62.626C383.416 62.626 382.854 62.8955 382.461 63.4346C382.068 63.9736 381.872 64.6768 381.872 65.5439V70H379.824V61H381.872V62.7314H381.907C382.118 62.1104 382.429 61.6416 382.839 61.3252C383.249 61.0029 383.732 60.8418 384.289 60.8418C384.447 60.8418 384.588 60.8506 384.711 60.8682C384.84 60.8857 384.963 60.9121 385.08 60.9473L384.825 62.7139ZM385.73 69.2793L386.618 67.8379C386.97 68.084 387.342 68.2832 387.734 68.4355C388.133 68.582 388.563 68.6553 389.026 68.6553C389.53 68.6553 389.92 68.5645 390.195 68.3828C390.477 68.1953 390.617 67.917 390.617 67.5479C390.617 67.2549 390.5 67.0117 390.266 66.8184C390.037 66.6191 389.645 66.4551 389.088 66.3262C387.963 66.0625 387.172 65.7139 386.715 65.2803C386.264 64.8467 386.038 64.2754 386.038 63.5664C386.038 62.752 386.354 62.0869 386.987 61.5713C387.62 61.0498 388.449 60.7891 389.475 60.7891C389.984 60.7891 390.471 60.8564 390.934 60.9912C391.396 61.1201 391.848 61.3281 392.287 61.6152L391.461 63.0215C391.074 62.7754 390.72 62.5996 390.397 62.4941C390.075 62.3887 389.744 62.3359 389.404 62.3359C388.924 62.3359 388.549 62.4268 388.279 62.6084C388.016 62.7842 387.884 63.0303 387.884 63.3467C387.884 63.6807 388.019 63.9297 388.288 64.0938C388.563 64.252 389.023 64.4072 389.668 64.5596C390.641 64.7939 391.353 65.1338 391.804 65.5791C392.255 66.0186 392.48 66.6074 392.48 67.3457C392.48 68.2188 392.161 68.916 391.522 69.4375C390.89 69.9531 390.031 70.2109 388.947 70.2109C388.361 70.2109 387.799 70.1348 387.26 69.9824C386.727 69.8242 386.217 69.5898 385.73 69.2793Z" fill="#22173D"/>
<path d="M63.44 68.192C62.6187 68.192 61.872 68.0267 61.2 67.696C60.528 67.3653 59.9947 66.8693 59.6 66.208C59.2053 65.5467 59.008 64.704 59.008 63.68V56.8H61.168V63.696C61.168 64.2507 61.2587 64.72 61.44 65.104C61.6213 65.4773 61.8827 65.7547 62.224 65.936C62.576 66.1173 62.992 66.208 63.472 66.208C63.9627 66.208 64.3787 66.1173 64.72 65.936C65.072 65.7547 65.3387 65.4773 65.52 65.104C65.712 64.72 65.808 64.2507 65.808 63.696V56.8H67.968V63.68C67.968 64.704 67.76 65.5467 67.344 66.208C66.9387 66.8693 66.3947 67.3653 65.712 67.696C65.0293 68.0267 64.272 68.192 63.44 68.192ZM72.9851 68.192C72.2491 68.192 71.6091 68.0747 71.0651 67.84C70.5318 67.6053 70.1051 67.2853 69.7851 66.88C69.4758 66.464 69.2998 65.9893 69.2571 65.456H71.4011C71.4545 65.6587 71.5451 65.8453 71.6731 66.016C71.8011 66.176 71.9718 66.304 72.1851 66.4C72.4091 66.496 72.6651 66.544 72.9531 66.544C73.2411 66.544 73.4758 66.5067 73.6571 66.432C73.8385 66.3467 73.9718 66.24 74.0571 66.112C74.1531 65.9733 74.2011 65.8293 74.2011 65.68C74.2011 65.4453 74.1371 65.2693 74.0091 65.152C73.8811 65.0347 73.6891 64.9387 73.4331 64.864C73.1878 64.7893 72.8945 64.7147 72.5531 64.64C72.1798 64.5653 71.8065 64.4747 71.4331 64.368C71.0705 64.2507 70.7398 64.1067 70.4411 63.936C70.1531 63.7653 69.9238 63.5467 69.7531 63.28C69.5825 63.0133 69.4971 62.6827 69.4971 62.288C69.4971 61.8187 69.6251 61.392 69.8811 61.008C70.1371 60.624 70.5105 60.3253 71.0011 60.112C71.4918 59.888 72.0785 59.776 72.7611 59.776C73.7318 59.776 74.4998 59.9947 75.0651 60.432C75.6411 60.8693 75.9771 61.472 76.0731 62.24H74.0411C73.9878 61.984 73.8491 61.7867 73.6251 61.648C73.4011 61.5093 73.1131 61.44 72.7611 61.44C72.3771 61.44 72.0838 61.5093 71.8811 61.648C71.6891 61.7867 71.5931 61.9627 71.5931 62.176C71.5931 62.3253 71.6571 62.4587 71.7851 62.576C71.9131 62.6933 72.0998 62.7947 72.3451 62.88C72.5905 62.9547 72.8891 63.0293 73.2411 63.104C73.8598 63.232 74.3985 63.376 74.8571 63.536C75.3265 63.696 75.6945 63.9307 75.9611 64.24C76.2278 64.5387 76.3611 64.976 76.3611 65.552C76.3718 66.064 76.2385 66.5227 75.9611 66.928C75.6838 67.3227 75.2891 67.632 74.7771 67.856C74.2758 68.08 73.6785 68.192 72.9851 68.192ZM81.7411 68.192C80.9305 68.192 80.2105 68.0213 79.5811 67.68C78.9625 67.328 78.4771 66.8427 78.1251 66.224C77.7838 65.5947 77.6131 64.8747 77.6131 64.064C77.6131 63.2213 77.7838 62.48 78.1251 61.84C78.4665 61.2 78.9465 60.6987 79.5651 60.336C80.1945 59.9627 80.9198 59.776 81.7411 59.776C82.5411 59.776 83.2398 59.952 83.8371 60.304C84.4345 60.6453 84.8985 61.1147 85.2291 61.712C85.5705 62.3093 85.7411 62.9867 85.7411 63.744C85.7411 63.8507 85.7358 63.9733 85.7251 64.112C85.7251 64.24 85.7198 64.3733 85.7091 64.512H79.1491V63.184H83.5491C83.5278 62.6827 83.3465 62.2827 83.0051 61.984C82.6638 61.6747 82.2478 61.52 81.7571 61.52C81.3838 61.52 81.0425 61.6053 80.7331 61.776C80.4238 61.9467 80.1785 62.2027 79.9971 62.544C79.8265 62.8747 79.7411 63.296 79.7411 63.808V64.272C79.7411 64.7093 79.8211 65.0933 79.9811 65.424C80.1518 65.744 80.3865 65.9947 80.6851 66.176C80.9838 66.3467 81.3305 66.432 81.7251 66.432C82.1198 66.432 82.4451 66.3467 82.7011 66.176C82.9678 66.0053 83.1705 65.7813 83.3091 65.504H85.5011C85.3518 66.016 85.1011 66.4747 84.7491 66.88C84.3971 67.2853 83.9651 67.6053 83.4531 67.84C82.9411 68.0747 82.3705 68.192 81.7411 68.192ZM87.1741 68V59.968H89.0941L89.2861 61.456C89.4888 61.104 89.7341 60.8053 90.0221 60.56C90.3101 60.304 90.6408 60.112 91.0141 59.984C91.3981 59.8453 91.8195 59.776 92.2781 59.776V62.064H91.5581C91.2381 62.064 90.9395 62.1013 90.6621 62.176C90.3955 62.24 90.1608 62.3573 89.9581 62.528C89.7555 62.6987 89.6008 62.928 89.4941 63.216C89.3875 63.504 89.3341 63.8667 89.3341 64.304V68H87.1741ZM101.567 68.192C101.162 68.192 100.794 68.1387 100.463 68.032C100.143 67.936 99.8554 67.7973 99.5994 67.616C99.354 67.424 99.146 67.2053 98.9754 66.96L98.7354 68H96.8154V56.48H98.9754V61.072C99.2314 60.7093 99.5674 60.4053 99.9834 60.16C100.41 59.904 100.938 59.776 101.567 59.776C102.314 59.776 102.975 59.9627 103.551 60.336C104.138 60.6987 104.597 61.1947 104.927 61.824C105.269 62.4533 105.439 63.1787 105.439 64C105.439 64.8 105.269 65.52 104.927 66.16C104.597 66.7893 104.138 67.2853 103.551 67.648C102.975 68.0107 102.314 68.192 101.567 68.192ZM101.071 66.304C101.498 66.304 101.871 66.208 102.191 66.016C102.522 65.8133 102.778 65.5413 102.959 65.2C103.151 64.848 103.247 64.4427 103.247 63.984C103.247 63.536 103.151 63.136 102.959 62.784C102.778 62.432 102.522 62.16 102.191 61.968C101.871 61.7653 101.498 61.664 101.071 61.664C100.655 61.664 100.282 61.7653 99.9514 61.968C99.6207 62.16 99.3647 62.432 99.1834 62.784C99.002 63.1253 98.9114 63.5253 98.9114 63.984C98.9114 64.4427 99.002 64.848 99.1834 65.2C99.3647 65.552 99.6207 65.824 99.9514 66.016C100.282 66.208 100.655 66.304 101.071 66.304ZM107.269 71.52L109.221 67.104H108.741L105.509 59.968H107.845L110.165 65.136L112.245 59.968H114.533L109.541 71.52H107.269ZM123.971 68.192C122.915 68.192 121.993 67.9573 121.203 67.488C120.414 67.008 119.795 66.3413 119.347 65.488C118.91 64.624 118.691 63.6213 118.691 62.48C118.691 61.328 118.915 60.3147 119.363 59.44C119.822 58.5547 120.473 57.8613 121.315 57.36C122.158 56.8587 123.161 56.608 124.323 56.608C125.646 56.608 126.739 56.9227 127.603 57.552C128.478 58.1813 129.043 59.056 129.299 60.176H126.883C126.723 59.6853 126.425 59.3013 125.987 59.024C125.561 58.736 125.006 58.592 124.323 58.592C123.587 58.592 122.963 58.752 122.451 59.072C121.95 59.392 121.566 59.84 121.299 60.416C121.033 60.992 120.899 61.68 120.899 62.48C120.899 63.2907 121.033 63.9787 121.299 64.544C121.566 65.1093 121.945 65.5413 122.435 65.84C122.937 66.128 123.523 66.272 124.195 66.272C125.177 66.272 125.918 66.0107 126.419 65.488C126.931 64.9547 127.235 64.2667 127.331 63.424H124.579V61.808H129.507V68H127.507L127.347 66.576C127.102 66.928 126.825 67.2267 126.515 67.472C126.206 67.7067 125.843 67.8827 125.427 68C125.011 68.128 124.526 68.192 123.971 68.192ZM135.017 68.192C134.206 68.192 133.486 68.0213 132.857 67.68C132.238 67.328 131.753 66.8427 131.401 66.224C131.059 65.5947 130.889 64.8747 130.889 64.064C130.889 63.2213 131.059 62.48 131.401 61.84C131.742 61.2 132.222 60.6987 132.841 60.336C133.47 59.9627 134.195 59.776 135.017 59.776C135.817 59.776 136.515 59.952 137.113 60.304C137.71 60.6453 138.174 61.1147 138.505 61.712C138.846 62.3093 139.017 62.9867 139.017 63.744C139.017 63.8507 139.011 63.9733 139.001 64.112C139.001 64.24 138.995 64.3733 138.985 64.512H132.425V63.184H136.825C136.803 62.6827 136.622 62.2827 136.281 61.984C135.939 61.6747 135.523 61.52 135.033 61.52C134.659 61.52 134.318 61.6053 134.009 61.776C133.699 61.9467 133.454 62.2027 133.273 62.544C133.102 62.8747 133.017 63.296 133.017 63.808V64.272C133.017 64.7093 133.097 65.0933 133.257 65.424C133.427 65.744 133.662 65.9947 133.961 66.176C134.259 66.3467 134.606 66.432 135.001 66.432C135.395 66.432 135.721 66.3467 135.977 66.176C136.243 66.0053 136.446 65.7813 136.585 65.504H138.777C138.627 66.016 138.377 66.4747 138.025 66.88C137.673 67.2853 137.241 67.6053 136.729 67.84C136.217 68.0747 135.646 68.192 135.017 68.192ZM140.45 68V59.968H142.354L142.514 61.28C142.759 60.8213 143.106 60.4587 143.554 60.192C144.012 59.9147 144.556 59.776 145.186 59.776C145.858 59.776 146.423 59.9147 146.882 60.192C147.34 60.4693 147.687 60.8747 147.922 61.408C148.167 61.9413 148.29 62.6027 148.29 63.392V68H146.146V63.584C146.146 62.944 146.007 62.4533 145.73 62.112C145.463 61.7707 145.047 61.6 144.482 61.6C144.119 61.6 143.794 61.6853 143.506 61.856C143.228 62.0267 143.01 62.272 142.85 62.592C142.69 62.9013 142.61 63.2853 142.61 63.744V68H140.45ZM153.573 68.192C152.848 68.192 152.192 68.0107 151.605 67.648C151.018 67.2853 150.56 66.7893 150.229 66.16C149.898 65.52 149.733 64.7947 149.733 63.984C149.733 63.1733 149.898 62.4533 150.229 61.824C150.57 61.184 151.034 60.6827 151.621 60.32C152.218 59.9573 152.885 59.776 153.621 59.776C154.208 59.776 154.714 59.8827 155.141 60.096C155.578 60.3093 155.93 60.6133 156.197 61.008V56.48H158.357V68H156.437L156.197 66.896C156.037 67.12 155.834 67.3333 155.589 67.536C155.354 67.7387 155.072 67.8987 154.741 68.016C154.41 68.1333 154.021 68.192 153.573 68.192ZM154.085 66.304C154.512 66.304 154.885 66.208 155.205 66.016C155.536 65.8133 155.792 65.536 155.973 65.184C156.165 64.832 156.261 64.432 156.261 63.984C156.261 63.5253 156.165 63.12 155.973 62.768C155.792 62.416 155.536 62.144 155.205 61.952C154.885 61.76 154.512 61.664 154.085 61.664C153.68 61.664 153.312 61.76 152.981 61.952C152.65 62.144 152.389 62.416 152.197 62.768C152.016 63.12 151.925 63.52 151.925 63.968C151.925 64.4267 152.016 64.832 152.197 65.184C152.389 65.536 152.65 65.8133 152.981 66.016C153.312 66.208 153.68 66.304 154.085 66.304ZM164.026 68.192C163.215 68.192 162.495 68.0213 161.866 67.68C161.247 67.328 160.762 66.8427 160.41 66.224C160.068 65.5947 159.898 64.8747 159.898 64.064C159.898 63.2213 160.068 62.48 160.41 61.84C160.751 61.2 161.231 60.6987 161.85 60.336C162.479 59.9627 163.204 59.776 164.026 59.776C164.826 59.776 165.524 59.952 166.122 60.304C166.719 60.6453 167.183 61.1147 167.514 61.712C167.855 62.3093 168.026 62.9867 168.026 63.744C168.026 63.8507 168.02 63.9733 168.01 64.112C168.01 64.24 168.004 64.3733 167.994 64.512H161.434V63.184H165.834C165.812 62.6827 165.631 62.2827 165.29 61.984C164.948 61.6747 164.532 61.52 164.042 61.52C163.668 61.52 163.327 61.6053 163.018 61.776C162.708 61.9467 162.463 62.2027 162.282 62.544C162.111 62.8747 162.026 63.296 162.026 63.808V64.272C162.026 64.7093 162.106 65.0933 162.266 65.424C162.436 65.744 162.671 65.9947 162.97 66.176C163.268 66.3467 163.615 66.432 164.01 66.432C164.404 66.432 164.73 66.3467 164.986 66.176C165.252 66.0053 165.455 65.7813 165.594 65.504H167.786C167.636 66.016 167.386 66.4747 167.034 66.88C166.682 67.2853 166.25 67.6053 165.738 67.84C165.226 68.0747 164.655 68.192 164.026 68.192ZM169.458 68V59.968H171.378L171.57 61.456C171.773 61.104 172.018 60.8053 172.306 60.56C172.594 60.304 172.925 60.112 173.298 59.984C173.682 59.8453 174.104 59.776 174.562 59.776V62.064H173.842C173.522 62.064 173.224 62.1013 172.946 62.176C172.68 62.24 172.445 62.3573 172.242 62.528C172.04 62.6987 171.885 62.928 171.778 63.216C171.672 63.504 171.618 63.8667 171.618 64.304V68H169.458Z" fill="#2B3674"/>
<circle cx="223.5" cy="167.5" r="71.4999" transform="rotate(-90 223.5 167.5)" fill="#EFF4FB"/>
<path d="M223.5 96.0002C238.028 96.0002 252.212 100.426 264.162 108.688C276.112 116.95 285.261 128.657 290.392 142.248C295.523 155.84 296.392 170.673 292.883 184.771C289.373 198.869 281.653 211.563 270.749 221.164C259.845 230.764 246.275 236.815 231.846 238.511C217.417 240.207 202.814 237.467 189.981 230.657C177.148 223.846 166.695 213.287 160.012 200.387C153.33 187.487 150.736 172.858 152.576 158.446L223.5 167.5L223.5 96.0002Z" fill="#00DDEB"/>
<path d="M223.5 96.0002C234.515 96.0002 245.381 98.5452 255.251 103.437C265.12 108.328 273.726 115.434 280.397 124.199C287.068 132.965 291.623 143.153 293.708 153.969C295.792 164.785 295.35 175.937 292.414 186.553C289.479 197.17 284.13 206.965 276.786 215.175C269.441 223.384 260.299 229.785 250.073 233.879C239.847 237.972 228.813 239.648 217.833 238.775C206.852 237.902 196.222 234.504 186.771 228.845L223.5 167.5L223.5 96.0002Z" fill="#9854FF"/>
<g filter="url(#filter1_d_152_5402)">
<rect x="62" y="260" width="323" height="75" rx="15" fill="white"/>
<line x1="223.5" y1="321" x2="223.5" y2="274" stroke="#F4F7FE"/>
<path d="M115.888 291V282.6H117.304L120.1 288.288L122.884 282.6H124.3V291H123.1V284.712L120.556 289.848H119.632L117.088 284.736V291H115.888ZM127.775 291.144C127.287 291.144 126.879 291.06 126.551 290.892C126.231 290.716 125.991 290.484 125.831 290.196C125.671 289.908 125.591 289.596 125.591 289.26C125.591 288.86 125.691 288.516 125.891 288.228C126.099 287.94 126.395 287.72 126.779 287.568C127.163 287.416 127.623 287.34 128.159 287.34H129.719C129.719 286.972 129.671 286.668 129.575 286.428C129.479 286.188 129.327 286.008 129.119 285.888C128.919 285.768 128.659 285.708 128.339 285.708C127.987 285.708 127.687 285.792 127.439 285.96C127.191 286.128 127.035 286.376 126.971 286.704H125.771C125.819 286.28 125.963 285.92 126.203 285.624C126.443 285.328 126.747 285.1 127.115 284.94C127.491 284.78 127.899 284.7 128.339 284.7C128.907 284.7 129.379 284.8 129.755 285C130.139 285.2 130.427 285.484 130.619 285.852C130.819 286.212 130.919 286.644 130.919 287.148V291H129.863L129.767 289.968C129.687 290.136 129.583 290.292 129.455 290.436C129.335 290.572 129.191 290.696 129.023 290.808C128.863 290.912 128.679 290.992 128.471 291.048C128.263 291.112 128.031 291.144 127.775 291.144ZM128.003 290.172C128.251 290.172 128.479 290.12 128.687 290.016C128.895 289.904 129.071 289.76 129.215 289.584C129.367 289.4 129.483 289.196 129.563 288.972C129.643 288.74 129.687 288.496 129.695 288.24V288.18H128.279C127.935 288.18 127.659 288.224 127.451 288.312C127.243 288.4 127.091 288.52 126.995 288.672C126.899 288.816 126.851 288.984 126.851 289.176C126.851 289.376 126.895 289.552 126.983 289.704C127.071 289.848 127.203 289.964 127.379 290.052C127.555 290.132 127.763 290.172 128.003 290.172ZM132.258 291V282.36H133.458V291H132.258ZM137.602 291.144C137.018 291.144 136.502 291.012 136.054 290.748C135.614 290.476 135.27 290.1 135.022 289.62C134.774 289.14 134.65 288.58 134.65 287.94C134.65 287.292 134.774 286.728 135.022 286.248C135.27 285.76 135.618 285.38 136.066 285.108C136.514 284.836 137.03 284.7 137.614 284.7C138.214 284.7 138.726 284.836 139.15 285.108C139.574 285.372 139.898 285.728 140.122 286.176C140.346 286.616 140.458 287.108 140.458 287.652C140.458 287.732 140.454 287.816 140.446 287.904C140.446 287.992 140.442 288.092 140.434 288.204H135.526V287.364H139.258C139.242 286.836 139.078 286.428 138.766 286.14C138.454 285.844 138.066 285.696 137.602 285.696C137.282 285.696 136.986 285.772 136.714 285.924C136.45 286.076 136.234 286.3 136.066 286.596C135.906 286.884 135.826 287.252 135.826 287.7V288.036C135.826 288.492 135.906 288.88 136.066 289.2C136.226 289.512 136.438 289.748 136.702 289.908C136.974 290.068 137.27 290.148 137.59 290.148C137.99 290.148 138.31 290.068 138.55 289.908C138.79 289.74 138.966 289.516 139.078 289.236H140.29C140.186 289.596 140.01 289.92 139.762 290.208C139.514 290.496 139.206 290.724 138.838 290.892C138.478 291.06 138.066 291.144 137.602 291.144ZM147.573 291.144C146.981 291.144 146.445 291.028 145.965 290.796C145.485 290.556 145.101 290.196 144.813 289.716C144.533 289.228 144.393 288.608 144.393 287.856V282.6H145.593V287.868C145.593 288.372 145.677 288.788 145.845 289.116C146.013 289.436 146.245 289.676 146.541 289.836C146.845 289.988 147.197 290.064 147.597 290.064C148.005 290.064 148.353 289.988 148.641 289.836C148.937 289.676 149.165 289.436 149.325 289.116C149.493 288.788 149.577 288.372 149.577 287.868V282.6H150.777V287.856C150.777 288.608 150.633 289.228 150.345 289.716C150.057 290.196 149.669 290.556 149.181 290.796C148.701 291.028 148.165 291.144 147.573 291.144ZM154.498 291.144C153.954 291.144 153.49 291.06 153.106 290.892C152.722 290.716 152.422 290.476 152.206 290.172C151.998 289.86 151.874 289.504 151.834 289.104H153.046C153.086 289.296 153.162 289.472 153.274 289.632C153.386 289.792 153.542 289.924 153.742 290.028C153.95 290.124 154.202 290.172 154.498 290.172C154.754 290.172 154.97 290.136 155.146 290.064C155.322 289.984 155.45 289.876 155.53 289.74C155.618 289.604 155.662 289.456 155.662 289.296C155.662 289.064 155.606 288.888 155.494 288.768C155.39 288.64 155.23 288.544 155.014 288.48C154.806 288.408 154.55 288.348 154.246 288.3C153.942 288.244 153.654 288.176 153.382 288.096C153.118 288.008 152.886 287.896 152.686 287.76C152.486 287.624 152.33 287.456 152.218 287.256C152.106 287.048 152.05 286.8 152.05 286.512C152.05 286.16 152.142 285.848 152.326 285.576C152.51 285.304 152.774 285.092 153.118 284.94C153.462 284.78 153.874 284.7 154.354 284.7C155.034 284.7 155.578 284.86 155.986 285.18C156.394 285.5 156.634 285.948 156.706 286.524H155.542C155.502 286.26 155.378 286.056 155.17 285.912C154.962 285.76 154.686 285.684 154.342 285.684C153.982 285.684 153.706 285.752 153.514 285.888C153.33 286.024 153.238 286.204 153.238 286.428C153.238 286.58 153.286 286.72 153.382 286.848C153.478 286.968 153.63 287.068 153.838 287.148C154.046 287.228 154.31 287.296 154.63 287.352C155.086 287.432 155.482 287.532 155.818 287.652C156.154 287.772 156.414 287.952 156.598 288.192C156.79 288.432 156.886 288.772 156.886 289.212C156.886 289.604 156.786 289.948 156.586 290.244C156.394 290.532 156.118 290.756 155.758 290.916C155.406 291.068 154.986 291.144 154.498 291.144ZM160.806 291.144C160.222 291.144 159.706 291.012 159.258 290.748C158.818 290.476 158.474 290.1 158.226 289.62C157.978 289.14 157.854 288.58 157.854 287.94C157.854 287.292 157.978 286.728 158.226 286.248C158.474 285.76 158.822 285.38 159.27 285.108C159.718 284.836 160.234 284.7 160.818 284.7C161.418 284.7 161.93 284.836 162.354 285.108C162.778 285.372 163.102 285.728 163.326 286.176C163.55 286.616 163.662 287.108 163.662 287.652C163.662 287.732 163.658 287.816 163.65 287.904C163.65 287.992 163.646 288.092 163.638 288.204H158.73V287.364H162.462C162.446 286.836 162.282 286.428 161.97 286.14C161.658 285.844 161.27 285.696 160.806 285.696C160.486 285.696 160.19 285.772 159.918 285.924C159.654 286.076 159.438 286.3 159.27 286.596C159.11 286.884 159.03 287.252 159.03 287.7V288.036C159.03 288.492 159.11 288.88 159.27 289.2C159.43 289.512 159.642 289.748 159.906 289.908C160.178 290.068 160.474 290.148 160.794 290.148C161.194 290.148 161.514 290.068 161.754 289.908C161.994 289.74 162.17 289.516 162.282 289.236H163.494C163.39 289.596 163.214 289.92 162.966 290.208C162.718 290.496 162.41 290.724 162.042 290.892C161.682 291.06 161.27 291.144 160.806 291.144ZM164.779 291V284.844H165.859L165.955 285.984C166.099 285.712 166.283 285.48 166.507 285.288C166.731 285.096 166.995 284.952 167.299 284.856C167.611 284.752 167.959 284.7 168.343 284.7V285.972H167.803C167.563 285.972 167.331 286.004 167.107 286.068C166.891 286.124 166.695 286.224 166.519 286.368C166.351 286.504 166.219 286.692 166.123 286.932C166.027 287.172 165.979 287.476 165.979 287.844V291H164.779ZM171.567 291.144C171.023 291.144 170.559 291.06 170.175 290.892C169.791 290.716 169.491 290.476 169.275 290.172C169.067 289.86 168.943 289.504 168.903 289.104H170.115C170.155 289.296 170.231 289.472 170.343 289.632C170.455 289.792 170.611 289.924 170.811 290.028C171.019 290.124 171.271 290.172 171.567 290.172C171.823 290.172 172.039 290.136 172.215 290.064C172.391 289.984 172.519 289.876 172.599 289.74C172.687 289.604 172.731 289.456 172.731 289.296C172.731 289.064 172.675 288.888 172.563 288.768C172.459 288.64 172.299 288.544 172.083 288.48C171.875 288.408 171.619 288.348 171.315 288.3C171.011 288.244 170.723 288.176 170.451 288.096C170.187 288.008 169.955 287.896 169.755 287.76C169.555 287.624 169.399 287.456 169.287 287.256C169.175 287.048 169.119 286.8 169.119 286.512C169.119 286.16 169.211 285.848 169.395 285.576C169.579 285.304 169.843 285.092 170.187 284.94C170.531 284.78 170.943 284.7 171.423 284.7C172.103 284.7 172.647 284.86 173.055 285.18C173.463 285.5 173.703 285.948 173.775 286.524H172.611C172.571 286.26 172.447 286.056 172.239 285.912C172.031 285.76 171.755 285.684 171.411 285.684C171.051 285.684 170.775 285.752 170.583 285.888C170.399 286.024 170.307 286.204 170.307 286.428C170.307 286.58 170.355 286.72 170.451 286.848C170.547 286.968 170.699 287.068 170.907 287.148C171.115 287.228 171.379 287.296 171.699 287.352C172.155 287.432 172.551 287.532 172.887 287.652C173.223 287.772 173.483 287.952 173.667 288.192C173.859 288.432 173.955 288.772 173.955 289.212C173.955 289.604 173.855 289.948 173.655 290.244C173.463 290.532 173.187 290.756 172.827 290.916C172.475 291.068 172.055 291.144 171.567 291.144Z" fill="#A3AED0"/>
<path d="M120.958 311.216C120.01 311.216 119.212 311.042 118.564 310.694C117.916 310.346 117.394 309.878 116.998 309.29C116.602 308.702 116.314 308.048 116.134 307.328C115.966 306.608 115.882 305.87 115.882 305.114C115.882 303.71 116.08 302.492 116.476 301.46C116.872 300.416 117.442 299.612 118.186 299.048C118.93 298.472 119.83 298.184 120.886 298.184C121.75 298.184 122.482 298.358 123.082 298.706C123.694 299.042 124.168 299.486 124.504 300.038C124.84 300.59 125.038 301.184 125.098 301.82H122.956C122.848 301.268 122.614 300.842 122.254 300.542C121.894 300.242 121.432 300.092 120.868 300.092C120.064 300.092 119.416 300.464 118.924 301.208C118.432 301.94 118.168 303.062 118.132 304.574C118.42 304.082 118.852 303.674 119.428 303.35C120.004 303.026 120.646 302.864 121.354 302.864C122.05 302.864 122.704 303.032 123.316 303.368C123.928 303.704 124.42 304.178 124.792 304.79C125.176 305.402 125.368 306.122 125.368 306.95C125.368 307.706 125.182 308.408 124.81 309.056C124.45 309.704 123.934 310.226 123.262 310.622C122.602 311.018 121.834 311.216 120.958 311.216ZM120.832 309.236C121.504 309.236 122.056 309.032 122.488 308.624C122.932 308.204 123.154 307.676 123.154 307.04C123.154 306.368 122.932 305.828 122.488 305.42C122.044 305.012 121.48 304.808 120.796 304.808C120.352 304.808 119.95 304.91 119.59 305.114C119.242 305.306 118.966 305.57 118.762 305.906C118.558 306.23 118.456 306.596 118.456 307.004C118.456 307.652 118.678 308.186 119.122 308.606C119.578 309.026 120.148 309.236 120.832 309.236ZM131.394 311.216C130.566 311.216 129.816 311.072 129.144 310.784C128.472 310.484 127.932 310.028 127.524 309.416C127.116 308.804 126.9 308.036 126.876 307.112H129.144C129.156 307.724 129.354 308.24 129.738 308.66C130.134 309.068 130.686 309.272 131.394 309.272C132.066 309.272 132.582 309.086 132.942 308.714C133.302 308.342 133.482 307.874 133.482 307.31C133.482 306.65 133.242 306.152 132.762 305.816C132.294 305.468 131.688 305.294 130.944 305.294H130.008V303.404H130.962C131.574 303.404 132.084 303.26 132.492 302.972C132.9 302.684 133.104 302.258 133.104 301.694C133.104 301.226 132.948 300.854 132.636 300.578C132.336 300.29 131.916 300.146 131.376 300.146C130.788 300.146 130.326 300.32 129.99 300.668C129.666 301.016 129.486 301.442 129.45 301.946H127.2C127.248 300.782 127.65 299.864 128.406 299.192C129.174 298.52 130.164 298.184 131.376 298.184C132.24 298.184 132.966 298.34 133.554 298.652C134.154 298.952 134.604 299.354 134.904 299.858C135.216 300.362 135.372 300.92 135.372 301.532C135.372 302.24 135.174 302.84 134.778 303.332C134.394 303.812 133.914 304.136 133.338 304.304C134.046 304.448 134.622 304.796 135.066 305.348C135.51 305.888 135.732 306.572 135.732 307.4C135.732 308.096 135.564 308.732 135.228 309.308C134.892 309.884 134.4 310.346 133.752 310.694C133.116 311.042 132.33 311.216 131.394 311.216ZM140.069 304.592C139.493 304.592 138.971 304.466 138.503 304.214C138.035 303.95 137.663 303.578 137.387 303.098C137.111 302.618 136.973 302.048 136.973 301.388C136.973 300.728 137.111 300.158 137.387 299.678C137.663 299.198 138.035 298.832 138.503 298.58C138.971 298.316 139.499 298.184 140.087 298.184C140.663 298.184 141.179 298.316 141.635 298.58C142.103 298.832 142.475 299.198 142.751 299.678C143.027 300.158 143.165 300.728 143.165 301.388C143.165 302.048 143.027 302.618 142.751 303.098C142.475 303.578 142.103 303.95 141.635 304.214C141.167 304.466 140.645 304.592 140.069 304.592ZM139.385 311L146.495 298.4H148.745L141.635 311H139.385ZM140.069 302.99C140.417 302.99 140.717 302.858 140.969 302.594C141.221 302.318 141.347 301.916 141.347 301.388C141.347 300.86 141.221 300.458 140.969 300.182C140.729 299.906 140.429 299.768 140.069 299.768C139.709 299.768 139.403 299.906 139.151 300.182C138.911 300.458 138.791 300.86 138.791 301.388C138.791 301.916 138.911 302.318 139.151 302.594C139.403 302.858 139.709 302.99 140.069 302.99ZM148.133 311.216C147.557 311.216 147.035 311.09 146.567 310.838C146.099 310.574 145.727 310.202 145.451 309.722C145.175 309.242 145.037 308.672 145.037 308.012C145.037 307.352 145.175 306.788 145.451 306.32C145.727 305.84 146.099 305.474 146.567 305.222C147.035 304.958 147.563 304.826 148.151 304.826C148.727 304.826 149.243 304.958 149.699 305.222C150.167 305.474 150.539 305.84 150.815 306.32C151.091 306.788 151.229 307.352 151.229 308.012C151.229 308.672 151.091 309.242 150.815 309.722C150.539 310.202 150.167 310.574 149.699 310.838C149.243 311.09 148.721 311.216 148.133 311.216ZM148.133 309.614C148.493 309.614 148.793 309.482 149.033 309.218C149.285 308.942 149.411 308.54 149.411 308.012C149.411 307.484 149.285 307.082 149.033 306.806C148.793 306.53 148.493 306.392 148.133 306.392C147.773 306.392 147.467 306.53 147.215 306.806C146.975 307.082 146.855 307.484 146.855 308.012C146.855 308.54 146.975 308.942 147.215 309.218C147.467 309.482 147.773 309.614 148.133 309.614Z" fill="#2B3674"/>
<circle cx="106" cy="287" r="4" fill="#9854FF"/>
<path d="M295.888 291V282.6H301.12V283.584H297.088V286.308H300.46V287.268H297.088V291H295.888ZM304.558 291.144C303.974 291.144 303.458 291.012 303.01 290.748C302.57 290.476 302.226 290.1 301.978 289.62C301.73 289.14 301.606 288.58 301.606 287.94C301.606 287.292 301.73 286.728 301.978 286.248C302.226 285.76 302.574 285.38 303.022 285.108C303.47 284.836 303.986 284.7 304.57 284.7C305.17 284.7 305.682 284.836 306.106 285.108C306.53 285.372 306.854 285.728 307.078 286.176C307.302 286.616 307.414 287.108 307.414 287.652C307.414 287.732 307.41 287.816 307.402 287.904C307.402 287.992 307.398 288.092 307.39 288.204H302.482V287.364H306.214C306.198 286.836 306.034 286.428 305.722 286.14C305.41 285.844 305.022 285.696 304.558 285.696C304.238 285.696 303.942 285.772 303.67 285.924C303.406 286.076 303.19 286.3 303.022 286.596C302.862 286.884 302.782 287.252 302.782 287.7V288.036C302.782 288.492 302.862 288.88 303.022 289.2C303.182 289.512 303.394 289.748 303.658 289.908C303.93 290.068 304.226 290.148 304.546 290.148C304.946 290.148 305.266 290.068 305.506 289.908C305.746 289.74 305.922 289.516 306.034 289.236H307.246C307.142 289.596 306.966 289.92 306.718 290.208C306.47 290.496 306.162 290.724 305.794 290.892C305.434 291.06 305.022 291.144 304.558 291.144ZM308.532 291V284.844H309.612L309.684 285.696C309.876 285.384 310.132 285.14 310.452 284.964C310.78 284.788 311.136 284.7 311.52 284.7C311.824 284.7 312.1 284.744 312.348 284.832C312.596 284.912 312.812 285.036 312.996 285.204C313.188 285.364 313.34 285.572 313.452 285.828C313.668 285.468 313.956 285.192 314.316 285C314.676 284.8 315.06 284.7 315.468 284.7C315.948 284.7 316.36 284.796 316.704 284.988C317.048 285.18 317.312 285.468 317.496 285.852C317.68 286.228 317.772 286.7 317.772 287.268V291H316.584V287.388C316.584 286.836 316.468 286.424 316.236 286.152C316.004 285.872 315.676 285.732 315.252 285.732C314.972 285.732 314.716 285.804 314.484 285.948C314.26 286.092 314.08 286.308 313.944 286.596C313.816 286.876 313.752 287.216 313.752 287.616V291H312.552V287.388C312.552 286.836 312.436 286.424 312.204 286.152C311.98 285.872 311.656 285.732 311.232 285.732C310.952 285.732 310.696 285.804 310.464 285.948C310.24 286.092 310.06 286.308 309.924 286.596C309.796 286.876 309.732 287.216 309.732 287.616V291H308.532ZM321.112 291.144C320.624 291.144 320.216 291.06 319.888 290.892C319.568 290.716 319.328 290.484 319.168 290.196C319.008 289.908 318.928 289.596 318.928 289.26C318.928 288.86 319.028 288.516 319.228 288.228C319.436 287.94 319.732 287.72 320.116 287.568C320.5 287.416 320.96 287.34 321.496 287.34H323.056C323.056 286.972 323.008 286.668 322.912 286.428C322.816 286.188 322.664 286.008 322.456 285.888C322.256 285.768 321.996 285.708 321.676 285.708C321.324 285.708 321.024 285.792 320.776 285.96C320.528 286.128 320.372 286.376 320.308 286.704H319.108C319.156 286.28 319.3 285.92 319.54 285.624C319.78 285.328 320.084 285.1 320.452 284.94C320.828 284.78 321.236 284.7 321.676 284.7C322.244 284.7 322.716 284.8 323.092 285C323.476 285.2 323.764 285.484 323.956 285.852C324.156 286.212 324.256 286.644 324.256 287.148V291H323.2L323.104 289.968C323.024 290.136 322.92 290.292 322.792 290.436C322.672 290.572 322.528 290.696 322.36 290.808C322.2 290.912 322.016 290.992 321.808 291.048C321.6 291.112 321.368 291.144 321.112 291.144ZM321.34 290.172C321.588 290.172 321.816 290.12 322.024 290.016C322.232 289.904 322.408 289.76 322.552 289.584C322.704 289.4 322.82 289.196 322.9 288.972C322.98 288.74 323.024 288.496 323.032 288.24V288.18H321.616C321.272 288.18 320.996 288.224 320.788 288.312C320.58 288.4 320.428 288.52 320.332 288.672C320.236 288.816 320.188 288.984 320.188 289.176C320.188 289.376 320.232 289.552 320.32 289.704C320.408 289.848 320.54 289.964 320.716 290.052C320.892 290.132 321.1 290.172 321.34 290.172ZM325.595 291V282.36H326.795V291H325.595ZM330.938 291.144C330.354 291.144 329.838 291.012 329.39 290.748C328.95 290.476 328.606 290.1 328.358 289.62C328.11 289.14 327.986 288.58 327.986 287.94C327.986 287.292 328.11 286.728 328.358 286.248C328.606 285.76 328.954 285.38 329.402 285.108C329.85 284.836 330.366 284.7 330.95 284.7C331.55 284.7 332.062 284.836 332.486 285.108C332.91 285.372 333.234 285.728 333.458 286.176C333.682 286.616 333.794 287.108 333.794 287.652C333.794 287.732 333.79 287.816 333.782 287.904C333.782 287.992 333.778 288.092 333.77 288.204H328.862V287.364H332.594C332.578 286.836 332.414 286.428 332.102 286.14C331.79 285.844 331.402 285.696 330.938 285.696C330.618 285.696 330.322 285.772 330.05 285.924C329.786 286.076 329.57 286.3 329.402 286.596C329.242 286.884 329.162 287.252 329.162 287.7V288.036C329.162 288.492 329.242 288.88 329.402 289.2C329.562 289.512 329.774 289.748 330.038 289.908C330.31 290.068 330.606 290.148 330.926 290.148C331.326 290.148 331.646 290.068 331.886 289.908C332.126 289.74 332.302 289.516 332.414 289.236H333.626C333.522 289.596 333.346 289.92 333.098 290.208C332.85 290.496 332.542 290.724 332.174 290.892C331.814 291.06 331.402 291.144 330.938 291.144ZM340.909 291.144C340.317 291.144 339.781 291.028 339.301 290.796C338.821 290.556 338.437 290.196 338.149 289.716C337.869 289.228 337.729 288.608 337.729 287.856V282.6H338.929V287.868C338.929 288.372 339.013 288.788 339.181 289.116C339.349 289.436 339.581 289.676 339.877 289.836C340.181 289.988 340.533 290.064 340.933 290.064C341.341 290.064 341.689 289.988 341.977 289.836C342.273 289.676 342.501 289.436 342.661 289.116C342.829 288.788 342.913 288.372 342.913 287.868V282.6H344.113V287.856C344.113 288.608 343.969 289.228 343.681 289.716C343.393 290.196 343.005 290.556 342.517 290.796C342.037 291.028 341.501 291.144 340.909 291.144ZM347.834 291.144C347.29 291.144 346.826 291.06 346.442 290.892C346.058 290.716 345.758 290.476 345.542 290.172C345.334 289.86 345.21 289.504 345.17 289.104H346.382C346.422 289.296 346.498 289.472 346.61 289.632C346.722 289.792 346.878 289.924 347.078 290.028C347.286 290.124 347.538 290.172 347.834 290.172C348.09 290.172 348.306 290.136 348.482 290.064C348.658 289.984 348.786 289.876 348.866 289.74C348.954 289.604 348.998 289.456 348.998 289.296C348.998 289.064 348.942 288.888 348.83 288.768C348.726 288.64 348.566 288.544 348.35 288.48C348.142 288.408 347.886 288.348 347.582 288.3C347.278 288.244 346.99 288.176 346.718 288.096C346.454 288.008 346.222 287.896 346.022 287.76C345.822 287.624 345.666 287.456 345.554 287.256C345.442 287.048 345.386 286.8 345.386 286.512C345.386 286.16 345.478 285.848 345.662 285.576C345.846 285.304 346.11 285.092 346.454 284.94C346.798 284.78 347.21 284.7 347.69 284.7C348.37 284.7 348.914 284.86 349.322 285.18C349.73 285.5 349.97 285.948 350.042 286.524H348.878C348.838 286.26 348.714 286.056 348.506 285.912C348.298 285.76 348.022 285.684 347.678 285.684C347.318 285.684 347.042 285.752 346.85 285.888C346.666 286.024 346.574 286.204 346.574 286.428C346.574 286.58 346.622 286.72 346.718 286.848C346.814 286.968 346.966 287.068 347.174 287.148C347.382 287.228 347.646 287.296 347.966 287.352C348.422 287.432 348.818 287.532 349.154 287.652C349.49 287.772 349.75 287.952 349.934 288.192C350.126 288.432 350.222 288.772 350.222 289.212C350.222 289.604 350.122 289.948 349.922 290.244C349.73 290.532 349.454 290.756 349.094 290.916C348.742 291.068 348.322 291.144 347.834 291.144ZM354.142 291.144C353.558 291.144 353.042 291.012 352.594 290.748C352.154 290.476 351.81 290.1 351.562 289.62C351.314 289.14 351.19 288.58 351.19 287.94C351.19 287.292 351.314 286.728 351.562 286.248C351.81 285.76 352.158 285.38 352.606 285.108C353.054 284.836 353.57 284.7 354.154 284.7C354.754 284.7 355.266 284.836 355.69 285.108C356.114 285.372 356.438 285.728 356.662 286.176C356.886 286.616 356.998 287.108 356.998 287.652C356.998 287.732 356.994 287.816 356.986 287.904C356.986 287.992 356.982 288.092 356.974 288.204H352.066V287.364H355.798C355.782 286.836 355.618 286.428 355.306 286.14C354.994 285.844 354.606 285.696 354.142 285.696C353.822 285.696 353.526 285.772 353.254 285.924C352.99 286.076 352.774 286.3 352.606 286.596C352.446 286.884 352.366 287.252 352.366 287.7V288.036C352.366 288.492 352.446 288.88 352.606 289.2C352.766 289.512 352.978 289.748 353.242 289.908C353.514 290.068 353.81 290.148 354.13 290.148C354.53 290.148 354.85 290.068 355.09 289.908C355.33 289.74 355.506 289.516 355.618 289.236H356.83C356.726 289.596 356.55 289.92 356.302 290.208C356.054 290.496 355.746 290.724 355.378 290.892C355.018 291.06 354.606 291.144 354.142 291.144ZM358.115 291V284.844H359.195L359.291 285.984C359.435 285.712 359.619 285.48 359.843 285.288C360.067 285.096 360.331 284.952 360.635 284.856C360.947 284.752 361.295 284.7 361.679 284.7V285.972H361.139C360.899 285.972 360.667 286.004 360.443 286.068C360.227 286.124 360.031 286.224 359.855 286.368C359.687 286.504 359.555 286.692 359.459 286.932C359.363 287.172 359.315 287.476 359.315 287.844V291H358.115ZM364.903 291.144C364.359 291.144 363.895 291.06 363.511 290.892C363.127 290.716 362.827 290.476 362.611 290.172C362.403 289.86 362.279 289.504 362.239 289.104H363.451C363.491 289.296 363.567 289.472 363.679 289.632C363.791 289.792 363.947 289.924 364.147 290.028C364.355 290.124 364.607 290.172 364.903 290.172C365.159 290.172 365.375 290.136 365.551 290.064C365.727 289.984 365.855 289.876 365.935 289.74C366.023 289.604 366.067 289.456 366.067 289.296C366.067 289.064 366.011 288.888 365.899 288.768C365.795 288.64 365.635 288.544 365.419 288.48C365.211 288.408 364.955 288.348 364.651 288.3C364.347 288.244 364.059 288.176 363.787 288.096C363.523 288.008 363.291 287.896 363.091 287.76C362.891 287.624 362.735 287.456 362.623 287.256C362.511 287.048 362.455 286.8 362.455 286.512C362.455 286.16 362.547 285.848 362.731 285.576C362.915 285.304 363.179 285.092 363.523 284.94C363.867 284.78 364.279 284.7 364.759 284.7C365.439 284.7 365.983 284.86 366.391 285.18C366.799 285.5 367.039 285.948 367.111 286.524H365.947C365.907 286.26 365.783 286.056 365.575 285.912C365.367 285.76 365.091 285.684 364.747 285.684C364.387 285.684 364.111 285.752 363.919 285.888C363.735 286.024 363.643 286.204 363.643 286.428C363.643 286.58 363.691 286.72 363.787 286.848C363.883 286.968 364.035 287.068 364.243 287.148C364.451 287.228 364.715 287.296 365.035 287.352C365.491 287.432 365.887 287.532 366.223 287.652C366.559 287.772 366.819 287.952 367.003 288.192C367.195 288.432 367.291 288.772 367.291 289.212C367.291 289.604 367.191 289.948 366.991 290.244C366.799 290.532 366.523 290.756 366.163 290.916C365.811 291.068 365.391 291.144 364.903 291.144Z" fill="#A3AED0"/>
<path d="M295.918 311V309.326C296.686 308.69 297.43 308.06 298.15 307.436C298.882 306.812 299.53 306.194 300.094 305.582C300.67 304.97 301.126 304.376 301.462 303.8C301.81 303.212 301.984 302.642 301.984 302.09C301.984 301.574 301.84 301.118 301.552 300.722C301.276 300.326 300.814 300.128 300.166 300.128C299.506 300.128 299.008 300.344 298.672 300.776C298.336 301.208 298.168 301.73 298.168 302.342H295.936C295.96 301.418 296.164 300.65 296.548 300.038C296.932 299.414 297.442 298.952 298.078 298.652C298.714 298.34 299.428 298.184 300.22 298.184C301.504 298.184 302.5 298.538 303.208 299.246C303.928 299.942 304.288 300.848 304.288 301.964C304.288 302.66 304.126 303.338 303.802 303.998C303.49 304.658 303.076 305.294 302.56 305.906C302.044 306.518 301.486 307.094 300.886 307.634C300.286 308.162 299.704 308.654 299.14 309.11H304.594V311H295.918ZM310.665 311.216C309.741 311.216 308.943 311.054 308.271 310.73C307.611 310.406 307.089 309.962 306.705 309.398C306.333 308.822 306.117 308.174 306.057 307.454H308.307C308.415 307.97 308.679 308.402 309.099 308.75C309.519 309.086 310.041 309.254 310.665 309.254C311.337 309.254 311.883 309.008 312.303 308.516C312.735 308.024 312.951 307.412 312.951 306.68C312.951 305.924 312.735 305.324 312.303 304.88C311.883 304.436 311.349 304.214 310.701 304.214C310.161 304.214 309.693 304.346 309.297 304.61C308.901 304.874 308.619 305.204 308.451 305.6H306.237L307.317 298.4H314.301V300.416H309.045L308.469 303.332C308.733 303.044 309.093 302.81 309.549 302.63C310.005 302.438 310.515 302.342 311.079 302.342C311.979 302.342 312.729 302.546 313.329 302.954C313.929 303.35 314.385 303.878 314.697 304.538C315.009 305.186 315.165 305.894 315.165 306.662C315.165 307.538 314.973 308.318 314.589 309.002C314.217 309.686 313.689 310.226 313.005 310.622C312.333 311.018 311.553 311.216 310.665 311.216ZM319.541 304.592C318.965 304.592 318.443 304.466 317.975 304.214C317.507 303.95 317.135 303.578 316.859 303.098C316.583 302.618 316.445 302.048 316.445 301.388C316.445 300.728 316.583 300.158 316.859 299.678C317.135 299.198 317.507 298.832 317.975 298.58C318.443 298.316 318.971 298.184 319.559 298.184C320.135 298.184 320.651 298.316 321.107 298.58C321.575 298.832 321.947 299.198 322.223 299.678C322.499 300.158 322.637 300.728 322.637 301.388C322.637 302.048 322.499 302.618 322.223 303.098C321.947 303.578 321.575 303.95 321.107 304.214C320.639 304.466 320.117 304.592 319.541 304.592ZM318.857 311L325.967 298.4H328.217L321.107 311H318.857ZM319.541 302.99C319.889 302.99 320.189 302.858 320.441 302.594C320.693 302.318 320.819 301.916 320.819 301.388C320.819 300.86 320.693 300.458 320.441 300.182C320.201 299.906 319.901 299.768 319.541 299.768C319.181 299.768 318.875 299.906 318.623 300.182C318.383 300.458 318.263 300.86 318.263 301.388C318.263 301.916 318.383 302.318 318.623 302.594C318.875 302.858 319.181 302.99 319.541 302.99ZM327.605 311.216C327.029 311.216 326.507 311.09 326.039 310.838C325.571 310.574 325.199 310.202 324.923 309.722C324.647 309.242 324.509 308.672 324.509 308.012C324.509 307.352 324.647 306.788 324.923 306.32C325.199 305.84 325.571 305.474 326.039 305.222C326.507 304.958 327.035 304.826 327.623 304.826C328.199 304.826 328.715 304.958 329.171 305.222C329.639 305.474 330.011 305.84 330.287 306.32C330.563 306.788 330.701 307.352 330.701 308.012C330.701 308.672 330.563 309.242 330.287 309.722C330.011 310.202 329.639 310.574 329.171 310.838C328.715 311.09 328.193 311.216 327.605 311.216ZM327.605 309.614C327.965 309.614 328.265 309.482 328.505 309.218C328.757 308.942 328.883 308.54 328.883 308.012C328.883 307.484 328.757 307.082 328.505 306.806C328.265 306.53 327.965 306.392 327.605 306.392C327.245 306.392 326.939 306.53 326.687 306.806C326.447 307.082 326.327 307.484 326.327 308.012C326.327 308.54 326.447 308.942 326.687 309.218C326.939 309.482 327.245 309.614 327.605 309.614Z" fill="#2B3674"/>
<circle cx="286" cy="287" r="4" fill="#00DDEB"/>
</g>
</g>
</g>
<defs>
<filter id="filter0_d_152_5402" x="0" y="0" width="447" height="405" filterUnits="userSpaceOnUse" color-interpolation-filters="sRGB">
<feFlood flood-opacity="0" result="BackgroundImageFix"/>
<feColorMatrix in="SourceAlpha" type="matrix" values="0 0 0 0 0 0 0 0 0 0 0 0 0 0 0 0 0 0 127 0" result="hardAlpha"/>
<feOffset dy="4"/>
<feGaussianBlur stdDeviation="15"/>
<feComposite in2="hardAlpha" operator="out"/>
<feColorMatrix type="matrix" values="0 0 0 0 0.56805 0 0 0 0 0.566793 0 0 0 0 0.566793 0 0 0 0.15 0"/>
<feBlend mode="normal" in2="BackgroundImageFix" result="effect1_dropShadow_152_5402"/>
<feBlend mode="normal" in="SourceGraphic" in2="effect1_dropShadow_152_5402" result="shape"/>
</filter>
<filter id="filter1_d_152_5402" x="22" y="238" width="403" height="155" filterUnits="userSpaceOnUse" color-interpolation-filters="sRGB">
<feFlood flood-opacity="0" result="BackgroundImageFix"/>
<feColorMatrix in="SourceAlpha" type="matrix" values="0 0 0 0 0 0 0 0 0 0 0 0 0 0 0 0 0 0 127 0" result="hardAlpha"/>
<feOffset dy="18"/>
<feGaussianBlur stdDeviation="20"/>
<feColorMatrix type="matrix" values="0 0 0 0 0.439216 0 0 0 0 0.564706 0 0 0 0 0.690196 0 0 0 0.12 0"/>
<feBlend mode="normal" in2="BackgroundImageFix" result="effect1_dropShadow_152_5402"/>
<feBlend mode="normal" in="SourceGraphic" in2="effect1_dropShadow_152_5402" result="shape"/>
</filter>
<clipPath id="clip0_152_5402">
<rect x="30" y="26" width="387" height="345" rx="20" fill="white"/>
</clipPath>
</defs>
</svg>
