<svg width="20" height="21" viewBox="0 0 20 21" fill="none" xmlns="http://www.w3.org/2000/svg">
<path d="M8.60386 4.15556C8.95919 2.69188 11.0408 2.69188 11.3961 4.15556C11.6257 5.10108 12.709 5.54978 13.5398 5.04351C14.8261 4.25979 16.298 5.73172 15.5143 7.01795C15.008 7.84885 15.4567 8.93211 16.4022 9.16166C17.8659 9.51699 17.8659 11.5986 16.4022 11.9539C15.4567 12.1835 15.008 13.2668 15.5143 14.0976C16.298 15.3839 14.8261 16.8558 13.5398 16.0721C12.709 15.5658 11.6257 16.0145 11.3961 16.96C11.0408 18.4237 8.95919 18.4237 8.60386 16.96C8.37431 16.0145 7.29105 15.5658 6.46016 16.0721C5.17392 16.8558 3.70199 15.3839 4.48571 14.0976C4.99198 13.2668 4.54327 12.1835 3.59776 11.9539C2.13408 11.5986 2.13408 9.51699 3.59776 9.16166C4.54327 8.93211 4.99198 7.84885 4.48571 7.01795C3.70199 5.73172 5.17392 4.25979 6.46015 5.04351C7.29105 5.54978 8.37431 5.10107 8.60386 4.15556Z" stroke="#64748B" stroke-width="1.5" stroke-linecap="round" stroke-linejoin="round"/>
<path d="M12.5 10.5578C12.5 11.9385 11.3807 13.0578 10 13.0578C8.61929 13.0578 7.5 11.9385 7.5 10.5578C7.5 9.17709 8.61929 8.0578 10 8.0578C11.3807 8.0578 12.5 9.17709 12.5 10.5578Z" stroke="#64748B" stroke-width="1.5" stroke-linecap="round" stroke-linejoin="round"/>
</svg>
