<svg width="20" height="20" viewBox="0 0 20 20" fill="none" xmlns="http://www.w3.org/2000/svg">
<path d="M17.4547 4.18177C17.4547 5.48722 16.3966 6.54551 15.0911 6.54551C13.7857 6.54551 12.7275 5.48722 12.7275 4.18177C12.7275 2.87646 13.7857 1.81818 15.0911 1.81818C16.3966 1.81818 17.4547 2.87646 17.4547 4.18177Z" fill="#9854FF"/>
<path d="M15.0907 7.09095C13.4863 7.09095 12.1816 5.78618 12.1816 4.18176C12.1816 2.57747 13.4863 1.27271 15.0907 1.27271C16.6951 1.27271 17.9997 2.57747 17.9997 4.18176C17.9997 5.78618 16.6951 7.09095 15.0907 7.09095ZM15.0907 2.36362C14.0878 2.36362 13.2726 3.17969 13.2726 4.18176C13.2726 5.18397 14.0878 6.00004 15.0907 6.00004C16.0936 6.00004 16.9088 5.18397 16.9088 4.18176C16.9088 3.17969 16.0936 2.36362 15.0907 2.36362ZM17.4543 15.8182C17.4543 17.1236 16.3961 18.1818 15.0907 18.1818C13.7852 18.1818 12.7271 17.1236 12.7271 15.8182C12.7271 14.5128 13.7852 13.4545 15.0907 13.4545C16.3961 13.4545 17.4543 14.5128 17.4543 15.8182Z" fill="#9854FF"/>
<path d="M15.0914 18.7273C13.487 18.7273 12.1823 17.4225 12.1823 15.8183C12.1823 14.2138 13.487 12.9091 15.0914 12.9091C16.6958 12.9091 18.0004 14.2138 18.0004 15.8183C18.0004 17.4225 16.6958 18.7273 15.0914 18.7273ZM15.0914 14C14.0885 14 13.2732 14.816 13.2732 15.8183C13.2732 16.8204 14.0885 17.6364 15.0914 17.6364C16.0943 17.6364 16.9095 16.8203 16.9095 15.8183C16.9095 14.816 16.0943 14 15.0914 14ZM7.27323 10C7.27323 11.3055 6.21494 12.3636 4.9095 12.3636C3.60419 12.3636 2.5459 11.3055 2.5459 10C2.5459 8.69456 3.60419 7.63641 4.9095 7.63641C6.21494 7.63641 7.27323 8.69456 7.27323 10Z" fill="#9854FF"/>
<path d="M4.90905 12.909C3.30477 12.909 2 11.6044 2 10C2 8.39561 3.30477 7.09094 4.90905 7.09094C6.51348 7.09094 7.81824 8.39561 7.81824 10C7.81824 11.6044 6.51348 12.909 4.90905 12.909ZM4.90905 8.18185C3.90616 8.18185 3.09091 8.99779 3.09091 10C3.09091 11.0022 3.90616 11.8181 4.90905 11.8181C5.91208 11.8181 6.72733 11.0022 6.72733 10C6.72733 8.99779 5.91208 8.18185 4.90905 8.18185Z" fill="#9854FF"/>
<path d="M6.62644 9.65097C6.37328 9.65097 6.12745 9.51925 5.99364 9.28368C5.79506 8.93533 5.91731 8.49092 6.26569 8.29159L13.014 4.44436C13.3623 4.24434 13.8067 4.36659 14.0061 4.7163C14.2046 5.06464 14.0824 5.50905 13.734 5.70838L6.98559 9.55562C6.87623 9.61817 6.75242 9.65104 6.62644 9.65097ZM13.3741 15.651C13.2518 15.651 13.1282 15.6203 13.0148 15.5556L6.2664 11.7084C5.91799 11.5099 5.79591 11.0654 5.99446 10.7163C6.19219 10.3673 6.63728 10.2444 6.98644 10.4444L13.7349 14.2916C14.0832 14.4902 14.2053 14.9346 14.0068 15.2837C13.8723 15.5193 13.6264 15.651 13.3741 15.651H13.3741Z" fill="#9854FF"/>
</svg>
