<svg width="36" height="36" viewBox="0 0 36 36" fill="none" xmlns="http://www.w3.org/2000/svg">
<rect width="36" height="36" rx="8" fill="#E0FCFD"/>
<g clip-path="url(#clip0_1329_2932)">
<path d="M26.418 10H11.582C10.7098 10 10 10.7098 10 11.582V12.2852H28V11.582C28 10.7098 27.2902 10 26.418 10ZM17.0972 18.3219L18.976 19.9658L21.7208 17.2209C21.9382 17.0035 22.2889 17.0195 22.4879 17.2434L23.8164 18.738V15.8711H14.1836V20.3392L16.3953 18.3286C16.5936 18.1482 16.8955 18.1454 17.0972 18.3219Z" fill="#00DDEB"/>
<path d="M23.8164 20.3255L22.0711 18.3621L19.3729 21.0604C19.1765 21.2567 18.8616 21.2672 18.6527 21.0844L16.7567 19.4254L14.1836 21.7645V22.6914H23.8164V20.3255Z" fill="#00DDEB"/>
<path d="M10 26.418C10 27.2902 10.7098 28 11.582 28H26.418C27.2902 28 28 27.2902 28 26.418V13.3398H10V26.418ZM15.1541 25.8416L14.5916 26.4041C14.3857 26.6101 14.0518 26.6101 13.8458 26.4041L13.2833 25.8416C13.0774 25.6357 13.0774 25.3018 13.2833 25.0958C13.4893 24.8899 13.8232 24.8899 14.0291 25.0958L14.2188 25.2855L14.4084 25.0958C14.6143 24.8899 14.9482 24.8899 15.1542 25.0958C15.3601 25.3018 15.3601 25.6357 15.1541 25.8416ZM18.1562 26.2773H17.0312C16.74 26.2773 16.5039 26.0412 16.5039 25.75C16.5039 25.4588 16.74 25.2227 17.0312 25.2227H18.1562C18.4475 25.2227 18.6836 25.4588 18.6836 25.75C18.6836 26.0412 18.4475 26.2773 18.1562 26.2773ZM21.5312 26.2773H20.4062C20.115 26.2773 19.8789 26.0412 19.8789 25.75C19.8789 25.4588 20.115 25.2227 20.4062 25.2227H21.5312C21.8225 25.2227 22.0586 25.4588 22.0586 25.75C22.0586 26.0412 21.8225 26.2773 21.5312 26.2773ZM13.1289 15.3438C13.1289 15.0525 13.365 14.8164 13.6562 14.8164H24.3438C24.635 14.8164 24.8711 15.0525 24.8711 15.3438V23.2188C24.8711 23.51 24.635 23.7461 24.3438 23.7461H13.6562C13.365 23.7461 13.1289 23.51 13.1289 23.2188V15.3438Z" fill="#00DDEB"/>
</g>
<defs>
<clipPath id="clip0_1329_2932">
<rect width="18" height="18" fill="white" transform="translate(9 9)"/>
</clipPath>
</defs>
</svg>
