<svg width="36" height="36" viewBox="0 0 36 36" fill="none" xmlns="http://www.w3.org/2000/svg">
<rect width="36" height="36" rx="8" fill="#F4ECFB"/>
<path d="M14.744 12.375H20.756L22.0535 11.337C22.4953 10.9845 22.6603 10.4123 22.4735 9.87825C22.2867 9.34425 21.8015 9 21.2375 9H14.2625C13.6985 9 13.2133 9.345 13.0265 9.87825C12.8398 10.4115 13.0048 10.9845 13.4458 11.3363L14.744 12.375ZM20.8588 13.5H14.6413C12.593 15.5107 11 19.0387 11 21.9375C11 24.4567 12.3335 27 15.3125 27H20.375C22.9198 27 24.5 25.0597 24.5 21.9375C24.5 19.0387 22.907 15.5107 20.8588 13.5ZM17.465 19.6875H18.035C18.4334 19.687 18.8174 19.8358 19.1114 20.1047C19.4053 20.3736 19.5877 20.7429 19.6226 21.1397C19.6574 21.5366 19.5422 21.932 19.2996 22.248C19.0571 22.564 18.7048 22.7776 18.3125 22.8465V23.4368C18.3125 23.5859 18.2532 23.729 18.1477 23.8345C18.0423 23.94 17.8992 23.9993 17.75 23.9993C17.6008 23.9993 17.4577 23.94 17.3523 23.8345C17.2468 23.729 17.1875 23.5859 17.1875 23.4368V22.875H16.4375C16.2883 22.875 16.1452 22.8157 16.0398 22.7102C15.9343 22.6048 15.875 22.4617 15.875 22.3125C15.875 22.1633 15.9343 22.0202 16.0398 21.9148C16.1452 21.8093 16.2883 21.75 16.4375 21.75H18.035C18.0961 21.75 18.1565 21.738 18.2129 21.7146C18.2694 21.6912 18.3206 21.657 18.3638 21.6138C18.407 21.5706 18.4412 21.5194 18.4646 21.4629C18.488 21.4065 18.5 21.3461 18.5 21.285C18.5007 21.2234 18.4892 21.1622 18.4662 21.1051C18.4431 21.0479 18.409 20.9959 18.3658 20.952C18.3226 20.9081 18.2711 20.8732 18.2143 20.8492C18.1576 20.8253 18.0966 20.8128 18.035 20.8125H17.465C17.0666 20.813 16.6826 20.6642 16.3886 20.3953C16.0947 20.1264 15.9123 19.7571 15.8774 19.3603C15.8426 18.9634 15.9578 18.568 16.2004 18.252C16.4429 17.936 16.7952 17.7224 17.1875 17.6535V17.0625C17.1875 16.9133 17.2468 16.7702 17.3523 16.6648C17.4577 16.5593 17.6008 16.5 17.75 16.5C17.8992 16.5 18.0423 16.5593 18.1477 16.6648C18.2532 16.7702 18.3125 16.9133 18.3125 17.0625V17.625H19.0625C19.2117 17.625 19.3548 17.6843 19.4602 17.7898C19.5657 17.8952 19.625 18.0383 19.625 18.1875C19.625 18.3367 19.5657 18.4798 19.4602 18.5852C19.3548 18.6907 19.2117 18.75 19.0625 18.75H17.465C17.3417 18.75 17.2234 18.799 17.1362 18.8862C17.049 18.9734 17 19.0917 17 19.215C17 19.479 17.2085 19.6875 17.465 19.6875Z" fill="#9854FF"/>
</svg>
