<svg width="20" height="20" viewBox="0 0 20 20" fill="none" xmlns="http://www.w3.org/2000/svg">
<path d="M13.7268 7.47137L6.27342 7.47137C6.14157 7.47193 6.01285 7.51156 5.90353 7.58527C5.7942 7.65898 5.70919 7.76345 5.65924 7.88547C5.60929 8.00749 5.59664 8.14159 5.6229 8.27079C5.64916 8.4 5.71314 8.51853 5.80675 8.61137L9.52675 12.3314C9.58873 12.3939 9.66246 12.4434 9.7437 12.4773C9.82494 12.5111 9.91208 12.5286 10.0001 12.5286C10.0881 12.5286 10.1752 12.5111 10.2565 12.4773C10.3377 12.4434 10.4114 12.3939 10.4734 12.3314L14.1934 8.61137C14.287 8.51853 14.351 8.4 14.3773 8.27079C14.4035 8.14159 14.3909 8.00749 14.3409 7.88547C14.291 7.76345 14.206 7.65898 14.0966 7.58527C13.9873 7.51156 13.8586 7.47193 13.7268 7.47137Z" fill="#667085"/>
</svg>
