<svg width="6" height="10" viewBox="0 0 6 10" fill="none" xmlns="http://www.w3.org/2000/svg">
<path d="M0 8.91931V1.47131C2.81495e-05 1.33947 0.0391425 1.21061 0.112399 1.101C0.185655 0.991395 0.289764 0.905969 0.411563 0.855522C0.533363 0.805075 0.667384 0.791874 0.796686 0.817585C0.925988 0.843297 1.04476 0.906768 1.138 0.999974L4.86199 4.72397C4.98697 4.84899 5.05718 5.01853 5.05718 5.19531C5.05718 5.37208 4.98697 5.54162 4.86199 5.66664L1.138 9.39064C1.04476 9.48385 0.925988 9.54732 0.796686 9.57303C0.667384 9.59874 0.533363 9.58554 0.411563 9.53509C0.289764 9.48465 0.185655 9.39922 0.112399 9.28961C0.0391425 9.18001 2.81495e-05 9.05114 0 8.91931Z" fill="#C2C6CE"/>
</svg>
