<svg width="36" height="36" viewBox="0 0 36 36" fill="none" xmlns="http://www.w3.org/2000/svg">
<rect width="36" height="36" rx="18" fill="#FAF5FF"/>
<path d="M12.3709 10.4873L15.52 13.6364H10.0655C10.1768 12.9678 10.4433 12.3346 10.8437 11.7877C11.2441 11.2408 11.7672 10.7954 12.3709 10.4873ZM16.6036 10H14.3636C14.2255 10 14.0873 10.0073 13.9491 10.0145L17.5709 13.6364H20.24L16.6036 10ZM21.6364 10H18.6691L22.3055 13.6364H25.9345C25.7642 12.6197 25.2388 11.6964 24.4518 11.0306C23.6648 10.3648 22.6672 9.99959 21.6364 10ZM16.896 22.0916L20.5324 20.0916C20.6464 20.0289 20.7415 19.9366 20.8077 19.8246C20.8739 19.7125 20.9089 19.5847 20.9089 19.4545C20.9089 19.3244 20.8739 19.1966 20.8077 19.0845C20.7415 18.9725 20.6464 18.8802 20.5324 18.8175L16.896 16.8175C16.7853 16.7565 16.6606 16.7255 16.5342 16.7275C16.4079 16.7294 16.2842 16.7643 16.1754 16.8286C16.0666 16.8929 15.9764 16.9844 15.9138 17.0942C15.8512 17.204 15.8182 17.3282 15.8182 17.4545V21.4545C15.8182 21.5809 15.8512 21.7051 15.9138 21.8149C15.9764 21.9246 16.0666 22.0162 16.1754 22.0805C16.2842 22.1448 16.4079 22.1797 16.5342 22.1816C16.6606 22.1836 16.7853 22.1526 16.896 22.0916ZM26 15.0909V21.6364C25.999 22.7934 25.539 23.9027 24.7209 24.7209C23.9027 25.539 22.7934 25.999 21.6364 26H14.3636C13.2066 25.999 12.0973 25.539 11.2791 24.7209C10.461 23.9027 10.001 22.7934 10 21.6364V15.0909H26Z" fill="#9854FF"/>
</svg>
